<?xml version="1.0" encoding="UTF-8"?>
<!DOCTYPE svg PUBLIC "-//W3C//DTD SVG 1.1//EN" "http://www.w3.org/Graphics/SVG/1.1/DTD/svg11.dtd">
<svg xmlns="http://www.w3.org/2000/svg" version="1.1" width="1024px" height="1024px" style="shape-rendering:geometricPrecision; text-rendering:geometricPrecision; image-rendering:optimizeQuality; fill-rule:evenodd; clip-rule:evenodd" xmlns:xlink="http://www.w3.org/1999/xlink">
<g><path style="opacity:0.039" fill="#0c0c0c" d="M 471.5,90.5 C 498.169,90.3334 524.835,90.5 551.5,91C 669.257,103.543 766.757,155.377 844,246.5C 924.223,351.312 951.557,468.979 926,599.5C 920.572,619.292 914.572,638.959 908,658.5C 901.639,673.225 894.972,687.891 888,702.5C 878.762,718.896 868.928,734.896 858.5,750.5C 864.981,772.152 866.147,794.152 862,816.5C 850.778,844.15 830.278,855.984 800.5,852C 790.719,850.212 781.719,846.545 773.5,841C 772.167,840.333 770.833,840.333 769.5,841C 703.213,893.293 628.213,922.96 544.5,930C 458.58,935.711 378.58,917.711 304.5,876C 297.5,871.667 290.5,867.333 283.5,863C 277.938,856.11 271.271,854.777 263.5,859C 248.506,868.663 232.839,876.996 216.5,884C 180.213,890.96 156.38,877.127 145,842.5C 144.891,837.386 144.224,832.386 143,827.5C 142.333,822.833 142.333,818.167 143,813.5C 144.004,805.123 145.337,796.789 147,788.5C 151.702,774.039 156.535,759.539 161.5,745C 155.479,732.988 148.646,721.488 141,710.5C 72.4095,579.441 71.0762,447.441 137,314.5C 158.871,274.553 186.371,238.387 219.5,206C 258.51,170.292 302.177,141.959 350.5,121C 379.816,109.807 409.816,101.141 440.5,95C 450.622,94.4777 460.622,93.4777 470.5,92C 471.056,91.6174 471.389,91.1174 471.5,90.5 Z"/></g>
<g><path style="opacity:0.97" fill="#f9faf9" d="M 480.5,92.5 C 620.574,86.1435 737.74,134.477 832,237.5C 918.696,343.619 948.696,464.285 922,599.5C 908.684,653.455 886.184,703.122 854.5,748.5C 861.722,770.577 862.889,792.911 858,815.5C 848.122,840.538 829.622,851.371 802.5,848C 792.199,846.506 782.866,842.839 774.5,837C 772.833,836.333 771.167,836.333 769.5,837C 675.03,910.375 568.03,938.709 448.5,922C 383.936,912.203 325.269,888.369 272.5,850.5C 260.869,855.651 249.869,861.818 239.5,869C 232.466,872.848 225.133,876.181 217.5,879C 179.73,887.535 156.23,873.035 147,835.5C 145.084,812.16 148.084,789.493 156,767.5C 158.893,759.383 162.059,751.383 165.5,743.5C 84.2797,619.316 70.4464,487.649 124,348.5C 165.308,254.187 231.808,183.354 323.5,136C 339.061,129.052 354.728,122.385 370.5,116C 406.462,103.977 443.129,96.1434 480.5,92.5 Z"/></g>
<g><path style="opacity:1" fill="#3475ab" d="M 551.5,122.5 C 565.812,123.222 579.812,125.222 593.5,128.5C 592.761,128.369 592.094,128.536 591.5,129C 596.773,130.488 602.107,131.654 607.5,132.5C 606.909,135.614 605.242,138.114 602.5,140C 612.609,138.605 622.609,138.105 632.5,138.5C 633.492,138.328 634.158,138.662 634.5,139.5C 635.184,140.939 636.851,141.939 639.5,142.5C 640.711,143.72 640.711,144.887 639.5,146C 644.137,146.306 648.637,147.14 653,148.5C 653.414,148.043 653.914,147.709 654.5,147.5C 669.666,153.778 684.666,160.445 699.5,167.5C 713.563,173.922 726.563,181.922 738.5,191.5C 744.596,197.262 751.262,202.262 758.5,206.5C 760.749,207.08 762.415,208.413 763.5,210.5C 781.833,226.833 799.167,244.167 815.5,262.5C 838.623,289.053 856.956,318.719 870.5,351.5C 876.269,366.633 881.769,381.967 887,397.5C 887.464,396.906 887.631,396.239 887.5,395.5C 888.404,396.209 888.737,397.209 888.5,398.5C 887.861,399.097 887.528,399.93 887.5,401C 901.833,450.822 906.5,501.656 901.5,553.5C 896.014,587.575 887.347,620.909 875.5,653.5C 875.128,657.297 873.794,660.63 871.5,663.5C 866.703,669.732 862.37,676.399 858.5,683.5C 857.158,680.679 856.492,680.846 856.5,684C 856.844,685.365 857.511,686.532 858.5,687.5C 857.422,690.207 856.422,692.874 855.5,695.5C 848.113,706.227 841.113,717.227 834.5,728.5C 833.241,732.025 831.241,735.025 828.5,737.5C 814.619,705.297 794.285,677.963 767.5,655.5C 766.294,652.702 764.294,650.535 761.5,649C 762.38,647.644 762.714,646.144 762.5,644.5C 761.5,644.5 760.5,644.5 759.5,644.5C 759.714,642.856 759.38,641.356 758.5,640C 760.473,639.505 762.473,639.338 764.5,639.5C 764.5,640.5 764.5,641.5 764.5,642.5C 765.5,642.5 766.5,642.5 767.5,642.5C 767.351,645.607 767.851,648.607 769,651.5C 769.893,652.711 770.726,652.711 771.5,651.5C 770.754,650.264 770.421,648.93 770.5,647.5C 777.5,647.5 784.5,647.5 791.5,647.5C 791.5,650.167 791.5,652.833 791.5,655.5C 794.167,655.5 796.833,655.5 799.5,655.5C 799.5,658.167 799.5,660.833 799.5,663.5C 807.5,663.5 815.5,663.5 823.5,663.5C 823.5,660.833 823.5,658.167 823.5,655.5C 825.167,655.5 826.833,655.5 828.5,655.5C 828.5,652.833 828.5,650.167 828.5,647.5C 829.5,647.5 830.5,647.5 831.5,647.5C 831.5,642.167 831.5,636.833 831.5,631.5C 836.833,631.5 842.167,631.5 847.5,631.5C 847.5,628.833 847.5,626.167 847.5,623.5C 844.833,623.5 842.167,623.5 839.5,623.5C 839.5,620.833 839.5,618.167 839.5,615.5C 836.833,615.5 834.167,615.5 831.5,615.5C 831.5,612.833 831.5,610.167 831.5,607.5C 828.833,607.5 826.167,607.5 823.5,607.5C 823.5,604.833 823.5,602.167 823.5,599.5C 820.833,599.5 818.167,599.5 815.5,599.5C 815.5,602.167 815.5,604.833 815.5,607.5C 812.833,607.5 810.167,607.5 807.5,607.5C 807.5,608.5 807.5,609.5 807.5,610.5C 804.833,610.5 802.167,610.5 799.5,610.5C 799.5,605.833 799.5,601.167 799.5,596.5C 804.833,596.5 810.167,596.5 815.5,596.5C 815.5,592.167 815.5,587.833 815.5,583.5C 818.167,583.5 820.833,583.5 823.5,583.5C 823.5,581.833 823.5,580.167 823.5,578.5C 826.167,578.5 828.833,578.5 831.5,578.5C 831.5,577.5 831.5,576.5 831.5,575.5C 834.167,575.5 836.833,575.5 839.5,575.5C 839.5,583.5 839.5,591.5 839.5,599.5C 847.5,599.5 855.5,599.5 863.5,599.5C 863.5,594.167 863.5,588.833 863.5,583.5C 866.167,583.5 868.833,583.5 871.5,583.5C 871.5,580.833 871.5,578.167 871.5,575.5C 874.167,575.5 876.833,575.5 879.5,575.5C 879.5,570.167 879.5,564.833 879.5,559.5C 881.288,559.785 882.955,559.452 884.5,558.5C 882.344,556.371 880.677,554.038 879.5,551.5C 872.5,551.5 865.5,551.5 858.5,551.5C 858.5,554.167 858.5,556.833 858.5,559.5C 860.167,559.5 861.833,559.5 863.5,559.5C 863.5,562.167 863.5,564.833 863.5,567.5C 858.167,567.5 852.833,567.5 847.5,567.5C 847.5,562.167 847.5,556.833 847.5,551.5C 850.167,551.5 852.833,551.5 855.5,551.5C 855.5,548.833 855.5,546.167 855.5,543.5C 853.833,543.5 852.167,543.5 850.5,543.5C 850.5,540.833 850.5,538.167 850.5,535.5C 848.5,535.5 846.5,535.5 844.5,535.5C 844.5,530.167 844.5,524.833 844.5,519.5C 848.167,519.5 851.833,519.5 855.5,519.5C 855.5,516.833 855.5,514.167 855.5,511.5C 844.833,511.5 834.167,511.5 823.5,511.5C 823.5,506.167 823.5,500.833 823.5,495.5C 820.833,495.5 818.167,495.5 815.5,495.5C 815.5,492.833 815.5,490.167 815.5,487.5C 818.167,487.5 820.833,487.5 823.5,487.5C 823.5,484.833 823.5,482.167 823.5,479.5C 826.167,479.5 828.833,479.5 831.5,479.5C 831.5,484.833 831.5,490.167 831.5,495.5C 837.833,495.5 844.167,495.5 850.5,495.5C 850.5,492.833 850.5,490.167 850.5,487.5C 852.167,487.5 853.833,487.5 855.5,487.5C 855.5,485.833 855.5,484.167 855.5,482.5C 852.833,482.5 850.167,482.5 847.5,482.5C 847.5,481.5 847.5,480.5 847.5,479.5C 850.167,479.5 852.833,479.5 855.5,479.5C 855.5,474.167 855.5,468.833 855.5,463.5C 858.167,463.5 860.833,463.5 863.5,463.5C 863.5,460.833 863.5,458.167 863.5,455.5C 866.167,455.5 868.833,455.5 871.5,455.5C 871.5,458.167 871.5,460.833 871.5,463.5C 877.833,463.5 884.167,463.5 890.5,463.5C 890.5,455.5 890.5,447.5 890.5,439.5C 884.167,439.5 877.833,439.5 871.5,439.5C 871.5,442.167 871.5,444.833 871.5,447.5C 868.833,447.5 866.167,447.5 863.5,447.5C 863.5,444.833 863.5,442.167 863.5,439.5C 860.833,439.5 858.167,439.5 855.5,439.5C 855.5,436.833 855.5,434.167 855.5,431.5C 850.167,431.5 844.833,431.5 839.5,431.5C 839.5,436.833 839.5,442.167 839.5,447.5C 831.5,447.5 823.5,447.5 815.5,447.5C 815.5,442.167 815.5,436.833 815.5,431.5C 812.833,431.5 810.167,431.5 807.5,431.5C 807.5,428.833 807.5,426.167 807.5,423.5C 812.833,423.5 818.167,423.5 823.5,423.5C 823.5,420.833 823.5,418.167 823.5,415.5C 826.167,415.5 828.833,415.5 831.5,415.5C 831.5,412.833 831.5,410.167 831.5,407.5C 836.833,407.5 842.167,407.5 847.5,407.5C 847.5,412.833 847.5,418.167 847.5,423.5C 852.833,423.5 858.167,423.5 863.5,423.5C 863.5,420.833 863.5,418.167 863.5,415.5C 859.833,415.5 856.167,415.5 852.5,415.5C 852.5,412.833 852.5,410.167 852.5,407.5C 853.5,407.5 854.5,407.5 855.5,407.5C 855.5,404.833 855.5,402.167 855.5,399.5C 853.833,399.5 852.167,399.5 850.5,399.5C 850.5,396.833 850.5,394.167 850.5,391.5C 849.5,391.5 848.5,391.5 847.5,391.5C 847.5,388.833 847.5,386.167 847.5,383.5C 845.833,383.5 844.167,383.5 842.5,383.5C 842.5,380.833 842.5,378.167 842.5,375.5C 844.167,375.5 845.833,375.5 847.5,375.5C 847.5,372.833 847.5,370.167 847.5,367.5C 848.5,367.5 849.5,367.5 850.5,367.5C 850.5,364.833 850.5,362.167 850.5,359.5C 849.5,359.5 848.5,359.5 847.5,359.5C 847.5,358.5 847.5,357.5 847.5,356.5C 842.167,356.5 836.833,356.5 831.5,356.5C 831.5,357.5 831.5,358.5 831.5,359.5C 826.167,359.5 820.833,359.5 815.5,359.5C 815.5,354.167 815.5,348.833 815.5,343.5C 818.167,343.5 820.833,343.5 823.5,343.5C 823.5,340.833 823.5,338.167 823.5,335.5C 818.167,335.5 812.833,335.5 807.5,335.5C 807.5,339.833 807.5,344.167 807.5,348.5C 804.833,348.5 802.167,348.5 799.5,348.5C 799.5,349.5 799.5,350.5 799.5,351.5C 802.167,351.5 804.833,351.5 807.5,351.5C 807.5,356.833 807.5,362.167 807.5,367.5C 799.5,367.5 791.5,367.5 783.5,367.5C 783.5,363.167 783.5,358.833 783.5,354.5C 786.167,354.5 788.833,354.5 791.5,354.5C 791.5,350.833 791.5,347.167 791.5,343.5C 783.5,343.5 775.5,343.5 767.5,343.5C 767.5,345.167 767.5,346.833 767.5,348.5C 764.833,348.5 762.167,348.5 759.5,348.5C 758.551,350.737 757.884,353.071 757.5,355.5C 755.61,355.703 754.11,355.037 753,353.5C 751.812,354.563 751.312,355.897 751.5,357.5C 746.895,349.873 742.228,342.206 737.5,334.5C 736.643,333.575 735.643,332.908 734.5,332.5C 721.454,316.787 706.787,302.787 690.5,290.5C 679.096,282.465 667.096,275.465 654.5,269.5C 644.43,264.041 634.097,259.375 623.5,255.5C 622.4,254.442 621.066,253.608 619.5,253C 586.804,243.83 553.471,240.33 519.5,242.5C 517.36,242.556 515.694,243.223 514.5,244.5C 513.209,244.263 512.209,244.596 511.5,245.5C 504.116,245.84 496.783,246.673 489.5,248C 478.142,250.507 466.809,253.007 455.5,255.5C 449.928,256.079 444.594,257.579 439.5,260C 437.167,260.667 434.833,260.667 432.5,260C 424.265,255.216 415.931,251.049 407.5,247.5C 407.5,246.5 407.5,245.5 407.5,244.5C 400.056,243.239 392.723,241.572 385.5,239.5C 383.142,237.871 380.476,236.705 377.5,236C 349.708,228.349 322.041,228.682 294.5,237C 289.833,240 285.167,243 280.5,246C 277.553,248.436 275.22,251.269 273.5,254.5C 264.685,266.592 263.185,279.592 269,293.5C 273.333,301.5 277.667,309.5 282,317.5C 286.775,332.24 286.442,346.907 281,361.5C 274.512,375.81 267.512,389.81 260,403.5C 259.148,408.477 259.648,413.31 261.5,418C 253.137,433.557 245.471,449.391 238.5,465.5C 235.504,470.759 232.671,476.759 230,483.5C 228.798,490.436 226.798,497.103 224,503.5C 222.68,503.799 221.18,503.966 219.5,504C 220.451,504.718 220.617,505.551 220,506.5C 218.846,507.743 217.512,508.743 216,509.5C 215.333,514.167 215.333,518.833 216,523.5C 216.5,522.5 217,521.5 217.5,520.5C 216.252,517.506 216.252,514.506 217.5,511.5C 218.696,512.559 219.363,513.893 219.5,515.5C 216.358,534.102 213.525,552.768 211,571.5C 209.073,598.133 207.906,624.799 207.5,651.5C 209.706,660.537 210.706,660.537 210.5,651.5C 211.473,653.948 211.806,656.615 211.5,659.5C 210.355,663.311 210.188,667.311 211,671.5C 211.44,678.705 212.773,685.705 215,692.5C 215.667,695.167 215.667,697.833 215,700.5C 213.887,701.711 212.72,701.711 211.5,700.5C 208.381,701.694 208.048,703.194 210.5,705C 209.859,707.13 208.526,708.63 206.5,709.5C 204.889,708.68 204.222,707.346 204.5,705.5C 202.857,705.52 201.524,704.853 200.5,703.5C 199.308,707.105 200.641,709.105 204.5,709.5C 204.97,712.346 204.137,714.679 202,716.5C 201.683,714.699 201.016,714.366 200,715.5C 198.266,719.597 197.266,723.931 197,728.5C 195.647,729.685 194.48,731.019 193.5,732.5C 190.245,729.989 188.578,726.656 188.5,722.5C 187.041,722.567 185.708,722.234 184.5,721.5C 178.167,713.511 172.833,704.844 168.5,695.5C 159.48,676.946 151.147,658.613 143.5,640.5C 136.623,617.747 130.623,596.081 125.5,575.5C 124.527,573.052 124.194,570.385 124.5,567.5C 122.204,543.392 120.538,519.392 119.5,495.5C 119.194,492.615 119.527,489.948 120.5,487.5C 122.522,472.473 124.522,457.306 126.5,442C 126.486,440.615 126.152,439.449 125.5,438.5C 127.191,429.974 129.191,421.641 131.5,413.5C 131.369,414.239 131.536,414.906 132,415.5C 136.262,399.215 141.428,383.215 147.5,367.5C 147.376,366.893 147.043,366.56 146.5,366.5C 149.654,358.855 152.821,351.188 156,343.5C 157.03,341.654 158.196,339.987 159.5,338.5C 166.147,326.545 172.813,314.545 179.5,302.5C 187.418,291.661 195.084,280.661 202.5,269.5C 207.088,262.575 212.422,256.242 218.5,250.5C 227.584,241.917 236.584,233.084 245.5,224C 247.313,223.386 247.647,223.719 246.5,225C 247.635,225.749 248.635,225.583 249.5,224.5C 254.336,217.448 260.336,211.782 267.5,207.5C 269.029,207.529 270.196,208.196 271,209.5C 270.773,207.426 270.939,205.426 271.5,203.5C 274.587,201.872 277.42,199.872 280,197.5C 280.333,197.833 280.667,198.167 281,198.5C 282.316,197.026 283.316,195.359 284,193.5C 287.023,191.302 289.856,188.969 292.5,186.5C 295.65,183.421 299.317,181.087 303.5,179.5C 309.068,177.141 314.402,174.308 319.5,171C 321.207,170.805 322.874,170.805 324.5,171C 332.596,166.186 340.596,161.186 348.5,156C 354.281,153.943 359.947,151.61 365.5,149C 371.619,148.347 377.619,147.18 383.5,145.5C 383.281,144.325 383.614,143.325 384.5,142.5C 386.725,143.101 388.891,143.434 391,143.5C 391.49,142.207 391.657,140.873 391.5,139.5C 402.769,136.949 413.436,133.949 423.5,130.5C 444.765,127.339 466.099,124.506 487.5,122C 508.84,121.389 530.174,121.556 551.5,122.5 Z"/></g>
<g><path style="opacity:1" fill="#325a7a" d="M 551.5,122.5 C 530.174,121.556 508.84,121.389 487.5,122C 466.099,124.506 444.765,127.339 423.5,130.5C 435.187,127.268 447.187,124.768 459.5,123C 482.095,120.21 504.761,119.21 527.5,120C 535.694,120.408 543.694,121.242 551.5,122.5 Z"/></g>
<g><path style="opacity:1" fill="#306691" d="M 593.5,128.5 C 606.724,131.056 619.724,134.389 632.5,138.5C 622.609,138.105 612.609,138.605 602.5,140C 605.242,138.114 606.909,135.614 607.5,132.5C 602.107,131.654 596.773,130.488 591.5,129C 592.094,128.536 592.761,128.369 593.5,128.5 Z"/></g>
<g><path style="opacity:1" fill="#2f5b80" d="M 423.5,130.5 C 413.436,133.949 402.769,136.949 391.5,139.5C 391.657,140.873 391.49,142.207 391,143.5C 388.891,143.434 386.725,143.101 384.5,142.5C 383.614,143.325 383.281,144.325 383.5,145.5C 377.619,147.18 371.619,148.347 365.5,149C 359.947,151.61 354.281,153.943 348.5,156C 340.596,161.186 332.596,166.186 324.5,171C 322.874,170.805 321.207,170.805 319.5,171C 314.402,174.308 309.068,177.141 303.5,179.5C 340.184,155.506 380.184,139.172 423.5,130.5 Z"/></g>
<g><path style="opacity:1" fill="#315f84" d="M 634.5,139.5 C 657.349,146.115 679.015,155.449 699.5,167.5C 684.666,160.445 669.666,153.778 654.5,147.5C 653.914,147.709 653.414,148.043 653,148.5C 648.637,147.14 644.137,146.306 639.5,146C 640.711,144.887 640.711,143.72 639.5,142.5C 636.851,141.939 635.184,140.939 634.5,139.5 Z"/></g>
<g><path style="opacity:1" fill="#294e6b" d="M 738.5,191.5 C 745.891,195.529 752.557,200.529 758.5,206.5C 751.262,202.262 744.596,197.262 738.5,191.5 Z"/></g>
<g><path style="opacity:1" fill="#2e5e85" d="M 292.5,186.5 C 289.856,188.969 287.023,191.302 284,193.5C 283.316,195.359 282.316,197.026 281,198.5C 280.667,198.167 280.333,197.833 280,197.5C 277.42,199.872 274.587,201.872 271.5,203.5C 270.939,205.426 270.773,207.426 271,209.5C 270.196,208.196 269.029,207.529 267.5,207.5C 260.336,211.782 254.336,217.448 249.5,224.5C 248.635,225.583 247.635,225.749 246.5,225C 247.647,223.719 247.313,223.386 245.5,224C 236.584,233.084 227.584,241.917 218.5,250.5C 240.09,225.408 264.757,204.074 292.5,186.5 Z"/></g>
<g><path style="opacity:1" fill="#254867" d="M 763.5,210.5 C 778.342,221.832 792.175,234.499 805,248.5C 809.126,252.78 812.626,257.446 815.5,262.5C 799.167,244.167 781.833,226.833 763.5,210.5 Z"/></g>
<g><path style="opacity:1" fill="#081227" d="M 380.5,239.5 C 367.086,237.016 353.419,235.35 339.5,234.5C 330.182,235.222 320.848,235.722 311.5,236C 306.556,239.969 300.889,241.969 294.5,242C 293.338,242.827 292.171,243.66 291,244.5C 289.862,244.011 288.695,243.678 287.5,243.5C 301.464,235.549 316.63,231.549 333,231.5C 347.321,232.144 361.488,233.978 375.5,237C 377.315,237.757 378.981,238.59 380.5,239.5 Z"/></g>
<g><path style="opacity:1" fill="#537ca4" d="M 385.5,239.5 C 384.833,239.5 384.167,239.5 383.5,239.5C 382.5,239.5 381.5,239.5 380.5,239.5C 378.981,238.59 377.315,237.757 375.5,237C 361.488,233.978 347.321,232.144 333,231.5C 316.63,231.549 301.464,235.549 287.5,243.5C 282.259,246.404 277.593,250.071 273.5,254.5C 275.22,251.269 277.553,248.436 280.5,246C 285.167,243 289.833,240 294.5,237C 322.041,228.682 349.708,228.349 377.5,236C 380.476,236.705 383.142,237.871 385.5,239.5 Z"/></g>
<g><path style="opacity:1" fill="#517ba4" d="M 623.5,255.5 C 587.834,245.433 551.5,241.767 514.5,244.5C 515.694,243.223 517.36,242.556 519.5,242.5C 553.471,240.33 586.804,243.83 619.5,253C 621.066,253.608 622.4,254.442 623.5,255.5 Z"/></g>
<g><path style="opacity:1" fill="#030c16" d="M 380.5,239.5 C 381.5,239.5 382.5,239.5 383.5,239.5C 383.5,240.5 383.5,241.5 383.5,242.5C 386.691,242.762 389.358,244.095 391.5,246.5C 389.326,247.893 387.493,247.56 386,245.5C 384.294,246.308 383.461,247.641 383.5,249.5C 386.167,249.5 388.833,249.5 391.5,249.5C 391.5,250.833 391.5,252.167 391.5,253.5C 380.913,253.864 380.913,254.864 391.5,256.5C 390.413,258.105 391.079,258.771 393.5,258.5C 395.921,258.771 396.587,258.105 395.5,256.5C 398.144,255.604 400.81,254.771 403.5,254C 403.167,253.667 402.833,253.333 402.5,253C 404.259,252.202 405.926,252.369 407.5,253.5C 403.689,254.738 403.689,255.404 407.5,255.5C 407.5,258.167 407.5,260.833 407.5,263.5C 411.593,263.522 415.593,264.189 419.5,265.5C 423.217,265.205 426.717,264.205 430,262.5C 432.553,265.265 435.719,266.098 439.5,265C 461.084,255.838 483.751,250.004 507.5,247.5C 509.333,247.415 510.666,246.748 511.5,245.5C 525.85,245.437 540.183,245.27 554.5,245C 550.667,246.369 551.001,247.203 555.5,247.5C 557.686,247.289 559.853,246.956 562,246.5C 570.859,250.169 580.026,251.169 589.5,249.5C 597.344,252.086 605.344,254.086 613.5,255.5C 616.916,257.869 620.582,259.869 624.5,261.5C 627.996,260.39 631.329,260.89 634.5,263C 633.552,263.483 632.552,263.649 631.5,263.5C 631.5,264.5 631.5,265.5 631.5,266.5C 636.395,265.575 639.895,267.242 642,271.5C 643.458,270.253 644.958,270.253 646.5,271.5C 647.251,270.624 647.751,269.624 648,268.5C 650.109,270.418 652.275,270.751 654.5,269.5C 667.096,275.465 679.096,282.465 690.5,290.5C 690.511,292.017 691.177,293.184 692.5,294C 692.167,294.333 691.833,294.667 691.5,295C 694.615,295.552 696.948,297.219 698.5,300C 697.833,300.333 697.167,300.667 696.5,301C 697.966,301.635 699.3,302.469 700.5,303.5C 702.784,302.584 703.951,303.584 704,306.5C 704.333,306.167 704.667,305.833 705,305.5C 709.543,309.342 713.709,313.509 717.5,318C 715.581,319.934 714.081,319.767 713,317.5C 712.333,318.167 711.667,318.833 711,319.5C 710.968,323.496 709.801,326.996 707.5,330C 709.057,332.886 711.391,335.053 714.5,336.5C 713.68,338.111 712.346,338.778 710.5,338.5C 693.748,318.412 673.748,302.412 650.5,290.5C 596.11,263.698 539.11,257.198 479.5,271C 443.98,279.764 411.647,294.931 382.5,316.5C 379.525,317.655 376.858,319.322 374.5,321.5C 373.204,318.328 372.204,314.995 371.5,311.5C 370.833,314.167 370.167,316.833 369.5,319.5C 368.167,320.833 366.833,320.833 365.5,319.5C 364.167,320.167 362.833,320.833 361.5,321.5C 360.579,319.782 359.245,317.782 357.5,315.5C 358.736,312.617 360.736,310.451 363.5,309C 364.784,308.316 365.951,308.483 367,309.5C 368.11,307.963 369.61,307.297 371.5,307.5C 372.04,304.255 373.706,301.755 376.5,300C 376.167,299.667 375.833,299.333 375.5,299C 377.577,298.808 379.577,298.308 381.5,297.5C 380.757,296.818 380.091,296.151 379.5,295.5C 383.622,292.266 387.955,289.266 392.5,286.5C 393.167,286.5 393.5,286.167 393.5,285.5C 400.211,282.977 406.544,279.644 412.5,275.5C 383.943,258.111 352.943,250.611 319.5,253C 310.846,254.33 302.846,257.33 295.5,262C 291.522,265.136 288.522,268.969 286.5,273.5C 285.21,274.058 284.377,275.058 284,276.5C 283.785,280.285 283.619,283.952 283.5,287.5C 282.5,286 281.5,284.5 280.5,283C 281.802,281.077 281.635,279.243 280,277.5C 279.501,272.845 279.334,268.179 279.5,263.5C 281.167,263.5 282.833,263.5 284.5,263.5C 284.03,260.654 284.863,258.321 287,256.5C 287.333,257.5 287.667,258.5 288,259.5C 289.755,256.79 292.255,255.123 295.5,254.5C 291.82,253.236 288.153,253.236 284.5,254.5C 282.775,253.985 281.108,253.318 279.5,252.5C 283.946,251.055 286.613,248.055 287.5,243.5C 288.695,243.678 289.862,244.011 291,244.5C 292.171,243.66 293.338,242.827 294.5,242C 300.889,241.969 306.556,239.969 311.5,236C 320.848,235.722 330.182,235.222 339.5,234.5C 353.419,235.35 367.086,237.016 380.5,239.5 Z"/></g>
<g><path style="opacity:1" fill="#060e22" d="M 623.5,255.5 C 634.097,259.375 644.43,264.041 654.5,269.5C 652.275,270.751 650.109,270.418 648,268.5C 647.751,269.624 647.251,270.624 646.5,271.5C 644.958,270.253 643.458,270.253 642,271.5C 639.895,267.242 636.395,265.575 631.5,266.5C 631.5,265.5 631.5,264.5 631.5,263.5C 632.552,263.649 633.552,263.483 634.5,263C 631.329,260.89 627.996,260.39 624.5,261.5C 620.582,259.869 616.916,257.869 613.5,255.5C 605.344,254.086 597.344,252.086 589.5,249.5C 580.026,251.169 570.859,250.169 562,246.5C 559.853,246.956 557.686,247.289 555.5,247.5C 551.001,247.203 550.667,246.369 554.5,245C 540.183,245.27 525.85,245.437 511.5,245.5C 512.209,244.596 513.209,244.263 514.5,244.5C 551.5,241.767 587.834,245.433 623.5,255.5 Z"/></g>
<g><path style="opacity:1" fill="#567ba3" d="M 385.5,239.5 C 392.723,241.572 400.056,243.239 407.5,244.5C 407.5,245.5 407.5,246.5 407.5,247.5C 415.931,251.049 424.265,255.216 432.5,260C 434.833,260.667 437.167,260.667 439.5,260C 444.594,257.579 449.928,256.079 455.5,255.5C 448.803,258.23 441.97,260.896 435,263.5C 419.276,253.72 402.776,245.72 385.5,239.5 Z"/></g>
<g><path style="opacity:1" fill="#c7e6f1" d="M 393.5,285.5 C 363.77,268.923 332.103,263.756 298.5,270C 294.569,271.028 290.902,272.528 287.5,274.5C 287.167,274.5 286.833,274.5 286.5,274.5C 286.5,274.167 286.5,273.833 286.5,273.5C 288.522,268.969 291.522,265.136 295.5,262C 302.846,257.33 310.846,254.33 319.5,253C 352.943,250.611 383.943,258.111 412.5,275.5C 406.544,279.644 400.211,282.977 393.5,285.5 Z"/></g>
<g><path style="opacity:1" fill="#050d1c" d="M 383.5,239.5 C 384.167,239.5 384.833,239.5 385.5,239.5C 402.776,245.72 419.276,253.72 435,263.5C 441.97,260.896 448.803,258.23 455.5,255.5C 466.809,253.007 478.142,250.507 489.5,248C 496.783,246.673 504.116,245.84 511.5,245.5C 510.666,246.748 509.333,247.415 507.5,247.5C 483.751,250.004 461.084,255.838 439.5,265C 435.719,266.098 432.553,265.265 430,262.5C 426.717,264.205 423.217,265.205 419.5,265.5C 415.593,264.189 411.593,263.522 407.5,263.5C 407.5,260.833 407.5,258.167 407.5,255.5C 403.689,255.404 403.689,254.738 407.5,253.5C 405.926,252.369 404.259,252.202 402.5,253C 402.833,253.333 403.167,253.667 403.5,254C 400.81,254.771 398.144,255.604 395.5,256.5C 396.587,258.105 395.921,258.771 393.5,258.5C 391.079,258.771 390.413,258.105 391.5,256.5C 380.913,254.864 380.913,253.864 391.5,253.5C 391.5,252.167 391.5,250.833 391.5,249.5C 388.833,249.5 386.167,249.5 383.5,249.5C 383.461,247.641 384.294,246.308 386,245.5C 387.493,247.56 389.326,247.893 391.5,246.5C 389.358,244.095 386.691,242.762 383.5,242.5C 383.5,241.5 383.5,240.5 383.5,239.5 Z"/></g>
<g><path style="opacity:1" fill="#cce4ec" d="M 650.5,290.5 C 649.542,290.953 648.708,291.619 648,292.5C 646.301,291.594 644.467,291.261 642.5,291.5C 642.5,290.167 642.5,288.833 642.5,287.5C 638.142,285.415 633.809,283.748 629.5,282.5C 626.576,283.341 623.743,283.674 621,283.5C 620.426,281.508 619.259,280.008 617.5,279C 608.964,276.532 600.297,274.699 591.5,273.5C 591.5,272.5 591.5,271.5 591.5,270.5C 585.439,270.21 579.439,270.543 573.5,271.5C 572.692,271.192 572.025,270.692 571.5,270C 567.5,269.667 563.5,269.333 559.5,269C 546.145,268.946 532.811,268.78 519.5,268.5C 514.136,268.671 508.802,269.171 503.5,270C 502.975,270.692 502.308,271.192 501.5,271.5C 496.859,271.375 492.192,271.042 487.5,270.5C 486.833,270.667 486.167,270.833 485.5,271C 487.107,272.049 487.773,273.549 487.5,275.5C 482.496,275.889 477.496,276.389 472.5,277C 469.991,280.21 467.158,283.043 464,285.5C 463.316,283.521 463.816,281.854 465.5,280.5C 462.167,279.167 458.833,279.167 455.5,280.5C 449.05,283.889 442.383,287.056 435.5,290C 430.517,290.411 425.85,291.744 421.5,294C 419.893,295.049 419.227,296.549 419.5,298.5C 415.109,300.618 410.442,302.451 405.5,304C 400.632,306.596 395.965,309.43 391.5,312.5C 388.686,314.07 385.686,315.403 382.5,316.5C 411.647,294.931 443.98,279.764 479.5,271C 539.11,257.198 596.11,263.698 650.5,290.5 Z"/></g>
<g><path style="opacity:1" fill="#c4e8f4" d="M 650.5,290.5 C 673.748,302.412 693.748,318.412 710.5,338.5C 713.89,342.558 716.89,346.891 719.5,351.5C 719.565,351.938 719.399,352.272 719,352.5C 638.527,282.602 547.027,263.435 444.5,295C 426.841,300.942 409.174,306.775 391.5,312.5C 395.965,309.43 400.632,306.596 405.5,304C 410.442,302.451 415.109,300.618 419.5,298.5C 419.227,296.549 419.893,295.049 421.5,294C 425.85,291.744 430.517,290.411 435.5,290C 442.383,287.056 449.05,283.889 455.5,280.5C 458.833,279.167 462.167,279.167 465.5,280.5C 463.816,281.854 463.316,283.521 464,285.5C 467.158,283.043 469.991,280.21 472.5,277C 477.496,276.389 482.496,275.889 487.5,275.5C 487.773,273.549 487.107,272.049 485.5,271C 486.167,270.833 486.833,270.667 487.5,270.5C 492.192,271.042 496.859,271.375 501.5,271.5C 502.308,271.192 502.975,270.692 503.5,270C 508.802,269.171 514.136,268.671 519.5,268.5C 532.811,268.78 546.145,268.946 559.5,269C 563.5,269.333 567.5,269.667 571.5,270C 572.025,270.692 572.692,271.192 573.5,271.5C 579.439,270.543 585.439,270.21 591.5,270.5C 591.5,271.5 591.5,272.5 591.5,273.5C 600.297,274.699 608.964,276.532 617.5,279C 619.259,280.008 620.426,281.508 621,283.5C 623.743,283.674 626.576,283.341 629.5,282.5C 633.809,283.748 638.142,285.415 642.5,287.5C 642.5,288.833 642.5,290.167 642.5,291.5C 644.467,291.261 646.301,291.594 648,292.5C 648.708,291.619 649.542,290.953 650.5,290.5 Z"/></g>
<g><path style="opacity:1" fill="#306b97" d="M 392.5,286.5 C 387.955,289.266 383.622,292.266 379.5,295.5C 363.7,305.621 349.033,317.288 335.5,330.5C 331.993,329.345 329.826,330.679 329,334.5C 322.077,340.469 315.91,347.136 310.5,354.5C 309.311,355.429 307.978,355.762 306.5,355.5C 307.512,344.852 307.679,334.186 307,323.5C 303.474,310.45 297.808,298.45 290,287.5C 287.962,284.621 288.129,281.954 290.5,279.5C 289.754,278.264 289.421,276.93 289.5,275.5C 291.5,275.167 293.5,274.833 295.5,274.5C 295.64,276.124 294.973,277.29 293.5,278C 294.634,279.016 294.301,279.683 292.5,280C 295.462,280.09 297.796,278.757 299.5,276C 299.167,275.667 298.833,275.333 298.5,275C 300.604,274.209 301.937,272.709 302.5,270.5C 303.772,271.046 305.106,271.379 306.5,271.5C 318.687,268.218 331.021,267.718 343.5,270C 350.843,271.675 358.177,273.341 365.5,275C 367.314,277.481 367.98,280.315 367.5,283.5C 370.884,283.34 374.217,283.673 377.5,284.5C 378.26,283.511 379.427,282.845 381,282.5C 384.88,284.039 388.713,285.373 392.5,286.5 Z"/></g>
<g><path style="opacity:1" fill="#2f6485" d="M 393.5,285.5 C 393.5,286.167 393.167,286.5 392.5,286.5C 388.713,285.373 384.88,284.039 381,282.5C 379.427,282.845 378.26,283.511 377.5,284.5C 374.217,283.673 370.884,283.34 367.5,283.5C 367.98,280.315 367.314,277.481 365.5,275C 358.177,273.341 350.843,271.675 343.5,270C 331.021,267.718 318.687,268.218 306.5,271.5C 305.106,271.379 303.772,271.046 302.5,270.5C 301.937,272.709 300.604,274.209 298.5,275C 298.833,275.333 299.167,275.667 299.5,276C 297.796,278.757 295.462,280.09 292.5,280C 294.301,279.683 294.634,279.016 293.5,278C 294.973,277.29 295.64,276.124 295.5,274.5C 293.5,274.833 291.5,275.167 289.5,275.5C 288.508,275.672 287.842,275.338 287.5,274.5C 290.902,272.528 294.569,271.028 298.5,270C 332.103,263.756 363.77,268.923 393.5,285.5 Z"/></g>
<g><path style="opacity:1" fill="#264967" d="M 202.5,269.5 C 195.084,280.661 187.418,291.661 179.5,302.5C 185.938,290.618 193.604,279.618 202.5,269.5 Z"/></g>
<g><path style="opacity:1" fill="#64acd5" d="M 719.5,351.5 C 720.674,352.514 721.34,353.847 721.5,355.5C 729.462,375.466 731.628,396.133 728,417.5C 724.976,427.389 718.809,434.556 709.5,439C 691.02,444.163 672.354,448.497 653.5,452C 631.736,457.941 614.569,470.108 602,488.5C 600.589,490.65 599.755,492.984 599.5,495.5C 594.416,499.474 589.582,503.808 585,508.5C 584.472,509.816 584.972,510.483 586.5,510.5C 586.56,511.043 586.893,511.376 587.5,511.5C 617.364,501.201 648.031,494.368 679.5,491C 706.369,488.63 732.535,491.796 758,500.5C 758.765,500.43 759.265,500.097 759.5,499.5C 760.5,499.833 761.167,500.5 761.5,501.5C 762.035,516.597 756.035,528.43 743.5,537C 719.838,551.219 694.171,559.219 666.5,561C 628.541,563.13 591.541,558.297 555.5,546.5C 552.851,544.86 550.184,543.193 547.5,541.5C 551.442,539.062 554.942,536.062 558,532.5C 558.49,531.207 558.657,529.873 558.5,528.5C 559.043,528.44 559.376,528.107 559.5,527.5C 553.585,519.625 545.585,515.958 535.5,516.5C 524.45,517.763 513.783,520.596 503.5,525C 500.854,525.497 498.187,525.664 495.5,525.5C 494.432,524.566 493.099,524.232 491.5,524.5C 491.227,522.549 491.893,521.049 493.5,520C 493.167,519.667 492.833,519.333 492.5,519C 493.737,518.768 494.737,518.268 495.5,517.5C 515.269,515.232 526.769,504.232 530,484.5C 533.887,464.49 528.054,447.99 512.5,435C 494.635,424.591 478.802,427.091 465,442.5C 455.098,457.769 452.931,474.103 458.5,491.5C 460.619,507.098 468.619,518.431 482.5,525.5C 429.283,527.181 389.783,551.181 364,597.5C 361.195,604.085 358.695,610.752 356.5,617.5C 341.317,612.604 326.65,606.438 312.5,599C 304.644,591.795 299.477,582.962 297,572.5C 285.513,502.452 300.18,438.452 341,380.5C 353.342,363.483 367.176,347.649 382.5,333C 381.833,332.333 381.167,332.333 380.5,333C 375.294,337.711 369.961,342.211 364.5,346.5C 363.188,345.855 362.188,344.855 361.5,343.5C 362.709,341.585 364.042,339.752 365.5,338C 364.707,335.085 366.04,333.418 369.5,333C 368.062,332.781 366.729,332.281 365.5,331.5C 368.627,329.901 371.96,328.734 375.5,328C 374.376,327.751 373.376,327.251 372.5,326.5C 374.713,324.226 377.379,322.726 380.5,322C 383.118,320.639 383.785,318.806 382.5,316.5C 385.686,315.403 388.686,314.07 391.5,312.5C 409.174,306.775 426.841,300.942 444.5,295C 547.027,263.435 638.527,282.602 719,352.5C 719.399,352.272 719.565,351.938 719.5,351.5 Z"/></g>
<g><path style="opacity:1" fill="#040d19" d="M 287.5,243.5 C 286.613,248.055 283.946,251.055 279.5,252.5C 281.108,253.318 282.775,253.985 284.5,254.5C 288.153,253.236 291.82,253.236 295.5,254.5C 292.255,255.123 289.755,256.79 288,259.5C 287.667,258.5 287.333,257.5 287,256.5C 284.863,258.321 284.03,260.654 284.5,263.5C 282.833,263.5 281.167,263.5 279.5,263.5C 279.334,268.179 279.501,272.845 280,277.5C 281.635,279.243 281.802,281.077 280.5,283C 281.5,284.5 282.5,286 283.5,287.5C 283.619,283.952 283.785,280.285 284,276.5C 284.377,275.058 285.21,274.058 286.5,273.5C 286.5,273.833 286.5,274.167 286.5,274.5C 286.335,277.85 286.502,281.183 287,284.5C 291.92,292.672 296.587,301.005 301,309.5C 308.803,329.961 307.969,349.961 298.5,369.5C 299.274,370.711 300.107,370.711 301,369.5C 311.308,355.364 322.808,342.364 335.5,330.5C 349.033,317.288 363.7,305.621 379.5,295.5C 380.091,296.151 380.757,296.818 381.5,297.5C 379.577,298.308 377.577,298.808 375.5,299C 375.833,299.333 376.167,299.667 376.5,300C 373.706,301.755 372.04,304.255 371.5,307.5C 369.61,307.297 368.11,307.963 367,309.5C 365.951,308.483 364.784,308.316 363.5,309C 360.736,310.451 358.736,312.617 357.5,315.5C 359.245,317.782 360.579,319.782 361.5,321.5C 362.833,320.833 364.167,320.167 365.5,319.5C 366.833,320.833 368.167,320.833 369.5,319.5C 370.167,316.833 370.833,314.167 371.5,311.5C 372.204,314.995 373.204,318.328 374.5,321.5C 338.859,347.469 309.526,379.135 286.5,416.5C 266.173,448.513 251.839,483.18 243.5,520.5C 242.976,522.306 242.309,523.972 241.5,525.5C 241.228,521.098 241.561,516.765 242.5,512.5C 240.383,507.002 239.05,501.335 238.5,495.5C 237.167,495.5 235.833,495.5 234.5,495.5C 234.5,498.167 234.5,500.833 234.5,503.5C 232.459,503.146 230.626,503.146 229,503.5C 227.36,508.365 226.36,513.365 226,518.5C 225.329,519.252 224.496,519.586 223.5,519.5C 223.5,517.833 223.5,516.167 223.5,514.5C 227.727,497.924 232.727,481.59 238.5,465.5C 245.471,449.391 253.137,433.557 261.5,418C 259.648,413.31 259.148,408.477 260,403.5C 267.512,389.81 274.512,375.81 281,361.5C 286.442,346.907 286.775,332.24 282,317.5C 277.667,309.5 273.333,301.5 269,293.5C 263.185,279.592 264.685,266.592 273.5,254.5C 277.593,250.071 282.259,246.404 287.5,243.5 Z"/></g>
<g><path style="opacity:1" fill="#274b6a" d="M 179.5,302.5 C 172.813,314.545 166.147,326.545 159.5,338.5C 164.629,325.568 171.296,313.568 179.5,302.5 Z"/></g>
<g><path style="opacity:1" fill="#3577ad" d="M 767.5,655.5 C 754.807,645.822 741.474,637.155 727.5,629.5C 746.526,620.972 761.693,607.972 773,590.5C 773.542,587.708 774.376,585.042 775.5,582.5C 777.694,580.779 778.861,578.445 779,575.5C 779.495,568.795 779.495,562.128 779,555.5C 791.669,543.469 796.336,528.802 793,511.5C 790.538,506.248 788.371,500.915 786.5,495.5C 785.5,495.5 784.5,495.5 783.5,495.5C 783.5,493.167 783.5,490.833 783.5,488.5C 782.178,488.33 781.011,488.663 780,489.5C 776.635,485.636 772.802,482.303 768.5,479.5C 765.438,474.462 764.771,469.129 766.5,463.5C 767.833,463.5 769.167,463.5 770.5,463.5C 770.38,459.958 770.714,456.458 771.5,453C 770.715,440.522 770.215,428.022 770,415.5C 770.042,411.631 768.876,408.297 766.5,405.5C 767.022,404.393 767.355,403.226 767.5,402C 766.766,395.524 766.266,389.024 766,382.5C 765.667,384.5 765.333,386.5 765,388.5C 763.082,384.663 762.582,380.663 763.5,376.5C 764.689,375.571 766.022,375.238 767.5,375.5C 767.5,374.5 767.5,373.5 767.5,372.5C 763.869,372.968 760.535,372.301 757.5,370.5C 755.522,366.179 753.522,361.846 751.5,357.5C 751.312,355.897 751.812,354.563 753,353.5C 754.11,355.037 755.61,355.703 757.5,355.5C 757.884,353.071 758.551,350.737 759.5,348.5C 762.167,348.5 764.833,348.5 767.5,348.5C 767.5,346.833 767.5,345.167 767.5,343.5C 775.5,343.5 783.5,343.5 791.5,343.5C 791.5,347.167 791.5,350.833 791.5,354.5C 788.833,354.5 786.167,354.5 783.5,354.5C 783.5,358.833 783.5,363.167 783.5,367.5C 791.5,367.5 799.5,367.5 807.5,367.5C 807.5,362.167 807.5,356.833 807.5,351.5C 804.833,351.5 802.167,351.5 799.5,351.5C 799.5,350.5 799.5,349.5 799.5,348.5C 802.167,348.5 804.833,348.5 807.5,348.5C 807.5,344.167 807.5,339.833 807.5,335.5C 812.833,335.5 818.167,335.5 823.5,335.5C 823.5,338.167 823.5,340.833 823.5,343.5C 820.833,343.5 818.167,343.5 815.5,343.5C 815.5,348.833 815.5,354.167 815.5,359.5C 820.833,359.5 826.167,359.5 831.5,359.5C 831.5,358.5 831.5,357.5 831.5,356.5C 836.833,356.5 842.167,356.5 847.5,356.5C 847.5,357.5 847.5,358.5 847.5,359.5C 848.5,359.5 849.5,359.5 850.5,359.5C 850.5,362.167 850.5,364.833 850.5,367.5C 849.5,367.5 848.5,367.5 847.5,367.5C 847.5,370.167 847.5,372.833 847.5,375.5C 845.833,375.5 844.167,375.5 842.5,375.5C 842.5,378.167 842.5,380.833 842.5,383.5C 844.167,383.5 845.833,383.5 847.5,383.5C 847.5,386.167 847.5,388.833 847.5,391.5C 848.5,391.5 849.5,391.5 850.5,391.5C 850.5,394.167 850.5,396.833 850.5,399.5C 852.167,399.5 853.833,399.5 855.5,399.5C 855.5,402.167 855.5,404.833 855.5,407.5C 854.5,407.5 853.5,407.5 852.5,407.5C 852.5,410.167 852.5,412.833 852.5,415.5C 856.167,415.5 859.833,415.5 863.5,415.5C 863.5,418.167 863.5,420.833 863.5,423.5C 858.167,423.5 852.833,423.5 847.5,423.5C 847.5,418.167 847.5,412.833 847.5,407.5C 842.167,407.5 836.833,407.5 831.5,407.5C 831.5,410.167 831.5,412.833 831.5,415.5C 828.833,415.5 826.167,415.5 823.5,415.5C 823.5,418.167 823.5,420.833 823.5,423.5C 818.167,423.5 812.833,423.5 807.5,423.5C 807.5,426.167 807.5,428.833 807.5,431.5C 810.167,431.5 812.833,431.5 815.5,431.5C 815.5,436.833 815.5,442.167 815.5,447.5C 823.5,447.5 831.5,447.5 839.5,447.5C 839.5,442.167 839.5,436.833 839.5,431.5C 844.833,431.5 850.167,431.5 855.5,431.5C 855.5,434.167 855.5,436.833 855.5,439.5C 858.167,439.5 860.833,439.5 863.5,439.5C 863.5,442.167 863.5,444.833 863.5,447.5C 866.167,447.5 868.833,447.5 871.5,447.5C 871.5,444.833 871.5,442.167 871.5,439.5C 877.833,439.5 884.167,439.5 890.5,439.5C 890.5,447.5 890.5,455.5 890.5,463.5C 884.167,463.5 877.833,463.5 871.5,463.5C 871.5,460.833 871.5,458.167 871.5,455.5C 868.833,455.5 866.167,455.5 863.5,455.5C 863.5,458.167 863.5,460.833 863.5,463.5C 860.833,463.5 858.167,463.5 855.5,463.5C 855.5,468.833 855.5,474.167 855.5,479.5C 852.833,479.5 850.167,479.5 847.5,479.5C 847.5,480.5 847.5,481.5 847.5,482.5C 850.167,482.5 852.833,482.5 855.5,482.5C 855.5,484.167 855.5,485.833 855.5,487.5C 853.833,487.5 852.167,487.5 850.5,487.5C 850.5,490.167 850.5,492.833 850.5,495.5C 844.167,495.5 837.833,495.5 831.5,495.5C 831.5,490.167 831.5,484.833 831.5,479.5C 828.833,479.5 826.167,479.5 823.5,479.5C 823.5,482.167 823.5,484.833 823.5,487.5C 820.833,487.5 818.167,487.5 815.5,487.5C 815.5,490.167 815.5,492.833 815.5,495.5C 818.167,495.5 820.833,495.5 823.5,495.5C 823.5,500.833 823.5,506.167 823.5,511.5C 834.167,511.5 844.833,511.5 855.5,511.5C 855.5,514.167 855.5,516.833 855.5,519.5C 851.833,519.5 848.167,519.5 844.5,519.5C 844.5,524.833 844.5,530.167 844.5,535.5C 846.5,535.5 848.5,535.5 850.5,535.5C 850.5,538.167 850.5,540.833 850.5,543.5C 852.167,543.5 853.833,543.5 855.5,543.5C 855.5,546.167 855.5,548.833 855.5,551.5C 852.833,551.5 850.167,551.5 847.5,551.5C 847.5,556.833 847.5,562.167 847.5,567.5C 852.833,567.5 858.167,567.5 863.5,567.5C 863.5,564.833 863.5,562.167 863.5,559.5C 861.833,559.5 860.167,559.5 858.5,559.5C 858.5,556.833 858.5,554.167 858.5,551.5C 865.5,551.5 872.5,551.5 879.5,551.5C 880.677,554.038 882.344,556.371 884.5,558.5C 882.955,559.452 881.288,559.785 879.5,559.5C 879.5,564.833 879.5,570.167 879.5,575.5C 876.833,575.5 874.167,575.5 871.5,575.5C 871.5,578.167 871.5,580.833 871.5,583.5C 868.833,583.5 866.167,583.5 863.5,583.5C 863.5,588.833 863.5,594.167 863.5,599.5C 855.5,599.5 847.5,599.5 839.5,599.5C 839.5,591.5 839.5,583.5 839.5,575.5C 836.833,575.5 834.167,575.5 831.5,575.5C 831.5,576.5 831.5,577.5 831.5,578.5C 828.833,578.5 826.167,578.5 823.5,578.5C 823.5,580.167 823.5,581.833 823.5,583.5C 820.833,583.5 818.167,583.5 815.5,583.5C 815.5,587.833 815.5,592.167 815.5,596.5C 810.167,596.5 804.833,596.5 799.5,596.5C 799.5,601.167 799.5,605.833 799.5,610.5C 802.167,610.5 804.833,610.5 807.5,610.5C 807.5,609.5 807.5,608.5 807.5,607.5C 810.167,607.5 812.833,607.5 815.5,607.5C 815.5,604.833 815.5,602.167 815.5,599.5C 818.167,599.5 820.833,599.5 823.5,599.5C 823.5,602.167 823.5,604.833 823.5,607.5C 826.167,607.5 828.833,607.5 831.5,607.5C 831.5,610.167 831.5,612.833 831.5,615.5C 834.167,615.5 836.833,615.5 839.5,615.5C 839.5,618.167 839.5,620.833 839.5,623.5C 842.167,623.5 844.833,623.5 847.5,623.5C 847.5,626.167 847.5,628.833 847.5,631.5C 842.167,631.5 836.833,631.5 831.5,631.5C 831.5,636.833 831.5,642.167 831.5,647.5C 830.5,647.5 829.5,647.5 828.5,647.5C 828.5,650.167 828.5,652.833 828.5,655.5C 826.833,655.5 825.167,655.5 823.5,655.5C 823.5,658.167 823.5,660.833 823.5,663.5C 815.5,663.5 807.5,663.5 799.5,663.5C 799.5,660.833 799.5,658.167 799.5,655.5C 796.833,655.5 794.167,655.5 791.5,655.5C 791.5,652.833 791.5,650.167 791.5,647.5C 784.5,647.5 777.5,647.5 770.5,647.5C 770.421,648.93 770.754,650.264 771.5,651.5C 770.726,652.711 769.893,652.711 769,651.5C 767.851,648.607 767.351,645.607 767.5,642.5C 766.5,642.5 765.5,642.5 764.5,642.5C 764.5,641.5 764.5,640.5 764.5,639.5C 762.473,639.338 760.473,639.505 758.5,640C 759.38,641.356 759.714,642.856 759.5,644.5C 760.5,644.5 761.5,644.5 762.5,644.5C 762.714,646.144 762.38,647.644 761.5,649C 764.294,650.535 766.294,652.702 767.5,655.5 Z"/></g>
<g><path style="opacity:1" fill="#4b6e8f" d="M 286.5,274.5 C 286.833,274.5 287.167,274.5 287.5,274.5C 287.842,275.338 288.508,275.672 289.5,275.5C 289.421,276.93 289.754,278.264 290.5,279.5C 288.129,281.954 287.962,284.621 290,287.5C 297.808,298.45 303.474,310.45 307,323.5C 307.679,334.186 307.512,344.852 306.5,355.5C 307.978,355.762 309.311,355.429 310.5,354.5C 315.91,347.136 322.077,340.469 329,334.5C 329.826,330.679 331.993,329.345 335.5,330.5C 322.808,342.364 311.308,355.364 301,369.5C 300.107,370.711 299.274,370.711 298.5,369.5C 307.969,349.961 308.803,329.961 301,309.5C 296.587,301.005 291.92,292.672 287,284.5C 286.502,281.183 286.335,277.85 286.5,274.5 Z"/></g>
<g><path style="opacity:1" fill="#315471" d="M 870.5,351.5 C 877.718,365.475 883.385,380.141 887.5,395.5C 887.631,396.239 887.464,396.906 887,397.5C 881.769,381.967 876.269,366.633 870.5,351.5 Z"/></g>
<g><path style="opacity:1" fill="#315674" d="M 146.5,366.5 C 147.043,366.56 147.376,366.893 147.5,367.5C 141.428,383.215 136.262,399.215 132,415.5C 131.536,414.906 131.369,414.239 131.5,413.5C 135.101,397.365 140.101,381.698 146.5,366.5 Z"/></g>
<g><path style="opacity:1" fill="#bfe9f5" d="M 504.5,404.5 C 513.933,408.101 521.433,414.101 527,422.5C 528.187,424.044 528.52,425.711 528,427.5C 504.595,412.529 481.428,412.862 458.5,428.5C 457.535,427.279 457.702,425.946 459,424.5C 469.84,408.266 485.007,401.6 504.5,404.5 Z"/></g>
<g><path style="opacity:1" fill="#316b96" d="M 721.5,355.5 C 722.794,356.29 723.961,357.29 725,358.5C 746.691,393.366 752.525,430.699 742.5,470.5C 690.972,457.073 643.306,465.407 599.5,495.5C 599.755,492.984 600.589,490.65 602,488.5C 614.569,470.108 631.736,457.941 653.5,452C 672.354,448.497 691.02,444.163 709.5,439C 718.809,434.556 724.976,427.389 728,417.5C 731.628,396.133 729.462,375.466 721.5,355.5 Z"/></g>
<g><path style="opacity:1" fill="#69a8c4" d="M 504.5,404.5 C 505.251,403.427 506.251,403.26 507.5,404C 511.778,406.955 516.445,408.955 521.5,410C 522.45,412.91 524.45,414.077 527.5,413.5C 527.185,415.226 527.019,416.893 527,418.5C 528.789,420.865 530.956,422.532 533.5,423.5C 533.66,425.199 533.494,426.866 533,428.5C 531.602,429.051 530.268,429.384 529,429.5C 514.051,419.088 497.551,415.922 479.5,420C 472.439,422.364 465.772,425.531 459.5,429.5C 458.893,429.376 458.56,429.043 458.5,428.5C 481.428,412.862 504.595,412.529 528,427.5C 528.52,425.711 528.187,424.044 527,422.5C 521.433,414.101 513.933,408.101 504.5,404.5 Z"/></g>
<g><path style="opacity:1" fill="#071125" d="M 762.5,393.5 C 769.042,420.828 769.042,448.328 762.5,476C 762.585,477.107 762.919,478.107 763.5,479C 768.094,481.118 772.094,483.952 775.5,487.5C 773.076,486.97 770.743,486.136 768.5,485C 768.833,484.667 769.167,484.333 769.5,484C 767.5,483.667 765.5,483.333 763.5,483C 761.997,479.675 760.997,476.175 760.5,472.5C 761.311,471.784 761.978,470.95 762.5,470C 762.108,468.989 761.441,468.489 760.5,468.5C 763.315,461.717 763.982,454.717 762.5,447.5C 761.772,450.212 760.939,452.879 760,455.5C 759.333,451.5 759.333,447.5 760,443.5C 760.667,447.5 761.333,447.5 762,443.5C 762.333,444.167 762.667,444.833 763,445.5C 763.939,431.506 764.273,417.506 764,403.5C 763.64,401.579 762.806,399.912 761.5,398.5C 762.309,396.929 762.643,395.262 762.5,393.5 Z"/></g>
<g><path style="opacity:1" fill="#4678a6" d="M 734.5,332.5 C 735.643,332.908 736.643,333.575 737.5,334.5C 742.228,342.206 746.895,349.873 751.5,357.5C 753.522,361.846 755.522,366.179 757.5,370.5C 760.535,372.301 763.869,372.968 767.5,372.5C 767.5,373.5 767.5,374.5 767.5,375.5C 766.022,375.238 764.689,375.571 763.5,376.5C 762.582,380.663 763.082,384.663 765,388.5C 765.333,386.5 765.667,384.5 766,382.5C 766.266,389.024 766.766,395.524 767.5,402C 767.355,403.226 767.022,404.393 766.5,405.5C 768.876,408.297 770.042,411.631 770,415.5C 770.215,428.022 770.715,440.522 771.5,453C 770.714,456.458 770.38,459.958 770.5,463.5C 769.167,463.5 767.833,463.5 766.5,463.5C 764.771,469.129 765.438,474.462 768.5,479.5C 772.802,482.303 776.635,485.636 780,489.5C 781.011,488.663 782.178,488.33 783.5,488.5C 783.5,490.833 783.5,493.167 783.5,495.5C 781.194,492.527 778.527,489.86 775.5,487.5C 772.094,483.952 768.094,481.118 763.5,479C 762.919,478.107 762.585,477.107 762.5,476C 769.042,448.328 769.042,420.828 762.5,393.5C 760.109,382.827 756.609,372.493 752,362.5C 746.396,352.281 740.562,342.281 734.5,332.5 Z"/></g>
<g><path style="opacity:1" fill="#365c7d" d="M 888.5,398.5 C 904.283,449.317 908.617,500.983 901.5,553.5C 906.5,501.656 901.833,450.822 887.5,401C 887.528,399.93 887.861,399.097 888.5,398.5 Z"/></g>
<g><path style="opacity:1" fill="#2f5776" d="M 125.5,438.5 C 126.152,439.449 126.486,440.615 126.5,442C 124.522,457.306 122.522,472.473 120.5,487.5C 120.546,470.99 122.213,454.657 125.5,438.5 Z"/></g>
<g><path style="opacity:1" fill="#030d18" d="M 495.5,517.5 C 477.32,516.928 464.987,508.261 458.5,491.5C 452.931,474.103 455.098,457.769 465,442.5C 478.802,427.091 494.635,424.591 512.5,435C 528.054,447.99 533.887,464.49 530,484.5C 526.769,504.232 515.269,515.232 495.5,517.5 Z"/></g>
<g><path style="opacity:1" fill="#f4f5f5" d="M 487.5,445.5 C 495.43,444.88 500.93,448.213 504,455.5C 505.195,469.465 499.028,474.965 485.5,472C 477.713,465.611 476.547,458.111 482,449.5C 483.812,448.023 485.645,446.69 487.5,445.5 Z"/></g>
<g><path style="opacity:1" fill="#8bb5d2" d="M 286.5,416.5 C 287.043,416.56 287.376,416.893 287.5,417.5C 267.124,450.343 253.291,484.343 246,519.5C 245.667,518.833 245.333,518.167 245,517.5C 244.768,518.737 244.268,519.737 243.5,520.5C 251.839,483.18 266.173,448.513 286.5,416.5 Z"/></g>
<g><path style="opacity:1" fill="#2f6b97" d="M 356.5,617.5 C 356.5,617.833 356.5,618.167 356.5,618.5C 355.833,620.5 355.167,622.5 354.5,624.5C 327.46,620.341 302.46,625.841 279.5,641C 270.744,646.265 262.744,652.432 255.5,659.5C 247.941,665.374 241.107,672.041 235,679.5C 231.516,660.173 230.016,640.673 230.5,621C 230.667,612.167 230.833,603.333 231,594.5C 231.183,591.635 231.683,588.969 232.5,586.5C 232.34,588.199 232.506,589.866 233,591.5C 247.663,493.549 291.496,411.882 364.5,346.5C 369.961,342.211 375.294,337.711 380.5,333C 381.167,332.333 381.833,332.333 382.5,333C 367.176,347.649 353.342,363.483 341,380.5C 300.18,438.452 285.513,502.452 297,572.5C 299.477,582.962 304.644,591.795 312.5,599C 326.65,606.438 341.317,612.604 356.5,617.5 Z"/></g>
<g><path style="opacity:1" fill="#72b4db" d="M 382.5,316.5 C 383.785,318.806 383.118,320.639 380.5,322C 377.379,322.726 374.713,324.226 372.5,326.5C 373.376,327.251 374.376,327.751 375.5,328C 371.96,328.734 368.627,329.901 365.5,331.5C 366.729,332.281 368.062,332.781 369.5,333C 366.04,333.418 364.707,335.085 365.5,338C 364.042,339.752 362.709,341.585 361.5,343.5C 362.188,344.855 363.188,345.855 364.5,346.5C 291.496,411.882 247.663,493.549 233,591.5C 232.506,589.866 232.34,588.199 232.5,586.5C 234.093,565.946 237.093,545.613 241.5,525.5C 242.309,523.972 242.976,522.306 243.5,520.5C 244.268,519.737 244.768,518.737 245,517.5C 245.333,518.167 245.667,518.833 246,519.5C 253.291,484.343 267.124,450.343 287.5,417.5C 287.376,416.893 287.043,416.56 286.5,416.5C 309.526,379.135 338.859,347.469 374.5,321.5C 376.858,319.322 379.525,317.655 382.5,316.5 Z"/></g>
<g><path style="opacity:1" fill="#070e1a" d="M 425.5,474.5 C 434.064,473.215 439.23,476.881 441,485.5C 442.589,492.808 440.422,498.641 434.5,503C 428.146,504.004 423.646,501.504 421,495.5C 417.803,487.242 419.303,480.242 425.5,474.5 Z"/></g>
<g><path style="opacity:1" fill="#c7e8f2" d="M 759.5,499.5 C 759.265,500.097 758.765,500.43 758,500.5C 732.535,491.796 706.369,488.63 679.5,491C 648.031,494.368 617.364,501.201 587.5,511.5C 586.893,511.376 586.56,511.043 586.5,510.5C 617.119,495.128 649.452,485.294 683.5,481C 704.669,478.696 725.002,481.696 744.5,490C 749.903,492.692 754.903,495.858 759.5,499.5 Z"/></g>
<g><path style="opacity:1" fill="#030c18" d="M 241.5,525.5 C 237.093,545.613 234.093,565.946 232.5,586.5C 231.683,588.969 231.183,591.635 231,594.5C 230.833,603.333 230.667,612.167 230.5,621C 230.016,640.673 231.516,660.173 235,679.5C 241.107,672.041 247.941,665.374 255.5,659.5C 260.498,657.042 265.832,655.209 271.5,654C 270.376,653.751 269.376,653.251 268.5,652.5C 270.297,651.305 271.297,649.638 271.5,647.5C 275.578,646.298 279.578,644.798 283.5,643C 284.337,641.989 284.67,640.822 284.5,639.5C 288.321,640.186 291.488,639.186 294,636.5C 298.525,635.972 302.025,633.806 304.5,630C 309.537,629.337 314.537,629.504 319.5,630.5C 319.5,631.5 319.5,632.5 319.5,633.5C 321.401,633.433 323.234,633.767 325,634.5C 328.398,633.045 331.898,632.045 335.5,631.5C 335.5,630.5 335.5,629.5 335.5,628.5C 340.353,627.453 345.186,627.453 350,628.5C 352.707,625.804 355.207,625.97 357.5,629C 356.584,629.278 355.918,629.778 355.5,630.5C 344.119,631.793 333.119,634.626 322.5,639C 290.008,654.486 262.508,676.319 240,704.5C 230.411,717.347 221.578,730.68 213.5,744.5C 199.816,766.883 191.482,791.217 188.5,817.5C 185.724,843.125 195.39,848.958 217.5,835C 243.912,815.799 273.246,803.133 305.5,797C 327.39,786.443 344.89,770.943 358,750.5C 376.127,724.325 384.794,695.325 384,663.5C 383.933,657.902 383.099,652.569 381.5,647.5C 381.538,642.284 380.538,637.284 378.5,632.5C 387.754,639 394.088,647.666 397.5,658.5C 402.584,692.584 396.417,724.584 379,754.5C 374.532,761.943 369.699,769.109 364.5,776C 368.911,813.499 379.578,848.999 396.5,882.5C 390.962,880.793 385.629,878.793 380.5,876.5C 374.713,863.313 369.213,849.979 364,836.5C 359.363,820.974 355.363,805.307 352,789.5C 339.574,801.921 325.074,811.088 308.5,817C 299.844,819.275 291.177,821.441 282.5,823.5C 272.57,826.979 262.903,831.146 253.5,836C 239.402,844.434 225.069,852.434 210.5,860C 189.586,865.461 175.753,857.961 169,837.5C 167.517,828.213 167.184,818.879 168,809.5C 172.529,784.028 181.029,760.028 193.5,737.5C 200.649,724.826 208.483,712.493 217,700.5C 216.707,695.182 216.207,689.849 215.5,684.5C 213.05,664.301 211.717,643.967 211.5,623.5C 212.597,608.514 213.43,593.514 214,578.5C 217.71,558.954 220.877,539.287 223.5,519.5C 224.496,519.586 225.329,519.252 226,518.5C 226.36,513.365 227.36,508.365 229,503.5C 230.626,503.146 232.459,503.146 234.5,503.5C 234.5,500.833 234.5,498.167 234.5,495.5C 235.833,495.5 237.167,495.5 238.5,495.5C 239.05,501.335 240.383,507.002 242.5,512.5C 241.561,516.765 241.228,521.098 241.5,525.5 Z"/></g>
<g><path style="opacity:1" fill="#346892" d="M 458.5,491.5 C 464.987,508.261 477.32,516.928 495.5,517.5C 494.737,518.268 493.737,518.768 492.5,519C 492.833,519.333 493.167,519.667 493.5,520C 491.893,521.049 491.227,522.549 491.5,524.5C 493.099,524.232 494.432,524.566 495.5,525.5C 491.167,525.5 486.833,525.5 482.5,525.5C 468.619,518.431 460.619,507.098 458.5,491.5 Z"/></g>
<g><path style="opacity:1" fill="#507ba7" d="M 238.5,465.5 C 232.727,481.59 227.727,497.924 223.5,514.5C 211.858,559.338 207.524,605.004 210.5,651.5C 210.706,660.537 209.706,660.537 207.5,651.5C 207.906,624.799 209.073,598.133 211,571.5C 213.525,552.768 216.358,534.102 219.5,515.5C 219.363,513.893 218.696,512.559 217.5,511.5C 216.252,514.506 216.252,517.506 217.5,520.5C 217,521.5 216.5,522.5 216,523.5C 215.333,518.833 215.333,514.167 216,509.5C 217.512,508.743 218.846,507.743 220,506.5C 220.617,505.551 220.451,504.718 219.5,504C 221.18,503.966 222.68,503.799 224,503.5C 226.798,497.103 228.798,490.436 230,483.5C 232.671,476.759 235.504,470.759 238.5,465.5 Z"/></g>
<g><path style="opacity:1" fill="#234e6e" d="M 119.5,495.5 C 120.538,519.392 122.204,543.392 124.5,567.5C 122.373,559.779 121.206,551.779 121,543.5C 119.834,527.521 119.334,511.521 119.5,495.5 Z"/></g>
<g><path style="opacity:1" fill="#bddeea" d="M 558.5,528.5 C 556.492,526.073 553.826,525.073 550.5,525.5C 535.717,528.049 524.05,535.382 515.5,547.5C 515.565,547.062 515.399,546.728 515,546.5C 513.904,550.272 511.404,551.939 507.5,551.5C 508.712,557.045 508.712,562.545 507.5,568C 508.5,569.667 509.833,571 511.5,572C 514.432,572.272 516.932,573.438 519,575.5C 519.936,573.292 521.602,571.958 524,571.5C 526.097,568.933 527.43,565.933 528,562.5C 530.491,558.003 534.324,555.67 539.5,555.5C 539.5,556.833 539.5,558.167 539.5,559.5C 540.873,559.343 542.207,559.51 543.5,560C 548.07,563.452 553.07,566.118 558.5,568C 560.5,569.333 562.167,571 563.5,573C 567.627,573.56 570.96,575.393 573.5,578.5C 573.611,579.117 573.944,579.617 574.5,580C 573.167,580.333 571.833,580.667 570.5,581C 571.9,582.438 573.567,583.271 575.5,583.5C 577.035,586.232 578.869,588.898 581,591.5C 583.089,593.503 585.589,594.67 588.5,595C 588.167,595.333 587.833,595.667 587.5,596C 589.68,596.419 591.846,596.252 594,595.5C 600.775,596.492 600.942,597.325 594.5,598C 595.056,598.383 595.389,598.883 595.5,599.5C 582.508,596.085 570.008,591.418 558,585.5C 558.335,588.255 559.335,590.922 561,593.5C 573.284,609.783 588.117,623.283 605.5,634C 602.446,636.194 599.112,637.861 595.5,639C 575.826,645.209 555.826,649.043 535.5,650.5C 506.457,651.244 478.624,645.911 452,634.5C 452.299,639.069 453.632,643.402 456,647.5C 466.539,662.373 479.872,674.04 496,682.5C 494.37,684.912 493.537,687.745 493.5,691C 493.594,694.357 494.427,697.523 496,700.5C 506.04,709.104 517.54,714.937 530.5,718C 543.991,721.233 557.658,722.233 571.5,721C 584.47,718.978 597.303,716.478 610,713.5C 618.877,714.084 621.877,718.751 619,727.5C 601.154,768.229 592.654,810.896 593.5,855.5C 593.653,867.176 593.986,878.843 594.5,890.5C 595.833,890.5 597.167,890.5 598.5,890.5C 547.189,901.131 495.522,902.298 443.5,894C 436.724,892.378 430.057,890.878 423.5,889.5C 424.239,889.631 424.906,889.464 425.5,889C 407.22,851.934 399.054,812.767 401,771.5C 403.111,756.724 405.777,742.058 409,727.5C 413.44,703.797 410.44,681.131 400,659.5C 399.329,658.748 398.496,658.414 397.5,658.5C 394.088,647.666 387.754,639 378.5,632.5C 372.16,626.327 364.827,621.66 356.5,618.5C 356.5,618.167 356.5,617.833 356.5,617.5C 358.695,610.752 361.195,604.085 364,597.5C 389.783,551.181 429.283,527.181 482.5,525.5C 486.833,525.5 491.167,525.5 495.5,525.5C 498.187,525.664 500.854,525.497 503.5,525C 513.783,520.596 524.45,517.763 535.5,516.5C 545.585,515.958 553.585,519.625 559.5,527.5C 559.376,528.107 559.043,528.44 558.5,528.5 Z"/></g>
<g><path style="opacity:1" fill="#587fa6" d="M 783.5,495.5 C 784.5,495.5 785.5,495.5 786.5,495.5C 788.371,500.915 790.538,506.248 793,511.5C 796.336,528.802 791.669,543.469 779,555.5C 779.495,562.128 779.495,568.795 779,575.5C 778.861,578.445 777.694,580.779 775.5,582.5C 778.779,574.109 779.112,565.609 776.5,557C 779.239,552.583 782.406,548.416 786,544.5C 795.254,527.639 794.421,511.305 783.5,495.5 Z"/></g>
<g><path style="opacity:1" fill="#316b96" d="M 761.5,501.5 C 772.97,510.419 775.47,521.419 769,534.5C 759.717,545.388 748.55,553.721 735.5,559.5C 727.337,561.999 719.337,564.665 711.5,567.5C 676.837,574.106 642.17,574.106 607.5,567.5C 588.807,563.818 571.473,556.818 555.5,546.5C 591.541,558.297 628.541,563.13 666.5,561C 694.171,559.219 719.838,551.219 743.5,537C 756.035,528.43 762.035,516.597 761.5,501.5 Z"/></g>
<g><path style="opacity:1" fill="#cce0e8" d="M 515.5,547.5 C 513.367,551.567 512.034,555.9 511.5,560.5C 511.559,564.515 512.893,568.015 515.5,571C 518.308,571.92 520.475,571.087 522,568.5C 525.923,562.076 530.423,556.076 535.5,550.5C 563.754,572.627 595.754,585.293 631.5,588.5C 629.801,588.34 628.134,588.506 626.5,589C 627.5,589.333 628.5,589.667 629.5,590C 628,590.5 626.5,591 625,591.5C 620.873,590.761 616.706,590.261 612.5,590C 601.911,586.971 591.577,583.471 581.5,579.5C 578.885,578.731 576.219,578.397 573.5,578.5C 570.96,575.393 567.627,573.56 563.5,573C 562.167,571 560.5,569.333 558.5,568C 553.07,566.118 548.07,563.452 543.5,560C 542.207,559.51 540.873,559.343 539.5,559.5C 539.5,558.167 539.5,556.833 539.5,555.5C 534.324,555.67 530.491,558.003 528,562.5C 527.43,565.933 526.097,568.933 524,571.5C 521.602,571.958 519.936,573.292 519,575.5C 516.932,573.438 514.432,572.272 511.5,572C 509.833,571 508.5,569.667 507.5,568C 508.712,562.545 508.712,557.045 507.5,551.5C 511.404,551.939 513.904,550.272 515,546.5C 515.399,546.728 515.565,547.062 515.5,547.5 Z"/></g>
<g><path style="opacity:1" fill="#050c16" d="M 558.5,528.5 C 558.657,529.873 558.49,531.207 558,532.5C 554.942,536.062 551.442,539.062 547.5,541.5C 550.184,543.193 552.851,544.86 555.5,546.5C 571.473,556.818 588.807,563.818 607.5,567.5C 607.461,568.583 607.127,569.583 606.5,570.5C 614.581,571.151 622.248,572.484 629.5,574.5C 630.833,574.167 632.167,573.833 633.5,573.5C 653.158,576.121 672.825,576.121 692.5,573.5C 694.246,573.971 695.913,574.638 697.5,575.5C 698.58,573.869 700.58,572.535 703.5,571.5C 706.086,570.52 708.753,570.187 711.5,570.5C 711.5,569.5 711.5,568.5 711.5,567.5C 719.337,564.665 727.337,561.999 735.5,559.5C 738.254,559.113 740.754,558.779 743,558.5C 743.892,561.453 743.392,564.119 741.5,566.5C 743.976,569.853 743.476,570.186 740,567.5C 739.5,568 739,568.5 738.5,569C 740.351,569.837 742.184,570.671 744,571.5C 745.188,570.437 745.688,569.103 745.5,567.5C 747.5,567.5 749.5,567.5 751.5,567.5C 751.5,566.167 751.5,564.833 751.5,563.5C 754.39,563.278 757.057,563.945 759.5,565.5C 761.24,563.326 762.24,563.993 762.5,567.5C 761.75,570.658 760.417,573.325 758.5,575.5C 759.068,572.412 759.068,569.412 758.5,566.5C 734.029,580.234 707.695,587.734 679.5,589C 663.486,589.7 647.486,589.533 631.5,588.5C 595.754,585.293 563.754,572.627 535.5,550.5C 530.423,556.076 525.923,562.076 522,568.5C 520.475,571.087 518.308,571.92 515.5,571C 512.893,568.015 511.559,564.515 511.5,560.5C 512.034,555.9 513.367,551.567 515.5,547.5C 524.05,535.382 535.717,528.049 550.5,525.5C 553.826,525.073 556.492,526.073 558.5,528.5 Z"/></g>
<g><path style="opacity:1" fill="#060e20" d="M 607.5,567.5 C 642.17,574.106 676.837,574.106 711.5,567.5C 711.5,568.5 711.5,569.5 711.5,570.5C 708.753,570.187 706.086,570.52 703.5,571.5C 700.58,572.535 698.58,573.869 697.5,575.5C 695.913,574.638 694.246,573.971 692.5,573.5C 672.825,576.121 653.158,576.121 633.5,573.5C 632.167,573.833 630.833,574.167 629.5,574.5C 622.248,572.484 614.581,571.151 606.5,570.5C 607.127,569.583 607.461,568.583 607.5,567.5 Z"/></g>
<g><path style="opacity:1" fill="#07142c" d="M 223.5,514.5 C 223.5,516.167 223.5,517.833 223.5,519.5C 220.877,539.287 217.71,558.954 214,578.5C 213.43,593.514 212.597,608.514 211.5,623.5C 211.717,643.967 213.05,664.301 215.5,684.5C 213.607,676.388 212.273,668.055 211.5,659.5C 211.806,656.615 211.473,653.948 210.5,651.5C 207.524,605.004 211.858,559.338 223.5,514.5 Z"/></g>
<g><path style="opacity:1" fill="#234a6d" d="M 901.5,553.5 C 897.872,582.805 891.372,611.472 882,639.5C 880.101,644.396 877.935,649.063 875.5,653.5C 887.347,620.909 896.014,587.575 901.5,553.5 Z"/></g>
<g><path style="opacity:1" fill="#c5e4ef" d="M 758.5,575.5 C 757.655,576.671 756.989,578.005 756.5,579.5C 755.448,579.351 754.448,579.517 753.5,580C 751.382,582.421 749.048,584.588 746.5,586.5C 728.377,597.263 708.711,603.763 687.5,606C 656.425,609.281 625.759,607.114 595.5,599.5C 595.389,598.883 595.056,598.383 594.5,598C 600.942,597.325 600.775,596.492 594,595.5C 591.846,596.252 589.68,596.419 587.5,596C 587.833,595.667 588.167,595.333 588.5,595C 585.589,594.67 583.089,593.503 581,591.5C 578.869,588.898 577.035,586.232 575.5,583.5C 573.567,583.271 571.9,582.438 570.5,581C 571.833,580.667 573.167,580.333 574.5,580C 573.944,579.617 573.611,579.117 573.5,578.5C 576.219,578.397 578.885,578.731 581.5,579.5C 591.577,583.471 601.911,586.971 612.5,590C 616.706,590.261 620.873,590.761 625,591.5C 626.5,591 628,590.5 629.5,590C 628.5,589.667 627.5,589.333 626.5,589C 628.134,588.506 629.801,588.34 631.5,588.5C 647.486,589.533 663.486,589.7 679.5,589C 707.695,587.734 734.029,580.234 758.5,566.5C 759.068,569.412 759.068,572.412 758.5,575.5 Z"/></g>
<g><path style="opacity:1" fill="#92b1c1" d="M 756.5,579.5 C 753.272,587.245 748.272,593.745 741.5,599C 725.419,610.702 707.419,617.368 687.5,619C 663.045,621.229 639.045,619.062 615.5,612.5C 616.097,611.861 616.93,611.528 618,611.5C 644.572,618.375 671.405,619.708 698.5,615.5C 711.727,613.762 723.727,609.095 734.5,601.5C 733.5,600.667 732.5,599.833 731.5,599C 734.167,598.333 734.167,597.667 731.5,597C 733,594.833 734.167,595 735,597.5C 735.333,597.167 735.667,596.833 736,596.5C 736.419,597.672 737.085,598.672 738,599.5C 739.529,598.271 740.696,596.771 741.5,595C 742.448,594.517 743.448,594.351 744.5,594.5C 745.219,591.927 746.219,589.427 747.5,587C 747.272,586.601 746.938,586.435 746.5,586.5C 749.048,584.588 751.382,582.421 753.5,580C 754.448,579.517 755.448,579.351 756.5,579.5 Z"/></g>
<g><path style="opacity:1" fill="#264c6b" d="M 143.5,640.5 C 135.186,619.587 129.186,597.921 125.5,575.5C 130.623,596.081 136.623,617.747 143.5,640.5 Z"/></g>
<g><path style="opacity:1" fill="#96b5c5" d="M 572.5,600.5 C 592.031,618.261 615.031,629.095 641.5,633C 652.753,634.863 664.086,635.863 675.5,636C 657.852,647.99 638.519,655.824 617.5,659.5C 633.159,655.655 648.159,649.822 662.5,642C 663.337,640.989 663.67,639.822 663.5,638.5C 644.951,636.661 626.285,632.161 607.5,625C 594.01,619.168 581.844,611.335 571,601.5C 570.395,599.365 570.895,599.031 572.5,600.5 Z"/></g>
<g><path style="opacity:1" fill="#060d1d" d="M 354.5,624.5 C 357.9,625.867 361.233,627.533 364.5,629.5C 363.675,630.386 362.675,630.719 361.5,630.5C 359.5,630.5 357.5,630.5 355.5,630.5C 355.918,629.778 356.584,629.278 357.5,629C 355.207,625.97 352.707,625.804 350,628.5C 345.186,627.453 340.353,627.453 335.5,628.5C 335.5,629.5 335.5,630.5 335.5,631.5C 331.898,632.045 328.398,633.045 325,634.5C 323.234,633.767 321.401,633.433 319.5,633.5C 319.5,632.5 319.5,631.5 319.5,630.5C 314.537,629.504 309.537,629.337 304.5,630C 302.025,633.806 298.525,635.972 294,636.5C 291.488,639.186 288.321,640.186 284.5,639.5C 284.67,640.822 284.337,641.989 283.5,643C 279.578,644.798 275.578,646.298 271.5,647.5C 271.297,649.638 270.297,651.305 268.5,652.5C 269.376,653.251 270.376,653.751 271.5,654C 265.832,655.209 260.498,657.042 255.5,659.5C 262.744,652.432 270.744,646.265 279.5,641C 302.46,625.841 327.46,620.341 354.5,624.5 Z"/></g>
<g><path style="opacity:1" fill="#7aacbe" d="M 595.5,599.5 C 625.759,607.114 656.425,609.281 687.5,606C 708.711,603.763 728.377,597.263 746.5,586.5C 746.938,586.435 747.272,586.601 747.5,587C 746.219,589.427 745.219,591.927 744.5,594.5C 743.448,594.351 742.448,594.517 741.5,595C 740.696,596.771 739.529,598.271 738,599.5C 737.085,598.672 736.419,597.672 736,596.5C 735.667,596.833 735.333,597.167 735,597.5C 734.167,595 733,594.833 731.5,597C 734.167,597.667 734.167,598.333 731.5,599C 732.5,599.833 733.5,600.667 734.5,601.5C 723.727,609.095 711.727,613.762 698.5,615.5C 671.405,619.708 644.572,618.375 618,611.5C 616.93,611.528 616.097,611.861 615.5,612.5C 601.273,609.48 587.44,605.147 574,599.5C 573.235,599.57 572.735,599.903 572.5,600.5C 570.895,599.031 570.395,599.365 571,601.5C 581.844,611.335 594.01,619.168 607.5,625C 626.285,632.161 644.951,636.661 663.5,638.5C 663.67,639.822 663.337,640.989 662.5,642C 648.159,649.822 633.159,655.655 617.5,659.5C 615.046,660.621 612.379,661.454 609.5,662C 600.859,663.219 592.192,664.219 583.5,665C 566.65,665.343 549.983,665.509 533.5,665.5C 532.833,665.5 532.5,665.167 532.5,664.5C 535.986,663.467 539.653,662.633 543.5,662C 539.789,661.825 536.122,661.325 532.5,660.5C 533,660.167 533.5,659.833 534,659.5C 542.127,661.152 550.127,660.819 558,658.5C 562.358,659.742 566.858,660.408 571.5,660.5C 579.856,659.744 588.19,659.744 596.5,660.5C 600.453,660.515 604.12,659.515 607.5,657.5C 606.307,655.616 604.641,655.116 602.5,656C 603.5,656.333 604.5,656.667 605.5,657C 604.833,657.167 604.167,657.333 603.5,657.5C 588.846,657.276 574.179,656.943 559.5,656.5C 562.107,655.682 564.774,655.182 567.5,655C 565.924,654.56 564.59,653.727 563.5,652.5C 562.707,652.931 561.873,653.265 561,653.5C 559.32,652.453 557.486,651.787 555.5,651.5C 539.848,652.604 524.182,652.771 508.5,652C 522.888,652.067 531.888,651.567 535.5,650.5C 555.826,649.043 575.826,645.209 595.5,639C 599.112,637.861 602.446,636.194 605.5,634C 588.117,623.283 573.284,609.783 561,593.5C 559.335,590.922 558.335,588.255 558,585.5C 570.008,591.418 582.508,596.085 595.5,599.5 Z"/></g>
<g><path style="opacity:1" fill="#2c506d" d="M 143.5,640.5 C 151.147,658.613 159.48,676.946 168.5,695.5C 158.055,678.181 149.722,659.847 143.5,640.5 Z"/></g>
<g><path style="opacity:1" fill="#74a8bc" d="M 535.5,650.5 C 531.888,651.567 522.888,652.067 508.5,652C 524.182,652.771 539.848,652.604 555.5,651.5C 557.486,651.787 559.32,652.453 561,653.5C 561.873,653.265 562.707,652.931 563.5,652.5C 564.59,653.727 565.924,654.56 567.5,655C 564.774,655.182 562.107,655.682 559.5,656.5C 574.179,656.943 588.846,657.276 603.5,657.5C 604.167,657.333 604.833,657.167 605.5,657C 604.5,656.667 603.5,656.333 602.5,656C 604.641,655.116 606.307,655.616 607.5,657.5C 604.12,659.515 600.453,660.515 596.5,660.5C 588.19,659.744 579.856,659.744 571.5,660.5C 566.858,660.408 562.358,659.742 558,658.5C 550.127,660.819 542.127,661.152 534,659.5C 533.5,659.833 533,660.167 532.5,660.5C 536.122,661.325 539.789,661.825 543.5,662C 539.653,662.633 535.986,663.467 532.5,664.5C 530.345,663.448 530.012,664.114 531.5,666.5C 534.279,667.646 536.946,668.979 539.5,670.5C 538.311,671.429 536.978,671.762 535.5,671.5C 535.215,673.288 535.548,674.955 536.5,676.5C 537.851,673.857 540.018,673.857 543,676.5C 543.561,675.978 544.228,675.645 545,675.5C 559.841,678.089 574.841,679.422 590,679.5C 600.228,679.045 610.395,679.045 620.5,679.5C 625.32,678.126 630.32,677.293 635.5,677C 639.226,676.364 642.726,675.197 646,673.5C 647.44,674.148 648.94,674.481 650.5,674.5C 649.874,670.625 651.541,668.791 655.5,669C 656.822,666.311 658.655,665.811 661,667.5C 662.365,667.156 663.532,666.489 664.5,665.5C 665.711,668.876 665.544,672.209 664,675.5C 662.989,674.663 661.822,674.33 660.5,674.5C 660.964,681.009 659.631,687.342 656.5,693.5C 657.836,695.375 657.336,696.708 655,697.5C 654.667,696.833 654.333,696.167 654,695.5C 651.488,706.581 648.155,717.247 644,727.5C 643.667,726.833 643.333,726.167 643,725.5C 642.257,727.441 642.424,729.274 643.5,731C 640.906,734.703 639.239,738.87 638.5,743.5C 638.543,744.416 638.876,745.083 639.5,745.5C 624.722,788.729 620.055,833.062 625.5,878.5C 625.585,880.333 626.252,881.666 627.5,882.5C 617.886,885.32 608.22,887.987 598.5,890.5C 597.167,890.5 595.833,890.5 594.5,890.5C 593.986,878.843 593.653,867.176 593.5,855.5C 592.654,810.896 601.154,768.229 619,727.5C 621.877,718.751 618.877,714.084 610,713.5C 597.303,716.478 584.47,718.978 571.5,721C 557.658,722.233 543.991,721.233 530.5,718C 517.54,714.937 506.04,709.104 496,700.5C 494.427,697.523 493.594,694.357 493.5,691C 493.537,687.745 494.37,684.912 496,682.5C 479.872,674.04 466.539,662.373 456,647.5C 453.632,643.402 452.299,639.069 452,634.5C 478.624,645.911 506.457,651.244 535.5,650.5 Z"/></g>
<g><path style="opacity:1" fill="#8aaebf" d="M 639.5,745.5 C 638.876,745.083 638.543,744.416 638.5,743.5C 639.239,738.87 640.906,734.703 643.5,731C 642.424,729.274 642.257,727.441 643,725.5C 643.333,726.167 643.667,726.833 644,727.5C 648.155,717.247 651.488,706.581 654,695.5C 654.333,696.167 654.667,696.833 655,697.5C 657.336,696.708 657.836,695.375 656.5,693.5C 659.631,687.342 660.964,681.009 660.5,674.5C 661.822,674.33 662.989,674.663 664,675.5C 665.544,672.209 665.711,668.876 664.5,665.5C 663.532,666.489 662.365,667.156 661,667.5C 658.655,665.811 656.822,666.311 655.5,669C 651.541,668.791 649.874,670.625 650.5,674.5C 648.94,674.481 647.44,674.148 646,673.5C 642.726,675.197 639.226,676.364 635.5,677C 630.32,677.293 625.32,678.126 620.5,679.5C 610.395,679.045 600.228,679.045 590,679.5C 574.841,679.422 559.841,678.089 545,675.5C 544.228,675.645 543.561,675.978 543,676.5C 540.018,673.857 537.851,673.857 536.5,676.5C 535.548,674.955 535.215,673.288 535.5,671.5C 536.978,671.762 538.311,671.429 539.5,670.5C 536.946,668.979 534.279,667.646 531.5,666.5C 530.012,664.114 530.345,663.448 532.5,664.5C 532.5,665.167 532.833,665.5 533.5,665.5C 547.949,672.746 563.282,676.913 579.5,678C 612.224,680.132 643.057,673.632 672,658.5C 672.667,659.5 672.667,660.5 672,661.5C 660.876,689.41 650.043,717.41 639.5,745.5 Z"/></g>
<g><path style="opacity:1" fill="#64acd5" d="M 356.5,618.5 C 364.827,621.66 372.16,626.327 378.5,632.5C 380.538,637.284 381.538,642.284 381.5,647.5C 372.779,691.445 353.112,729.612 322.5,762C 318.5,765.333 314.5,768.667 310.5,772C 296.407,780.26 281.407,786.594 265.5,791C 261.286,793.274 256.953,795.274 252.5,797C 237.5,805.333 222.5,813.667 207.5,822C 201.144,824.762 195.477,823.929 190.5,819.5C 189.749,820.376 189.249,821.376 189,822.5C 188.506,820.866 188.34,819.199 188.5,817.5C 191.482,791.217 199.816,766.883 213.5,744.5C 213.369,745.239 213.536,745.906 214,746.5C 236.104,719.395 260.604,694.562 287.5,672C 310.186,654.445 334.853,640.612 361.5,630.5C 362.675,630.719 363.675,630.386 364.5,629.5C 361.233,627.533 357.9,625.867 354.5,624.5C 355.167,622.5 355.833,620.5 356.5,618.5 Z"/></g>
<g><path style="opacity:1" fill="#305f85" d="M 871.5,663.5 C 866.696,674.442 861.362,685.109 855.5,695.5C 856.422,692.874 857.422,690.207 858.5,687.5C 857.511,686.532 856.844,685.365 856.5,684C 856.492,680.846 857.158,680.679 858.5,683.5C 862.37,676.399 866.703,669.732 871.5,663.5 Z"/></g>
<g><path style="opacity:1" fill="#c5e9f3" d="M 355.5,630.5 C 357.5,630.5 359.5,630.5 361.5,630.5C 334.853,640.612 310.186,654.445 287.5,672C 260.604,694.562 236.104,719.395 214,746.5C 213.536,745.906 213.369,745.239 213.5,744.5C 221.578,730.68 230.411,717.347 240,704.5C 262.508,676.319 290.008,654.486 322.5,639C 333.119,634.626 344.119,631.793 355.5,630.5 Z"/></g>
<g><path style="opacity:1" fill="#44739e" d="M 211.5,659.5 C 212.273,668.055 213.607,676.388 215.5,684.5C 216.207,689.849 216.707,695.182 217,700.5C 208.483,712.493 200.649,724.826 193.5,737.5C 190.5,732.167 187.5,726.833 184.5,721.5C 185.708,722.234 187.041,722.567 188.5,722.5C 188.578,726.656 190.245,729.989 193.5,732.5C 194.48,731.019 195.647,729.685 197,728.5C 197.266,723.931 198.266,719.597 200,715.5C 201.016,714.366 201.683,714.699 202,716.5C 204.137,714.679 204.97,712.346 204.5,709.5C 200.641,709.105 199.308,707.105 200.5,703.5C 201.524,704.853 202.857,705.52 204.5,705.5C 204.222,707.346 204.889,708.68 206.5,709.5C 208.526,708.63 209.859,707.13 210.5,705C 208.048,703.194 208.381,701.694 211.5,700.5C 212.72,701.711 213.887,701.711 215,700.5C 215.667,697.833 215.667,695.167 215,692.5C 212.773,685.705 211.44,678.705 211,671.5C 210.188,667.311 210.355,663.311 211.5,659.5 Z"/></g>
<g><path style="opacity:1" fill="#264864" d="M 855.5,695.5 C 849.677,707.308 842.677,718.308 834.5,728.5C 841.113,717.227 848.113,706.227 855.5,695.5 Z"/></g>
<g><path style="opacity:1" fill="#030c17" d="M 690.5,290.5 C 706.787,302.787 721.454,316.787 734.5,332.5C 740.562,342.281 746.396,352.281 752,362.5C 756.609,372.493 760.109,382.827 762.5,393.5C 762.643,395.262 762.309,396.929 761.5,398.5C 762.806,399.912 763.64,401.579 764,403.5C 764.273,417.506 763.939,431.506 763,445.5C 762.667,444.833 762.333,444.167 762,443.5C 761.333,447.5 760.667,447.5 760,443.5C 759.333,447.5 759.333,451.5 760,455.5C 760.939,452.879 761.772,450.212 762.5,447.5C 763.982,454.717 763.315,461.717 760.5,468.5C 761.441,468.489 762.108,468.989 762.5,470C 761.978,470.95 761.311,471.784 760.5,472.5C 760.997,476.175 761.997,479.675 763.5,483C 765.5,483.333 767.5,483.667 769.5,484C 769.167,484.333 768.833,484.667 768.5,485C 770.743,486.136 773.076,486.97 775.5,487.5C 778.527,489.86 781.194,492.527 783.5,495.5C 794.421,511.305 795.254,527.639 786,544.5C 782.406,548.416 779.239,552.583 776.5,557C 779.112,565.609 778.779,574.109 775.5,582.5C 774.376,585.042 773.542,587.708 773,590.5C 761.693,607.972 746.526,620.972 727.5,629.5C 741.474,637.155 754.807,645.822 767.5,655.5C 794.285,677.963 814.619,705.297 828.5,737.5C 835.051,755.252 839.051,773.585 840.5,792.5C 838.88,824.814 822.88,835.314 792.5,824C 783.282,817.942 773.949,812.109 764.5,806.5C 754.909,800.206 744.576,795.206 733.5,791.5C 733.586,790.504 733.252,789.671 732.5,789C 727.561,788.417 722.894,787.083 718.5,785C 714.56,783.985 710.56,783.485 706.5,783.5C 706.5,780.833 706.5,778.167 706.5,775.5C 703.102,775.18 699.768,775.513 696.5,776.5C 698.381,777.497 700.714,778.497 703.5,779.5C 702.833,779.833 702.167,780.167 701.5,780.5C 698.865,779.947 696.199,779.614 693.5,779.5C 680.874,781.247 668.207,782.581 655.5,783.5C 655.657,782.127 655.49,780.793 655,779.5C 653.286,780.925 651.953,780.592 651,778.5C 648.306,779.946 647.473,781.946 648.5,784.5C 648,785.5 647.5,786.5 647,787.5C 646.667,787.167 646.333,786.833 646,786.5C 643.171,788.762 643.004,791.095 645.5,793.5C 644.157,803.547 643.324,813.547 643,823.5C 642.667,822.5 642.333,821.5 642,820.5C 642.403,827.776 642.069,835.11 641,842.5C 640.308,843.025 639.808,843.692 639.5,844.5C 641.733,853.36 643.233,862.36 644,871.5C 644.377,872.942 645.21,873.942 646.5,874.5C 647.167,874.5 647.5,874.833 647.5,875.5C 640.828,877.835 634.162,880.168 627.5,882.5C 626.252,881.666 625.585,880.333 625.5,878.5C 620.055,833.062 624.722,788.729 639.5,745.5C 650.043,717.41 660.876,689.41 672,661.5C 672.667,660.5 672.667,659.5 672,658.5C 643.057,673.632 612.224,680.132 579.5,678C 563.282,676.913 547.949,672.746 533.5,665.5C 549.983,665.509 566.65,665.343 583.5,665C 592.192,664.219 600.859,663.219 609.5,662C 612.379,661.454 615.046,660.621 617.5,659.5C 638.519,655.824 657.852,647.99 675.5,636C 664.086,635.863 652.753,634.863 641.5,633C 615.031,629.095 592.031,618.261 572.5,600.5C 572.735,599.903 573.235,599.57 574,599.5C 587.44,605.147 601.273,609.48 615.5,612.5C 639.045,619.062 663.045,621.229 687.5,619C 707.419,617.368 725.419,610.702 741.5,599C 748.272,593.745 753.272,587.245 756.5,579.5C 756.989,578.005 757.655,576.671 758.5,575.5C 760.417,573.325 761.75,570.658 762.5,567.5C 762.24,563.993 761.24,563.326 759.5,565.5C 757.057,563.945 754.39,563.278 751.5,563.5C 751.5,564.833 751.5,566.167 751.5,567.5C 749.5,567.5 747.5,567.5 745.5,567.5C 745.688,569.103 745.188,570.437 744,571.5C 742.184,570.671 740.351,569.837 738.5,569C 739,568.5 739.5,568 740,567.5C 743.476,570.186 743.976,569.853 741.5,566.5C 743.392,564.119 743.892,561.453 743,558.5C 740.754,558.779 738.254,559.113 735.5,559.5C 748.55,553.721 759.717,545.388 769,534.5C 775.47,521.419 772.97,510.419 761.5,501.5C 761.167,500.5 760.5,499.833 759.5,499.5C 754.903,495.858 749.903,492.692 744.5,490C 725.002,481.696 704.669,478.696 683.5,481C 649.452,485.294 617.119,495.128 586.5,510.5C 584.972,510.483 584.472,509.816 585,508.5C 589.582,503.808 594.416,499.474 599.5,495.5C 643.306,465.407 690.972,457.073 742.5,470.5C 752.525,430.699 746.691,393.366 725,358.5C 723.961,357.29 722.794,356.29 721.5,355.5C 721.34,353.847 720.674,352.514 719.5,351.5C 716.89,346.891 713.89,342.558 710.5,338.5C 712.346,338.778 713.68,338.111 714.5,336.5C 711.391,335.053 709.057,332.886 707.5,330C 709.801,326.996 710.968,323.496 711,319.5C 711.667,318.833 712.333,318.167 713,317.5C 714.081,319.767 715.581,319.934 717.5,318C 713.709,313.509 709.543,309.342 705,305.5C 704.667,305.833 704.333,306.167 704,306.5C 703.951,303.584 702.784,302.584 700.5,303.5C 699.3,302.469 697.966,301.635 696.5,301C 697.167,300.667 697.833,300.333 698.5,300C 696.948,297.219 694.615,295.552 691.5,295C 691.833,294.667 692.167,294.333 692.5,294C 691.177,293.184 690.511,292.017 690.5,290.5 Z"/></g>
<g><path style="opacity:1" fill="#8db7d5" d="M 711.5,644.5 C 764.691,669.87 799.857,710.87 817,767.5C 819.972,777.992 820.972,788.659 820,799.5C 819.61,802.104 818.776,804.438 817.5,806.5C 816.539,804.735 816.205,802.735 816.5,800.5C 817.117,800.611 817.617,800.944 818,801.5C 819.039,785.326 816.706,769.659 811,754.5C 805.167,737.829 797,722.496 786.5,708.5C 785.675,707.614 784.675,707.281 783.5,707.5C 783.5,706.167 783.5,704.833 783.5,703.5C 777.755,701.581 774.255,697.581 773,691.5C 765.852,683.354 758.019,675.854 749.5,669C 739.133,661.487 728.466,654.487 717.5,648C 715.527,647.505 713.527,647.338 711.5,647.5C 711.5,646.5 711.5,645.5 711.5,644.5 Z"/></g>
<g><path style="opacity:1" fill="#6fb5de" d="M 711.5,644.5 C 711.5,645.5 711.5,646.5 711.5,647.5C 713.527,647.338 715.527,647.505 717.5,648C 728.466,654.487 739.133,661.487 749.5,669C 758.019,675.854 765.852,683.354 773,691.5C 774.255,697.581 777.755,701.581 783.5,703.5C 783.5,704.833 783.5,706.167 783.5,707.5C 784.675,707.281 785.675,707.614 786.5,708.5C 797,722.496 805.167,737.829 811,754.5C 816.706,769.659 819.039,785.326 818,801.5C 817.617,800.944 817.117,800.611 816.5,800.5C 805.46,742.578 775.126,697.745 725.5,666C 714.343,659.764 703.343,653.597 692.5,647.5C 695.135,646.189 697.469,644.522 699.5,642.5C 703.884,639.989 707.884,640.656 711.5,644.5 Z"/></g>
<g><path style="opacity:1" fill="#306c98" d="M 692.5,647.5 C 703.343,653.597 714.343,659.764 725.5,666C 775.126,697.745 805.46,742.578 816.5,800.5C 816.205,802.735 816.539,804.735 817.5,806.5C 816.308,808.922 814.308,809.922 811.5,809.5C 809.077,809.406 806.744,808.906 804.5,808C 789.765,798.271 774.765,788.937 759.5,780C 748.869,775.52 738.202,771.353 727.5,767.5C 727.38,766.414 726.713,765.747 725.5,765.5C 704.633,761.004 683.633,760.337 662.5,763.5C 660.366,763.485 658.366,762.985 656.5,762C 658.943,753.154 662.11,744.32 666,735.5C 666.822,732.883 667.322,730.216 667.5,727.5C 668.5,727.5 669.5,727.5 670.5,727.5C 671,722.831 672.5,718.498 675,714.5C 674.297,709.2 676.131,705.2 680.5,702.5C 677.961,698.516 678.794,695.182 683,692.5C 684.457,683.553 685.29,674.553 685.5,665.5C 685.671,660.804 686.171,656.137 687,651.5C 688.992,650.335 690.825,649.002 692.5,647.5 Z"/></g>
<g><path style="opacity:1" fill="#071022" d="M 699.5,642.5 C 697.469,644.522 695.135,646.189 692.5,647.5C 690.825,649.002 688.992,650.335 687,651.5C 686.171,656.137 685.671,660.804 685.5,665.5C 683.986,675.597 681.486,685.597 678,695.5C 671.049,714.193 664.215,732.86 657.5,751.5C 657.461,750.417 657.127,749.417 656.5,748.5C 657.672,744.416 659.005,740.416 660.5,736.5C 659.624,735.749 658.624,735.249 657.5,735C 659,732.833 660.833,731 663,729.5C 663.027,725.295 664.527,721.795 667.5,719C 666.978,718.439 666.645,717.772 666.5,717C 667.406,714.209 668.073,711.376 668.5,708.5C 672.473,707.925 673.473,705.758 671.5,702C 674.018,697.327 676.351,692.494 678.5,687.5C 679.806,682.248 680.639,676.914 681,671.5C 681.333,673.167 681.667,674.833 682,676.5C 683.788,668.492 684.454,660.492 684,652.5C 685.117,651.051 685.784,649.384 686,647.5C 686.333,647.833 686.667,648.167 687,648.5C 689.541,646.437 692.375,645.103 695.5,644.5C 695.351,643.448 695.517,642.448 696,641.5C 697.011,642.337 698.178,642.67 699.5,642.5 Z"/></g>
<g><path style="opacity:1" fill="#496e8f" d="M 685.5,665.5 C 685.29,674.553 684.457,683.553 683,692.5C 678.794,695.182 677.961,698.516 680.5,702.5C 676.131,705.2 674.297,709.2 675,714.5C 672.5,718.498 671,722.831 670.5,727.5C 669.5,727.5 668.5,727.5 667.5,727.5C 667.322,730.216 666.822,732.883 666,735.5C 662.11,744.32 658.943,753.154 656.5,762C 658.366,762.985 660.366,763.485 662.5,763.5C 683.633,760.337 704.633,761.004 725.5,765.5C 726.713,765.747 727.38,766.414 727.5,767.5C 714.123,764.91 700.623,763.243 687,762.5C 678.399,762.608 669.899,763.608 661.5,765.5C 659.142,765.247 656.808,764.914 654.5,764.5C 655.293,760.12 656.293,755.786 657.5,751.5C 664.215,732.86 671.049,714.193 678,695.5C 681.486,685.597 683.986,675.597 685.5,665.5 Z"/></g>
<g><path style="opacity:1" fill="#050e22" d="M 733.5,791.5 C 730.692,790.071 727.692,789.405 724.5,789.5C 715.269,785.945 705.603,783.779 695.5,783C 683.614,782.296 671.781,782.796 660,784.5C 656.779,784.459 653.612,784.125 650.5,783.5C 643.021,813.538 641.687,843.872 646.5,874.5C 645.21,873.942 644.377,872.942 644,871.5C 643.233,862.36 641.733,853.36 639.5,844.5C 639.808,843.692 640.308,843.025 641,842.5C 642.069,835.11 642.403,827.776 642,820.5C 642.333,821.5 642.667,822.5 643,823.5C 643.324,813.547 644.157,803.547 645.5,793.5C 643.004,791.095 643.171,788.762 646,786.5C 646.333,786.833 646.667,787.167 647,787.5C 647.5,786.5 648,785.5 648.5,784.5C 647.473,781.946 648.306,779.946 651,778.5C 651.953,780.592 653.286,780.925 655,779.5C 655.49,780.793 655.657,782.127 655.5,783.5C 668.207,782.581 680.874,781.247 693.5,779.5C 696.199,779.614 698.865,779.947 701.5,780.5C 702.167,780.167 702.833,779.833 703.5,779.5C 700.714,778.497 698.381,777.497 696.5,776.5C 699.768,775.513 703.102,775.18 706.5,775.5C 706.5,778.167 706.5,780.833 706.5,783.5C 710.56,783.485 714.56,783.985 718.5,785C 722.894,787.083 727.561,788.417 732.5,789C 733.252,789.671 733.586,790.504 733.5,791.5 Z"/></g>
<g><path style="opacity:1" fill="#326c98" d="M 381.5,647.5 C 383.099,652.569 383.933,657.902 384,663.5C 384.794,695.325 376.127,724.325 358,750.5C 344.89,770.943 327.39,786.443 305.5,797C 273.246,803.133 243.912,815.799 217.5,835C 195.39,848.958 185.724,843.125 188.5,817.5C 188.34,819.199 188.506,820.866 189,822.5C 189.249,821.376 189.749,820.376 190.5,819.5C 195.477,823.929 201.144,824.762 207.5,822C 222.5,813.667 237.5,805.333 252.5,797C 256.953,795.274 261.286,793.274 265.5,791C 281.407,786.594 296.407,780.26 310.5,772C 314.5,768.667 318.5,765.333 322.5,762C 353.112,729.612 372.779,691.445 381.5,647.5 Z"/></g>
<g><path style="opacity:1" fill="#76a9bc" d="M 397.5,658.5 C 398.496,658.414 399.329,658.748 400,659.5C 410.44,681.131 413.44,703.797 409,727.5C 405.777,742.058 403.111,756.724 401,771.5C 399.054,812.767 407.22,851.934 425.5,889C 424.906,889.464 424.239,889.631 423.5,889.5C 414.377,887.636 405.377,885.303 396.5,882.5C 379.578,848.999 368.911,813.499 364.5,776C 369.699,769.109 374.532,761.943 379,754.5C 396.417,724.584 402.584,692.584 397.5,658.5 Z"/></g>
<g><path style="opacity:1" fill="#48759d" d="M 724.5,789.5 C 710.826,786.797 696.992,785.13 683,784.5C 672.287,785.618 661.621,786.618 651,787.5C 645.299,814.599 644.132,841.932 647.5,869.5C 654.171,868.573 660.838,867.573 667.5,866.5C 661.073,869.872 654.407,872.872 647.5,875.5C 647.5,874.833 647.167,874.5 646.5,874.5C 641.687,843.872 643.021,813.538 650.5,783.5C 653.612,784.125 656.779,784.459 660,784.5C 671.781,782.796 683.614,782.296 695.5,783C 705.603,783.779 715.269,785.945 724.5,789.5 Z"/></g>
<g><path style="opacity:1" fill="#336e9d" d="M 380.5,876.5 C 364.587,871.706 349.587,865.04 335.5,856.5C 330.929,852.956 325.929,849.956 320.5,847.5C 318.204,843.041 314.537,840.875 309.5,841C 304.944,837.893 300.277,835.06 295.5,832.5C 290.886,829.883 286.553,826.883 282.5,823.5C 291.177,821.441 299.844,819.275 308.5,817C 325.074,811.088 339.574,801.921 352,789.5C 355.363,805.307 359.363,820.974 364,836.5C 369.213,849.979 374.713,863.313 380.5,876.5 Z"/></g>
<g><path style="opacity:1" fill="#3475a9" d="M 724.5,789.5 C 727.692,789.405 730.692,790.071 733.5,791.5C 744.576,795.206 754.909,800.206 764.5,806.5C 753.784,815.217 742.784,823.551 731.5,831.5C 730.279,830.535 728.946,830.702 727.5,832C 717.615,838.769 707.615,845.269 697.5,851.5C 694.402,853.892 691.069,856.058 687.5,858C 680.871,861.154 674.204,863.988 667.5,866.5C 660.838,867.573 654.171,868.573 647.5,869.5C 644.132,841.932 645.299,814.599 651,787.5C 661.621,786.618 672.287,785.618 683,784.5C 696.992,785.13 710.826,786.797 724.5,789.5 Z"/></g>
<g><path style="opacity:1" fill="#254c6a" d="M 731.5,831.5 C 720.797,839.187 709.464,845.853 697.5,851.5C 707.615,845.269 717.615,838.769 727.5,832C 728.946,830.702 730.279,830.535 731.5,831.5 Z"/></g>
<g><path style="opacity:1" fill="#2c5473" d="M 295.5,832.5 C 300.277,835.06 304.944,837.893 309.5,841C 314.537,840.875 318.204,843.041 320.5,847.5C 325.929,849.956 330.929,852.956 335.5,856.5C 328.952,853.893 322.619,850.726 316.5,847C 309.086,842.638 302.086,837.804 295.5,832.5 Z"/></g>
</svg>
