<?xml version="1.0" encoding="UTF-8"?>
<!DOCTYPE svg PUBLIC "-//W3C//DTD SVG 1.1//EN" "http://www.w3.org/Graphics/SVG/1.1/DTD/svg11.dtd">
<svg xmlns="http://www.w3.org/2000/svg" version="1.1" width="1024px" height="1024px" style="shape-rendering:geometricPrecision; text-rendering:geometricPrecision; image-rendering:optimizeQuality; fill-rule:evenodd; clip-rule:evenodd" xmlns:xlink="http://www.w3.org/1999/xlink">
<g><path style="opacity:0.027" fill="#cef1f3" d="M 615.5,136.5 C 615.393,138.379 615.893,138.712 617,137.5C 620.571,139.346 624.071,141.012 627.5,142.5C 599.974,134.912 571.974,129.912 543.5,127.5C 539.481,127.354 535.481,127.021 531.5,126.5C 503.303,125.387 475.303,127.054 447.5,131.5C 448.11,130.609 448.443,129.609 448.5,128.5C 456.811,127.209 465.145,126.043 473.5,125C 500.833,124.333 528.167,124.333 555.5,125C 565.249,126.113 574.916,127.446 584.5,129C 594.844,131.257 605.178,133.757 615.5,136.5 Z"/></g>
<g><path style="opacity:1" fill="#3779ad" d="M 531.5,126.5 C 535.481,127.021 539.481,127.354 543.5,127.5C 543.918,128.222 544.584,128.722 545.5,129C 573.372,131.473 600.705,136.473 627.5,144C 629,144.833 630.167,146 631,147.5C 631.414,147.043 631.914,146.709 632.5,146.5C 636.131,147.352 639.798,148.019 643.5,148.5C 653.328,151.087 662.661,154.754 671.5,159.5C 671.369,160.376 671.702,161.043 672.5,161.5C 696.423,170.961 718.756,183.295 739.5,198.5C 740.736,199.246 742.07,199.579 743.5,199.5C 747.896,202.025 751.896,205.025 755.5,208.5C 755.414,209.496 755.748,210.329 756.5,211C 771.354,222.366 785.354,234.533 798.5,247.5C 801.402,252.905 805.235,257.571 810,261.5C 813.955,267.123 818.288,272.457 823,277.5C 823.333,278.833 823.667,280.167 824,281.5C 826.731,283.418 829.231,285.418 831.5,287.5C 837.327,295.148 842.66,303.148 847.5,311.5C 847.724,313.787 848.391,315.953 849.5,318C 857.27,330.721 864.603,343.555 871.5,356.5C 871.5,356.833 871.5,357.167 871.5,357.5C 876.689,373.227 882.189,388.894 888,404.5C 890.612,414.071 892.945,423.737 895,433.5C 897.933,447.272 899.933,461.272 901,475.5C 901.333,476.833 901.667,478.167 902,479.5C 902.497,476.854 902.664,474.187 902.5,471.5C 903.473,473.948 903.806,476.615 903.5,479.5C 903.5,480.5 903.5,481.5 903.5,482.5C 902.934,500.036 901.934,517.702 900.5,535.5C 900.565,538.707 900.898,541.874 901.5,545C 899.821,555.799 898.321,566.632 897,577.5C 893.898,591.498 890.732,605.498 887.5,619.5C 885.981,626.241 884.148,632.907 882,639.5C 878.414,646.592 875.414,653.925 873,661.5C 869,671.048 864.167,680.048 858.5,688.5C 855.842,691.806 853.676,695.473 852,699.5C 850.644,700.38 849.144,700.714 847.5,700.5C 845.951,704.6 844.118,708.6 842,712.5C 840.956,711.377 840.29,710.044 840,708.5C 838.7,710.917 838.866,713.417 840.5,716C 839.671,717.816 838.837,719.649 838,721.5C 836.201,721.721 834.368,722.054 832.5,722.5C 831.548,724.045 831.215,725.712 831.5,727.5C 829.5,727.5 827.5,727.5 825.5,727.5C 825.491,725.692 825.991,724.025 827,722.5C 827.743,724.645 828.576,724.811 829.5,723C 829.265,722.127 828.931,721.293 828.5,720.5C 824.59,720.219 821.59,718.552 819.5,715.5C 818.583,714.873 817.583,714.539 816.5,714.5C 795.788,679.292 767.122,652.459 730.5,634C 728.937,633.241 727.937,632.074 727.5,630.5C 743.76,624.069 756.927,613.736 767,599.5C 768.786,596.264 770.286,592.93 771.5,589.5C 773.714,587.005 774.881,584.005 775,580.5C 775.778,573.629 775.612,566.795 774.5,560C 778.766,554.901 782.432,549.401 785.5,543.5C 793.04,525.197 789.706,509.197 775.5,495.5C 772.527,493.194 769.86,490.527 767.5,487.5C 767.586,486.504 767.252,485.671 766.5,485C 764.668,484.252 763.001,483.252 761.5,482C 767.388,453.927 767.554,425.76 762,397.5C 760.918,395.382 759.751,393.382 758.5,391.5C 752.651,374.645 744.985,358.645 735.5,343.5C 733.462,339.095 731.128,334.762 728.5,330.5C 724.658,326.79 720.825,323.123 717,319.5C 716.781,318.062 716.281,316.729 715.5,315.5C 708.096,309.233 701.429,303.733 695.5,299C 694.552,298.517 693.552,298.351 692.5,298.5C 686.999,294.582 681.332,290.916 675.5,287.5C 659.925,277.527 643.259,269.861 625.5,264.5C 614.611,260.276 603.278,257.276 591.5,255.5C 588.977,254.616 586.31,253.782 583.5,253C 551.416,248.003 519.416,248.337 487.5,254C 474.829,257.168 462.163,260.334 449.5,263.5C 445.204,264.32 441.037,265.654 437,267.5C 425.182,260.17 412.682,253.67 399.5,248C 397.19,247.503 394.857,247.337 392.5,247.5C 372.491,240.164 351.824,237.33 330.5,239C 323.282,239.971 316.282,241.471 309.5,243.5C 289.973,248.194 277.473,260.194 272,279.5C 271.404,284.88 271.738,290.213 273,295.5C 276.492,303.153 280.492,310.487 285,317.5C 290.951,332.901 290.617,348.235 284,363.5C 278.173,376.646 271.506,389.313 264,401.5C 261.872,407.418 262.039,413.251 264.5,419C 260.434,425.633 256.767,432.466 253.5,439.5C 244.534,456.103 237.201,473.436 231.5,491.5C 227.411,502.186 224.411,513.186 222.5,524.5C 219.96,533.451 217.627,542.451 215.5,551.5C 214.883,551.611 214.383,551.944 214,552.5C 207.762,585.54 205.928,618.874 208.5,652.5C 209.228,656.366 210.228,660.033 211.5,663.5C 213.988,676.02 216.322,688.686 218.5,701.5C 216.97,702.211 215.637,703.211 214.5,704.5C 213.671,703.668 212.838,704.001 212,705.5C 206.367,713.113 201.534,721.113 197.5,729.5C 193.944,727.782 191.11,725.116 189,721.5C 188.426,717.434 187.093,713.768 185,710.5C 183.134,709.473 181.3,708.473 179.5,707.5C 180.12,703.698 179.286,700.365 177,697.5C 176.586,697.957 176.086,698.291 175.5,698.5C 172.524,694.911 171.024,690.911 171,686.5C 171.912,684.341 172.745,682.175 173.5,680C 171.527,679.505 169.527,679.338 167.5,679.5C 167.723,676.886 166.556,675.219 164,674.5C 163.405,673.101 163.572,671.768 164.5,670.5C 163.264,669.643 161.931,668.977 160.5,668.5C 159.087,664.412 158.254,660.412 158,656.5C 157.667,657.5 157.333,658.5 157,659.5C 154.82,657.137 153.153,654.47 152,651.5C 147.571,638.708 143.071,626.042 138.5,613.5C 134.935,604.572 132.601,595.239 131.5,585.5C 129.506,571.548 127.672,557.548 126,543.5C 125.445,530.836 124.945,518.169 124.5,505.5C 125.512,488.14 126.512,470.806 127.5,453.5C 127.656,447.884 128.656,442.551 130.5,437.5C 130.343,438.873 130.51,440.207 131,441.5C 135.63,417.608 142.296,394.275 151,371.5C 158.9,354.034 167.066,336.701 175.5,319.5C 188.701,294.623 205.035,271.957 224.5,251.5C 224.435,251.938 224.601,252.272 225,252.5C 235.089,242.243 245.255,232.243 255.5,222.5C 268.3,210.743 281.966,199.909 296.5,190C 298.407,188.878 300.407,188.045 302.5,187.5C 314.435,181.531 326.102,175.031 337.5,168C 348.225,164.286 357.892,159.786 366.5,154.5C 365.583,155.127 364.583,155.461 363.5,155.5C 363.611,154.883 363.944,154.383 364.5,154C 367.699,153.599 370.699,152.766 373.5,151.5C 378.977,150.63 384.31,149.13 389.5,147C 392.817,146.502 396.15,146.335 399.5,146.5C 399.36,144.876 400.027,143.71 401.5,143C 420.751,138.127 440.084,134.127 459.5,131C 483.591,128.503 507.591,127.003 531.5,126.5 Z"/></g>
<g><path style="opacity:0.639" fill="#346386" d="M 543.5,127.5 C 571.974,129.912 599.974,134.912 627.5,142.5C 633.146,143.902 638.479,145.902 643.5,148.5C 639.798,148.019 636.131,147.352 632.5,146.5C 631.914,146.709 631.414,147.043 631,147.5C 630.167,146 629,144.833 627.5,144C 600.705,136.473 573.372,131.473 545.5,129C 544.584,128.722 543.918,128.222 543.5,127.5 Z"/></g>
<g><path style="opacity:0.584" fill="#3f6c8c" d="M 531.5,126.5 C 507.591,127.003 483.591,128.503 459.5,131C 440.084,134.127 420.751,138.127 401.5,143C 400.027,143.71 399.36,144.876 399.5,146.5C 396.15,146.335 392.817,146.502 389.5,147C 384.31,149.13 378.977,150.63 373.5,151.5C 397.294,142.049 421.96,135.383 447.5,131.5C 475.303,127.054 503.303,125.387 531.5,126.5 Z"/></g>
<g><path style="opacity:0.388" fill="#386483" d="M 302.5,187.5 C 321.397,174.311 341.731,163.644 363.5,155.5C 364.583,155.461 365.583,155.127 366.5,154.5C 357.892,159.786 348.225,164.286 337.5,168C 326.102,175.031 314.435,181.531 302.5,187.5 Z"/></g>
<g><path style="opacity:0.012" fill="#ecf8f8" d="M 615.5,136.5 C 621.89,137.943 628.223,139.443 634.5,141C 680.145,155.963 722.145,177.963 760.5,207C 769.41,213.904 777.743,221.571 785.5,230C 787.167,231 788.833,232 790.5,233C 861.278,304.905 900.611,391.072 908.5,491.5C 906.341,487.734 904.675,483.734 903.5,479.5C 903.806,476.615 903.473,473.948 902.5,471.5C 899.412,440.631 892.578,410.631 882,381.5C 879.151,373.086 875.651,365.086 871.5,357.5C 871.5,357.167 871.5,356.833 871.5,356.5C 869.348,351.526 867.181,346.526 865,341.5C 859.392,331.273 853.559,321.273 847.5,311.5C 842.66,303.148 837.327,295.148 831.5,287.5C 821.98,272.977 810.98,259.644 798.5,247.5C 785.687,232.681 771.354,219.681 755.5,208.5C 751.896,205.025 747.896,202.025 743.5,199.5C 721.367,183.093 697.367,169.76 671.5,159.5C 662.661,154.754 653.328,151.087 643.5,148.5C 638.479,145.902 633.146,143.902 627.5,142.5C 624.071,141.012 620.571,139.346 617,137.5C 615.893,138.712 615.393,138.379 615.5,136.5 Z"/></g>
<g><path style="opacity:0.584" fill="#3b6785" d="M 671.5,159.5 C 697.367,169.76 721.367,183.093 743.5,199.5C 742.07,199.579 740.736,199.246 739.5,198.5C 718.756,183.295 696.423,170.961 672.5,161.5C 671.702,161.043 671.369,160.376 671.5,159.5 Z"/></g>
<g><path style="opacity:0.49" fill="#386581" d="M 755.5,208.5 C 771.354,219.681 785.687,232.681 798.5,247.5C 785.354,234.533 771.354,222.366 756.5,211C 755.748,210.329 755.414,209.496 755.5,208.5 Z"/></g>
<g><path style="opacity:0.604" fill="#3f6986" d="M 255.5,222.5 C 245.255,232.243 235.089,242.243 225,252.5C 224.601,252.272 224.435,251.938 224.5,251.5C 233.923,240.739 244.257,231.073 255.5,222.5 Z"/></g>
<g><path style="opacity:1" fill="#061227" d="M 392.5,247.5 C 394.888,248.349 397.221,249.349 399.5,250.5C 391.899,249.28 384.399,247.613 377,245.5C 376.196,246.804 375.029,247.471 373.5,247.5C 371.177,246.827 369.844,245.661 369.5,244C 362.845,243.057 356.178,242.224 349.5,241.5C 336.15,241.166 322.817,241.833 309.5,243.5C 316.282,241.471 323.282,239.971 330.5,239C 351.824,237.33 372.491,240.164 392.5,247.5 Z"/></g>
<g><path style="opacity:1" fill="#4f7ba2" d="M 392.5,247.5 C 394.857,247.337 397.19,247.503 399.5,248C 412.682,253.67 425.182,260.17 437,267.5C 441.037,265.654 445.204,264.32 449.5,263.5C 447.928,264.687 446.261,265.687 444.5,266.5C 441.405,267.483 438.405,268.316 435.5,269C 424.125,261.48 412.125,255.313 399.5,250.5C 397.221,249.349 394.888,248.349 392.5,247.5 Z"/></g>
<g><path style="opacity:1" fill="#08172d" d="M 591.5,255.5 C 573.007,254.3 554.341,252.966 535.5,251.5C 529.659,251.547 523.992,252.214 518.5,253.5C 513.621,252.226 508.955,252.893 504.5,255.5C 504.167,255.167 503.833,254.833 503.5,254.5C 504.729,253.719 506.062,253.219 507.5,253C 506.333,252.833 505.167,252.667 504,252.5C 498.46,253.688 492.96,255.021 487.5,256.5C 485.822,258.852 483.489,260.186 480.5,260.5C 478.894,259.923 477.228,259.59 475.5,259.5C 469.685,260.955 463.852,262.288 458,263.5C 456.393,263.769 455.226,264.603 454.5,266C 451.183,266.498 447.85,266.665 444.5,266.5C 446.261,265.687 447.928,264.687 449.5,263.5C 462.163,260.334 474.829,257.168 487.5,254C 519.416,248.337 551.416,248.003 583.5,253C 586.31,253.782 588.977,254.616 591.5,255.5 Z"/></g>
<g><path style="opacity:0.396" fill="#3f6a86" d="M 798.5,247.5 C 810.98,259.644 821.98,272.977 831.5,287.5C 829.231,285.418 826.731,283.418 824,281.5C 823.667,280.167 823.333,278.833 823,277.5C 818.288,272.457 813.955,267.123 810,261.5C 805.235,257.571 801.402,252.905 798.5,247.5 Z"/></g>
<g><path style="opacity:1" fill="#071429" d="M 625.5,264.5 C 643.259,269.861 659.925,277.527 675.5,287.5C 673.173,287.753 671.173,287.086 669.5,285.5C 667.657,286.939 665.99,286.772 664.5,285C 666.901,284.195 666.734,283.362 664,282.5C 663.692,283.308 663.192,283.975 662.5,284.5C 660.474,283.63 659.141,282.13 658.5,280C 654.991,278.241 651.325,277.074 647.5,276.5C 647.719,275.325 647.386,274.325 646.5,273.5C 642.779,275.335 640.446,274.335 639.5,270.5C 634.318,269.034 628.984,268.034 623.5,267.5C 623.285,265.821 623.952,264.821 625.5,264.5 Z"/></g>
<g><path style="opacity:1" fill="#62aad2" d="M 679.5,327.5 C 678.5,327.5 677.5,327.5 676.5,327.5C 676.146,330.421 677.146,332.754 679.5,334.5C 675.218,336.537 672.552,335.371 671.5,331C 674.506,326.463 673.173,323.963 667.5,323.5C 667.33,324.822 667.663,325.989 668.5,327C 666.866,327.494 665.199,327.66 663.5,327.5C 663.5,326.5 663.5,325.5 663.5,324.5C 660.728,324.78 658.228,324.113 656,322.5C 655.506,324.134 655.34,325.801 655.5,327.5C 650.167,327.5 644.833,327.5 639.5,327.5C 639.5,330.167 639.5,332.833 639.5,335.5C 634.167,335.5 628.833,335.5 623.5,335.5C 623.5,332.833 623.5,330.167 623.5,327.5C 618.167,327.5 612.833,327.5 607.5,327.5C 607.5,330.167 607.5,332.833 607.5,335.5C 604.833,335.5 602.167,335.5 599.5,335.5C 599.5,340.833 599.5,346.167 599.5,351.5C 586.167,351.5 572.833,351.5 559.5,351.5C 559.5,352.5 559.5,353.5 559.5,354.5C 556.833,354.5 554.167,354.5 551.5,354.5C 551.5,358.833 551.5,363.167 551.5,367.5C 554.167,367.5 556.833,367.5 559.5,367.5C 559.5,370.167 559.5,372.833 559.5,375.5C 556.833,375.5 554.167,375.5 551.5,375.5C 551.5,378.167 551.5,380.833 551.5,383.5C 548.833,383.5 546.167,383.5 543.5,383.5C 543.5,380.833 543.5,378.167 543.5,375.5C 540.043,375.333 539.71,374.333 542.5,372.5C 543.452,370.955 543.785,369.288 543.5,367.5C 540.592,367.262 538.258,368.262 536.5,370.5C 535.614,369.675 535.281,368.675 535.5,367.5C 532.833,367.5 530.167,367.5 527.5,367.5C 527.5,372.833 527.5,378.167 527.5,383.5C 529.167,383.5 530.833,383.5 532.5,383.5C 532.5,386.167 532.5,388.833 532.5,391.5C 530.833,391.5 529.167,391.5 527.5,391.5C 527.5,394.167 527.5,396.833 527.5,399.5C 530.167,399.5 532.833,399.5 535.5,399.5C 535.5,407.5 535.5,415.5 535.5,423.5C 532.833,423.5 530.167,423.5 527.5,423.5C 526.375,427.521 526.375,431.521 527.5,435.5C 515.307,415.693 498.307,410.193 476.5,419C 469.623,423.71 463.956,429.543 459.5,436.5C 458.587,434.914 458.587,433.414 459.5,432C 455.514,431.501 451.514,431.334 447.5,431.5C 447.5,423.5 447.5,415.5 447.5,407.5C 450.167,407.5 452.833,407.5 455.5,407.5C 455.5,410.167 455.5,412.833 455.5,415.5C 458.167,415.5 460.833,415.5 463.5,415.5C 463.5,410.167 463.5,404.833 463.5,399.5C 468.833,399.5 474.167,399.5 479.5,399.5C 479.5,396.833 479.5,394.167 479.5,391.5C 482.167,391.5 484.833,391.5 487.5,391.5C 487.5,395.167 487.5,398.833 487.5,402.5C 490.167,402.5 492.833,402.5 495.5,402.5C 495.5,401.5 495.5,400.5 495.5,399.5C 497.167,399.5 498.833,399.5 500.5,399.5C 500.5,396.833 500.5,394.167 500.5,391.5C 501.5,391.5 502.5,391.5 503.5,391.5C 503.5,388.833 503.5,386.167 503.5,383.5C 500.833,383.5 498.167,383.5 495.5,383.5C 495.5,380.833 495.5,378.167 495.5,375.5C 487.5,375.5 479.5,375.5 471.5,375.5C 471.5,378.167 471.5,380.833 471.5,383.5C 468.833,383.5 466.167,383.5 463.5,383.5C 463.5,372.833 463.5,362.167 463.5,351.5C 458.167,351.5 452.833,351.5 447.5,351.5C 447.5,346.167 447.5,340.833 447.5,335.5C 442.167,335.5 436.833,335.5 431.5,335.5C 431.5,340.833 431.5,346.167 431.5,351.5C 434.167,351.5 436.833,351.5 439.5,351.5C 439.5,356.833 439.5,362.167 439.5,367.5C 436.833,367.5 434.167,367.5 431.5,367.5C 431.5,366.167 431.5,364.833 431.5,363.5C 426.167,363.5 420.833,363.5 415.5,363.5C 415.5,362.167 415.5,360.833 415.5,359.5C 410.167,359.5 404.833,359.5 399.5,359.5C 399.5,362.167 399.5,364.833 399.5,367.5C 402.167,367.5 404.833,367.5 407.5,367.5C 407.5,370.167 407.5,372.833 407.5,375.5C 404.833,375.5 402.167,375.5 399.5,375.5C 399.5,378.167 399.5,380.833 399.5,383.5C 394.167,383.5 388.833,383.5 383.5,383.5C 383.5,380.833 383.5,378.167 383.5,375.5C 378.167,375.5 372.833,375.5 367.5,375.5C 367.5,372.833 367.5,370.167 367.5,367.5C 370.167,367.5 372.833,367.5 375.5,367.5C 375.5,362.167 375.5,356.833 375.5,351.5C 378.167,351.5 380.833,351.5 383.5,351.5C 383.953,348.348 382.953,345.848 380.5,344C 384.152,343.501 387.818,343.335 391.5,343.5C 391.5,346.167 391.5,348.833 391.5,351.5C 402.167,351.5 412.833,351.5 423.5,351.5C 423.5,343.5 423.5,335.5 423.5,327.5C 428.833,327.5 434.167,327.5 439.5,327.5C 439.5,324.833 439.5,322.167 439.5,319.5C 436.833,319.5 434.167,319.5 431.5,319.5C 431.5,320.5 431.5,321.5 431.5,322.5C 426.167,322.5 420.833,322.5 415.5,322.5C 415.5,321.5 415.5,320.5 415.5,319.5C 426.167,319.167 426.167,318.833 415.5,318.5C 415.657,317.127 415.49,315.793 415,314.5C 412.976,316.884 410.809,317.051 408.5,315C 405.5,314.333 402.5,314.333 399.5,315C 394.356,317.27 389.022,318.937 383.5,320C 381.415,321.041 379.748,322.541 378.5,324.5C 377.583,323.873 376.583,323.539 375.5,323.5C 378.796,321.179 382.129,318.846 385.5,316.5C 385.369,317.376 385.702,318.043 386.5,318.5C 423.958,302.294 462.958,291.461 503.5,286C 555.577,281.15 605.244,289.817 652.5,312C 661.857,316.674 670.857,321.841 679.5,327.5 Z"/></g>
<g><path style="opacity:1" fill="#4d799f" d="M 692.5,298.5 C 693.552,298.351 694.552,298.517 695.5,299C 701.429,303.733 708.096,309.233 715.5,315.5C 716.281,316.729 716.781,318.062 717,319.5C 720.825,323.123 724.658,326.79 728.5,330.5C 731.128,334.762 733.462,339.095 735.5,343.5C 732.071,338.981 728.404,334.648 724.5,330.5C 714.854,318.854 704.188,308.188 692.5,298.5 Z"/></g>
<g><path style="opacity:1" fill="#63abd4" d="M 459.5,436.5 C 459.804,438.796 460.804,439.129 462.5,437.5C 464.179,437.892 465.846,438.392 467.5,439C 465.839,439.995 464.505,441.328 463.5,443C 464.777,444.888 465.777,446.888 466.5,449C 464.757,450.11 463.424,451.61 462.5,453.5C 462.167,452.833 461.833,452.167 461.5,451.5C 460.914,451.709 460.414,452.043 460,452.5C 459.358,454.762 458.525,456.929 457.5,459C 457.957,459.414 458.291,459.914 458.5,460.5C 457.014,462.302 456.014,464.302 455.5,466.5C 452.833,466.5 450.167,466.5 447.5,466.5C 447.5,465.5 447.5,464.5 447.5,463.5C 444.833,463.5 442.167,463.5 439.5,463.5C 439.5,460.833 439.5,458.167 439.5,455.5C 428.833,455.5 418.167,455.5 407.5,455.5C 407.5,452.833 407.5,450.167 407.5,447.5C 418.167,447.5 428.833,447.5 439.5,447.5C 439.5,442.167 439.5,436.833 439.5,431.5C 440.833,431.5 442.167,431.5 443.5,431.5C 443.5,426.167 443.5,420.833 443.5,415.5C 439.5,415.5 435.5,415.5 431.5,415.5C 431.5,418.167 431.5,420.833 431.5,423.5C 426.167,423.5 420.833,423.5 415.5,423.5C 415.5,426.167 415.5,428.833 415.5,431.5C 410.167,431.5 404.833,431.5 399.5,431.5C 399.5,428.833 399.5,426.167 399.5,423.5C 396.833,423.5 394.167,423.5 391.5,423.5C 391.5,426.167 391.5,428.833 391.5,431.5C 386.167,431.5 380.833,431.5 375.5,431.5C 375.5,434.167 375.5,436.833 375.5,439.5C 378.167,439.5 380.833,439.5 383.5,439.5C 383.5,444.833 383.5,450.167 383.5,455.5C 386.167,455.5 388.833,455.5 391.5,455.5C 391.5,460.833 391.5,466.167 391.5,471.5C 388.833,471.5 386.167,471.5 383.5,471.5C 383.5,470.167 383.5,468.833 383.5,467.5C 378.167,467.5 372.833,467.5 367.5,467.5C 367.5,468.833 367.5,470.167 367.5,471.5C 364.833,471.5 362.167,471.5 359.5,471.5C 359.5,474.167 359.5,476.833 359.5,479.5C 356.833,479.5 354.167,479.5 351.5,479.5C 351.5,476.833 351.5,474.167 351.5,471.5C 340.833,471.5 330.167,471.5 319.5,471.5C 319.5,479.5 319.5,487.5 319.5,495.5C 327.5,495.5 335.5,495.5 343.5,495.5C 343.5,498.167 343.5,500.833 343.5,503.5C 346.167,503.5 348.833,503.5 351.5,503.5C 351.5,506.167 351.5,508.833 351.5,511.5C 356.833,511.5 362.167,511.5 367.5,511.5C 367.5,514.167 367.5,516.833 367.5,519.5C 364.833,519.5 362.167,519.5 359.5,519.5C 359.5,522.167 359.5,524.833 359.5,527.5C 356.833,527.5 354.167,527.5 351.5,527.5C 351.5,524.833 351.5,522.167 351.5,519.5C 343.5,519.5 335.5,519.5 327.5,519.5C 327.5,516.833 327.5,514.167 327.5,511.5C 322.167,511.5 316.833,511.5 311.5,511.5C 311.5,515.167 311.5,518.833 311.5,522.5C 308.833,522.5 306.167,522.5 303.5,522.5C 303.5,524.167 303.5,525.833 303.5,527.5C 308.833,527.5 314.167,527.5 319.5,527.5C 319.5,530.167 319.5,532.833 319.5,535.5C 327.5,535.5 335.5,535.5 343.5,535.5C 343.5,543.5 343.5,551.5 343.5,559.5C 332.833,559.5 322.167,559.5 311.5,559.5C 311.5,562.167 311.5,564.833 311.5,567.5C 310.5,567.5 309.5,567.5 308.5,567.5C 308.5,570.167 308.5,572.833 308.5,575.5C 309.5,575.5 310.5,575.5 311.5,575.5C 311.5,578.167 311.5,580.833 311.5,583.5C 314.167,583.5 316.833,583.5 319.5,583.5C 319.5,586.167 319.5,588.833 319.5,591.5C 323.167,591.5 326.833,591.5 330.5,591.5C 331.02,597.247 332.02,602.914 333.5,608.5C 338.052,609.56 344.052,610.893 351.5,612.5C 351.281,613.675 351.614,614.675 352.5,615.5C 354.831,616.526 356.831,617.86 358.5,619.5C 358.414,620.496 358.748,621.329 359.5,622C 367.923,626.199 375.59,631.366 382.5,637.5C 381.427,639.347 381.427,641.347 382.5,643.5C 382.881,651.958 382.047,660.291 380,668.5C 367.479,707.929 346.646,741.929 317.5,770.5C 313.508,773.831 309.175,776.664 304.5,779C 287.124,783.928 270.124,789.928 253.5,797C 238.706,805.901 223.706,814.568 208.5,823C 194.792,826.789 188.459,821.622 189.5,807.5C 194.309,781.715 203.975,758.049 218.5,736.5C 218.917,737.124 219.584,737.457 220.5,737.5C 221.966,736.865 223.3,736.031 224.5,735C 262.125,688.824 308.458,654.99 363.5,633.5C 365.379,633.607 365.712,633.107 364.5,632C 362.512,631.062 360.512,630.228 358.5,629.5C 357.766,628.292 357.433,626.959 357.5,625.5C 357.5,623.833 357.5,622.167 357.5,620.5C 343.425,616.465 329.758,611.298 316.5,605C 304.593,595.359 297.76,582.859 296,567.5C 286.368,473.523 316.535,395.19 386.5,332.5C 363.922,347.714 343.589,366.047 325.5,387.5C 324.94,384.725 323.273,382.892 320.5,382C 322.735,379.272 323.902,376.106 324,372.5C 333.006,362.662 342.172,352.995 351.5,343.5C 352.96,341.537 354.627,339.704 356.5,338C 362.71,332.951 369.043,328.117 375.5,323.5C 376.583,323.539 377.583,323.873 378.5,324.5C 379.748,322.541 381.415,321.041 383.5,320C 389.022,318.937 394.356,317.27 399.5,315C 402.5,314.333 405.5,314.333 408.5,315C 410.809,317.051 412.976,316.884 415,314.5C 415.49,315.793 415.657,317.127 415.5,318.5C 426.167,318.833 426.167,319.167 415.5,319.5C 415.5,320.5 415.5,321.5 415.5,322.5C 420.833,322.5 426.167,322.5 431.5,322.5C 431.5,321.5 431.5,320.5 431.5,319.5C 434.167,319.5 436.833,319.5 439.5,319.5C 439.5,322.167 439.5,324.833 439.5,327.5C 434.167,327.5 428.833,327.5 423.5,327.5C 423.5,335.5 423.5,343.5 423.5,351.5C 412.833,351.5 402.167,351.5 391.5,351.5C 391.5,348.833 391.5,346.167 391.5,343.5C 387.818,343.335 384.152,343.501 380.5,344C 382.953,345.848 383.953,348.348 383.5,351.5C 380.833,351.5 378.167,351.5 375.5,351.5C 375.5,356.833 375.5,362.167 375.5,367.5C 372.833,367.5 370.167,367.5 367.5,367.5C 367.5,370.167 367.5,372.833 367.5,375.5C 372.833,375.5 378.167,375.5 383.5,375.5C 383.5,378.167 383.5,380.833 383.5,383.5C 388.833,383.5 394.167,383.5 399.5,383.5C 399.5,380.833 399.5,378.167 399.5,375.5C 402.167,375.5 404.833,375.5 407.5,375.5C 407.5,372.833 407.5,370.167 407.5,367.5C 404.833,367.5 402.167,367.5 399.5,367.5C 399.5,364.833 399.5,362.167 399.5,359.5C 404.833,359.5 410.167,359.5 415.5,359.5C 415.5,360.833 415.5,362.167 415.5,363.5C 420.833,363.5 426.167,363.5 431.5,363.5C 431.5,364.833 431.5,366.167 431.5,367.5C 434.167,367.5 436.833,367.5 439.5,367.5C 439.5,362.167 439.5,356.833 439.5,351.5C 436.833,351.5 434.167,351.5 431.5,351.5C 431.5,346.167 431.5,340.833 431.5,335.5C 436.833,335.5 442.167,335.5 447.5,335.5C 447.5,340.833 447.5,346.167 447.5,351.5C 452.833,351.5 458.167,351.5 463.5,351.5C 463.5,362.167 463.5,372.833 463.5,383.5C 466.167,383.5 468.833,383.5 471.5,383.5C 471.5,380.833 471.5,378.167 471.5,375.5C 479.5,375.5 487.5,375.5 495.5,375.5C 495.5,378.167 495.5,380.833 495.5,383.5C 498.167,383.5 500.833,383.5 503.5,383.5C 503.5,386.167 503.5,388.833 503.5,391.5C 502.5,391.5 501.5,391.5 500.5,391.5C 500.5,394.167 500.5,396.833 500.5,399.5C 498.833,399.5 497.167,399.5 495.5,399.5C 495.5,400.5 495.5,401.5 495.5,402.5C 492.833,402.5 490.167,402.5 487.5,402.5C 487.5,398.833 487.5,395.167 487.5,391.5C 484.833,391.5 482.167,391.5 479.5,391.5C 479.5,394.167 479.5,396.833 479.5,399.5C 474.167,399.5 468.833,399.5 463.5,399.5C 463.5,404.833 463.5,410.167 463.5,415.5C 460.833,415.5 458.167,415.5 455.5,415.5C 455.5,412.833 455.5,410.167 455.5,407.5C 452.833,407.5 450.167,407.5 447.5,407.5C 447.5,415.5 447.5,423.5 447.5,431.5C 451.514,431.334 455.514,431.501 459.5,432C 458.587,433.414 458.587,434.914 459.5,436.5 Z"/></g>
<g><path style="opacity:0.388" fill="#3c6985" d="M 847.5,311.5 C 853.559,321.273 859.392,331.273 865,341.5C 867.181,346.526 869.348,351.526 871.5,356.5C 864.603,343.555 857.27,330.721 849.5,318C 848.391,315.953 847.724,313.787 847.5,311.5 Z"/></g>
<g><path style="opacity:0.009" fill="#e8f6f7" d="M 448.5,128.5 C 448.443,129.609 448.11,130.609 447.5,131.5C 421.96,135.383 397.294,142.049 373.5,151.5C 370.699,152.766 367.699,153.599 364.5,154C 363.944,154.383 363.611,154.883 363.5,155.5C 341.731,163.644 321.397,174.311 302.5,187.5C 300.407,188.045 298.407,188.878 296.5,190C 281.966,199.909 268.3,210.743 255.5,222.5C 244.257,231.073 233.923,240.739 224.5,251.5C 205.035,271.957 188.701,294.623 175.5,319.5C 153.46,355.924 138.46,395.258 130.5,437.5C 128.656,442.551 127.656,447.884 127.5,453.5C 126.186,461.999 125.02,470.666 124,479.5C 122.692,508.273 123.692,536.94 127,565.5C 128.193,572.372 129.693,579.038 131.5,585.5C 132.601,595.239 134.935,604.572 138.5,613.5C 147.263,647.021 160.93,678.354 179.5,707.5C 183.075,714.411 187.075,721.078 191.5,727.5C 188.95,727.439 187.45,726.106 187,723.5C 186.617,724.056 186.117,724.389 185.5,724.5C 129.792,640.462 109.625,547.795 125,446.5C 150.984,314.434 224.818,218.601 346.5,159C 379.213,144.622 413.213,134.455 448.5,128.5 Z"/></g>
<g><path style="opacity:1" fill="#04101e" d="M 724.5,330.5 C 728.404,334.648 732.071,338.981 735.5,343.5C 744.985,358.645 752.651,374.645 758.5,391.5C 766.06,421.759 766.394,452.092 759.5,482.5C 761.559,485.193 764.226,486.86 767.5,487.5C 769.86,490.527 772.527,493.194 775.5,495.5C 777.477,498.812 778.977,502.479 780,506.5C 781.309,508.891 782.309,508.891 783,506.5C 783.715,510.442 785.048,514.109 787,517.5C 787.831,523.859 787.664,530.193 786.5,536.5C 785.604,535.494 784.938,535.494 784.5,536.5C 784.623,538.836 784.956,541.169 785.5,543.5C 784.448,543.351 783.448,543.517 782.5,544C 780.667,546.5 778.833,549 777,551.5C 776.667,550.833 776.333,550.167 776,549.5C 775.869,552.371 774.703,554.705 772.5,556.5C 772.833,557.167 773.167,557.833 773.5,558.5C 770.961,561.545 771.294,564.379 774.5,567C 773.934,574.555 772.934,582.055 771.5,589.5C 770.286,592.93 768.786,596.264 767,599.5C 756.927,613.736 743.76,624.069 727.5,630.5C 728.934,626.241 731.934,624.074 736.5,624C 734.876,620.794 735.542,618.128 738.5,616C 736.392,615.64 734.392,614.973 732.5,614C 733.167,613.667 733.833,613.333 734.5,613C 733.354,612.355 732.354,611.522 731.5,610.5C 728.341,612.854 724.675,613.854 720.5,613.5C 731.504,608.68 741.004,601.68 749,592.5C 751.446,588.606 753.612,584.606 755.5,580.5C 755.5,579.833 755.833,579.5 756.5,579.5C 756.706,581.549 757.539,581.883 759,580.5C 759.5,573.508 759.666,566.508 759.5,559.5C 758.127,559.657 756.793,559.49 755.5,559C 756.205,557.443 755.539,556.277 753.5,555.5C 747.01,558.242 741.01,561.742 735.5,566C 727.418,567.216 719.418,568.716 711.5,570.5C 727.052,566.25 741.718,559.75 755.5,551C 761.963,546.213 766.463,540.046 769,532.5C 770.612,522.486 767.446,514.486 759.5,508.5C 759.267,506.938 758.6,505.605 757.5,504.5C 756.48,502.032 754.646,500.365 752,499.5C 751.689,498.258 752.189,497.258 753.5,496.5C 752.147,495.476 751.48,494.143 751.5,492.5C 747.894,492.211 744.394,492.544 741,493.5C 739.559,492.74 738.059,492.074 736.5,491.5C 735.614,490.675 735.281,489.675 735.5,488.5C 725.025,486.186 714.358,484.352 703.5,483C 711.481,481.275 719.481,480.775 727.5,481.5C 727.809,478.654 729.475,477.154 732.5,477C 731.5,476.667 730.5,476.333 729.5,476C 712.836,475.281 701.502,474.781 695.5,474.5C 695.5,473.5 695.5,472.5 695.5,471.5C 692.833,471.5 690.167,471.5 687.5,471.5C 695.323,470.344 703.323,470.177 711.5,471C 721.66,472.21 731.66,474.043 741.5,476.5C 750.713,432.751 743.046,392.418 718.5,355.5C 719.568,354.566 720.901,354.232 722.5,354.5C 723.161,349.452 724.494,349.452 726.5,354.5C 727.947,350.533 730.614,349.533 734.5,351.5C 735.368,356.35 736.368,356.517 737.5,352C 733.971,347.185 730.804,342.019 728,336.5C 726.167,335.333 724.667,333.833 723.5,332C 724.056,331.617 724.389,331.117 724.5,330.5 Z"/></g>
<g><path style="opacity:0.631" fill="#3f6a89" d="M 175.5,319.5 C 167.066,336.701 158.9,354.034 151,371.5C 142.296,394.275 135.63,417.608 131,441.5C 130.51,440.207 130.343,438.873 130.5,437.5C 138.46,395.258 153.46,355.924 175.5,319.5 Z"/></g>
<g><path style="opacity:1" fill="#62aad3" d="M 679.5,327.5 C 691.59,334.967 703.09,343.3 714,352.5C 714.399,352.272 714.565,351.938 714.5,351.5C 715.974,352.436 716.974,353.77 717.5,355.5C 720.294,363.324 722.794,371.324 725,379.5C 727.883,394.103 728.216,408.77 726,423.5C 722.259,434.908 714.759,442.741 703.5,447C 682.649,451.191 661.982,456.191 641.5,462C 627.03,468.151 614.53,476.984 604,488.5C 600.995,492.839 598.828,497.506 597.5,502.5C 597.5,503.167 597.167,503.5 596.5,503.5C 596.541,499.757 595.874,499.59 594.5,503C 591.706,504.586 588.872,506.086 586,507.5C 585.578,510.76 584.078,513.426 581.5,515.5C 582,516.5 582.5,517.5 583,518.5C 586.121,517.289 589.288,517.289 592.5,518.5C 599.776,515.235 607.109,514.902 614.5,517.5C 615.466,515.604 615.799,513.604 615.5,511.5C 619.573,509.982 623.74,508.648 628,507.5C 630.478,508.332 632.978,508.499 635.5,508C 634.542,506.853 634.875,505.853 636.5,505C 669.417,496.886 702.751,495.386 736.5,500.5C 741.466,501.627 746.466,502.627 751.5,503.5C 752.641,504.339 753.974,505.006 755.5,505.5C 756.107,505.376 756.44,505.043 756.5,504.5C 756.833,504.5 757.167,504.5 757.5,504.5C 758.6,505.605 759.267,506.938 759.5,508.5C 759.195,520.944 754.195,531.11 744.5,539C 728.854,550.152 711.521,557.485 692.5,561C 646.97,568.837 601.97,566.671 557.5,554.5C 553.268,552.6 549.601,549.933 546.5,546.5C 550.118,544.056 553.618,541.39 557,538.5C 557.167,537.667 557.333,536.833 557.5,536C 556.992,534.107 555.992,532.607 554.5,531.5C 554.938,531.565 555.272,531.399 555.5,531C 549.649,524.583 542.315,521.75 533.5,522.5C 529.459,522.673 525.459,523.173 521.5,524C 514.643,526.431 507.643,528.265 500.5,529.5C 501.263,528.732 502.263,528.232 503.5,528C 502.167,527.333 502.167,526.667 503.5,526C 502.833,525.667 502.167,525.333 501.5,525C 504.005,523.62 506.005,521.786 507.5,519.5C 517.342,514.197 524.176,506.197 528,495.5C 529.262,487.887 529.762,480.22 529.5,472.5C 530.613,471.054 530.78,469.387 530,467.5C 527.367,461.907 525.033,456.241 523,450.5C 521.989,449.663 520.822,449.33 519.5,449.5C 519.5,448.167 519.5,446.833 519.5,445.5C 518.127,445.657 516.793,445.49 515.5,445C 513.404,443.234 511.071,441.901 508.5,441C 507.167,440.333 507.167,439.667 508.5,439C 509.448,438.517 510.448,438.351 511.5,438.5C 512.244,435.05 510.91,433.384 507.5,433.5C 507.5,434.5 507.5,435.5 507.5,436.5C 503.278,436.922 499.278,436.255 495.5,434.5C 497.869,432.268 500.536,431.935 503.5,433.5C 505.369,432.932 507.203,432.266 509,431.5C 511.024,432.513 512.857,433.846 514.5,435.5C 516.059,434.926 517.559,434.26 519,433.5C 520.775,436.153 522.942,437.153 525.5,436.5C 526.492,436.672 527.158,436.338 527.5,435.5C 526.375,431.521 526.375,427.521 527.5,423.5C 530.167,423.5 532.833,423.5 535.5,423.5C 535.5,415.5 535.5,407.5 535.5,399.5C 532.833,399.5 530.167,399.5 527.5,399.5C 527.5,396.833 527.5,394.167 527.5,391.5C 529.167,391.5 530.833,391.5 532.5,391.5C 532.5,388.833 532.5,386.167 532.5,383.5C 530.833,383.5 529.167,383.5 527.5,383.5C 527.5,378.167 527.5,372.833 527.5,367.5C 530.167,367.5 532.833,367.5 535.5,367.5C 535.281,368.675 535.614,369.675 536.5,370.5C 538.258,368.262 540.592,367.262 543.5,367.5C 543.785,369.288 543.452,370.955 542.5,372.5C 539.71,374.333 540.043,375.333 543.5,375.5C 543.5,378.167 543.5,380.833 543.5,383.5C 546.167,383.5 548.833,383.5 551.5,383.5C 551.5,380.833 551.5,378.167 551.5,375.5C 554.167,375.5 556.833,375.5 559.5,375.5C 559.5,372.833 559.5,370.167 559.5,367.5C 556.833,367.5 554.167,367.5 551.5,367.5C 551.5,363.167 551.5,358.833 551.5,354.5C 554.167,354.5 556.833,354.5 559.5,354.5C 559.5,353.5 559.5,352.5 559.5,351.5C 572.833,351.5 586.167,351.5 599.5,351.5C 599.5,346.167 599.5,340.833 599.5,335.5C 602.167,335.5 604.833,335.5 607.5,335.5C 607.5,332.833 607.5,330.167 607.5,327.5C 612.833,327.5 618.167,327.5 623.5,327.5C 623.5,330.167 623.5,332.833 623.5,335.5C 628.833,335.5 634.167,335.5 639.5,335.5C 639.5,332.833 639.5,330.167 639.5,327.5C 644.833,327.5 650.167,327.5 655.5,327.5C 655.34,325.801 655.506,324.134 656,322.5C 658.228,324.113 660.728,324.78 663.5,324.5C 663.5,325.5 663.5,326.5 663.5,327.5C 665.199,327.66 666.866,327.494 668.5,327C 667.663,325.989 667.33,324.822 667.5,323.5C 673.173,323.963 674.506,326.463 671.5,331C 672.552,335.371 675.218,336.537 679.5,334.5C 677.146,332.754 676.146,330.421 676.5,327.5C 677.5,327.5 678.5,327.5 679.5,327.5 Z"/></g>
<g><path style="opacity:1" fill="#63aad3" d="M 462.5,437.5 C 466.008,434.244 470.008,431.744 474.5,430C 488.15,425.335 501.816,425.335 515.5,430C 519.411,431.444 522.744,433.611 525.5,436.5C 522.942,437.153 520.775,436.153 519,433.5C 517.559,434.26 516.059,434.926 514.5,435.5C 512.857,433.846 511.024,432.513 509,431.5C 507.203,432.266 505.369,432.932 503.5,433.5C 500.536,431.935 497.869,432.268 495.5,434.5C 499.278,436.255 503.278,436.922 507.5,436.5C 507.5,435.5 507.5,434.5 507.5,433.5C 510.91,433.384 512.244,435.05 511.5,438.5C 510.448,438.351 509.448,438.517 508.5,439C 507.167,439.667 507.167,440.333 508.5,441C 511.071,441.901 513.404,443.234 515.5,445C 516.793,445.49 518.127,445.657 519.5,445.5C 519.5,446.833 519.5,448.167 519.5,449.5C 520.822,449.33 521.989,449.663 523,450.5C 525.033,456.241 527.367,461.907 530,467.5C 530.78,469.387 530.613,471.054 529.5,472.5C 523.679,448.829 508.679,437.663 484.5,439C 466.801,446.204 457.468,459.371 456.5,478.5C 456.723,483.514 457.056,488.514 457.5,493.5C 458.056,505.96 463.056,516.627 472.5,525.5C 475.404,527.12 478.404,528.453 481.5,529.5C 481.5,529.833 481.5,530.167 481.5,530.5C 432.953,533.186 395.453,554.853 369,595.5C 364.618,603.249 361.118,611.249 358.5,619.5C 356.831,617.86 354.831,616.526 352.5,615.5C 351.614,614.675 351.281,613.675 351.5,612.5C 344.052,610.893 338.052,609.56 333.5,608.5C 332.02,602.914 331.02,597.247 330.5,591.5C 326.833,591.5 323.167,591.5 319.5,591.5C 319.5,588.833 319.5,586.167 319.5,583.5C 316.833,583.5 314.167,583.5 311.5,583.5C 311.5,580.833 311.5,578.167 311.5,575.5C 310.5,575.5 309.5,575.5 308.5,575.5C 308.5,572.833 308.5,570.167 308.5,567.5C 309.5,567.5 310.5,567.5 311.5,567.5C 311.5,564.833 311.5,562.167 311.5,559.5C 322.167,559.5 332.833,559.5 343.5,559.5C 343.5,551.5 343.5,543.5 343.5,535.5C 335.5,535.5 327.5,535.5 319.5,535.5C 319.5,532.833 319.5,530.167 319.5,527.5C 314.167,527.5 308.833,527.5 303.5,527.5C 303.5,525.833 303.5,524.167 303.5,522.5C 306.167,522.5 308.833,522.5 311.5,522.5C 311.5,518.833 311.5,515.167 311.5,511.5C 316.833,511.5 322.167,511.5 327.5,511.5C 327.5,514.167 327.5,516.833 327.5,519.5C 335.5,519.5 343.5,519.5 351.5,519.5C 351.5,522.167 351.5,524.833 351.5,527.5C 354.167,527.5 356.833,527.5 359.5,527.5C 359.5,524.833 359.5,522.167 359.5,519.5C 362.167,519.5 364.833,519.5 367.5,519.5C 367.5,516.833 367.5,514.167 367.5,511.5C 362.167,511.5 356.833,511.5 351.5,511.5C 351.5,508.833 351.5,506.167 351.5,503.5C 348.833,503.5 346.167,503.5 343.5,503.5C 343.5,500.833 343.5,498.167 343.5,495.5C 335.5,495.5 327.5,495.5 319.5,495.5C 319.5,487.5 319.5,479.5 319.5,471.5C 330.167,471.5 340.833,471.5 351.5,471.5C 351.5,474.167 351.5,476.833 351.5,479.5C 354.167,479.5 356.833,479.5 359.5,479.5C 359.5,476.833 359.5,474.167 359.5,471.5C 362.167,471.5 364.833,471.5 367.5,471.5C 367.5,470.167 367.5,468.833 367.5,467.5C 372.833,467.5 378.167,467.5 383.5,467.5C 383.5,468.833 383.5,470.167 383.5,471.5C 386.167,471.5 388.833,471.5 391.5,471.5C 391.5,466.167 391.5,460.833 391.5,455.5C 388.833,455.5 386.167,455.5 383.5,455.5C 383.5,450.167 383.5,444.833 383.5,439.5C 380.833,439.5 378.167,439.5 375.5,439.5C 375.5,436.833 375.5,434.167 375.5,431.5C 380.833,431.5 386.167,431.5 391.5,431.5C 391.5,428.833 391.5,426.167 391.5,423.5C 394.167,423.5 396.833,423.5 399.5,423.5C 399.5,426.167 399.5,428.833 399.5,431.5C 404.833,431.5 410.167,431.5 415.5,431.5C 415.5,428.833 415.5,426.167 415.5,423.5C 420.833,423.5 426.167,423.5 431.5,423.5C 431.5,420.833 431.5,418.167 431.5,415.5C 435.5,415.5 439.5,415.5 443.5,415.5C 443.5,420.833 443.5,426.167 443.5,431.5C 442.167,431.5 440.833,431.5 439.5,431.5C 439.5,436.833 439.5,442.167 439.5,447.5C 428.833,447.5 418.167,447.5 407.5,447.5C 407.5,450.167 407.5,452.833 407.5,455.5C 418.167,455.5 428.833,455.5 439.5,455.5C 439.5,458.167 439.5,460.833 439.5,463.5C 442.167,463.5 444.833,463.5 447.5,463.5C 447.5,464.5 447.5,465.5 447.5,466.5C 450.167,466.5 452.833,466.5 455.5,466.5C 456.014,464.302 457.014,462.302 458.5,460.5C 458.291,459.914 457.957,459.414 457.5,459C 458.525,456.929 459.358,454.762 460,452.5C 460.414,452.043 460.914,451.709 461.5,451.5C 461.833,452.167 462.167,452.833 462.5,453.5C 463.424,451.61 464.757,450.11 466.5,449C 465.777,446.888 464.777,444.888 463.5,443C 464.505,441.328 465.839,439.995 467.5,439C 465.846,438.392 464.179,437.892 462.5,437.5 Z"/></g>
<g><path style="opacity:1" fill="#316c98" d="M 357.5,625.5 C 345.162,625.333 332.829,625.5 320.5,626C 312.011,627.631 303.678,629.465 295.5,631.5C 295.5,632.5 295.5,633.5 295.5,634.5C 291.582,634.271 287.915,633.271 284.5,631.5C 283.841,634.455 283.508,637.455 283.5,640.5C 279.479,639.495 275.479,639.495 271.5,640.5C 272.833,641.167 274.167,641.833 275.5,642.5C 273.308,643.859 271.641,645.692 270.5,648C 269.216,648.684 268.049,648.517 267,647.5C 266.517,648.448 266.351,649.448 266.5,650.5C 265.5,650.5 264.5,650.5 263.5,650.5C 263.5,651.5 263.5,652.5 263.5,653.5C 261.833,653.5 260.167,653.5 258.5,653.5C 258.719,654.675 258.386,655.675 257.5,656.5C 254.771,658.431 252.438,660.765 250.5,663.5C 247.669,666.682 244.336,669.015 240.5,670.5C 240.5,671.5 240.5,672.5 240.5,673.5C 238.833,673.5 237.167,673.5 235.5,673.5C 235.053,658.135 234.053,642.802 232.5,627.5C 233.882,614.867 234.549,602.2 234.5,589.5C 245.945,513.438 276.278,446.105 325.5,387.5C 343.589,366.047 363.922,347.714 386.5,332.5C 316.535,395.19 286.368,473.523 296,567.5C 297.76,582.859 304.593,595.359 316.5,605C 329.758,611.298 343.425,616.465 357.5,620.5C 357.5,622.167 357.5,623.833 357.5,625.5 Z"/></g>
<g><path style="opacity:1" fill="#b5e3f3" d="M 527.5,435.5 C 527.158,436.338 526.492,436.672 525.5,436.5C 522.744,433.611 519.411,431.444 515.5,430C 501.816,425.335 488.15,425.335 474.5,430C 470.008,431.744 466.008,434.244 462.5,437.5C 460.804,439.129 459.804,438.796 459.5,436.5C 463.956,429.543 469.623,423.71 476.5,419C 498.307,410.193 515.307,415.693 527.5,435.5 Z"/></g>
<g><path style="opacity:0.612" fill="#3f6e8e" d="M 871.5,357.5 C 875.651,365.086 879.151,373.086 882,381.5C 892.578,410.631 899.412,440.631 902.5,471.5C 902.664,474.187 902.497,476.854 902,479.5C 901.667,478.167 901.333,476.833 901,475.5C 899.933,461.272 897.933,447.272 895,433.5C 892.945,423.737 890.612,414.071 888,404.5C 882.189,388.894 876.689,373.227 871.5,357.5 Z"/></g>
<g><path style="opacity:0.999" fill="#04101d" d="M 399.5,250.5 C 412.125,255.313 424.125,261.48 435.5,269C 438.405,268.316 441.405,267.483 444.5,266.5C 447.85,266.665 451.183,266.498 454.5,266C 455.226,264.603 456.393,263.769 458,263.5C 463.852,262.288 469.685,260.955 475.5,259.5C 477.228,259.59 478.894,259.923 480.5,260.5C 483.489,260.186 485.822,258.852 487.5,256.5C 492.96,255.021 498.46,253.688 504,252.5C 505.167,252.667 506.333,252.833 507.5,253C 506.062,253.219 504.729,253.719 503.5,254.5C 503.833,254.833 504.167,255.167 504.5,255.5C 508.955,252.893 513.621,252.226 518.5,253.5C 523.992,252.214 529.659,251.547 535.5,251.5C 554.341,252.966 573.007,254.3 591.5,255.5C 603.278,257.276 614.611,260.276 625.5,264.5C 623.952,264.821 623.285,265.821 623.5,267.5C 628.984,268.034 634.318,269.034 639.5,270.5C 640.446,274.335 642.779,275.335 646.5,273.5C 647.386,274.325 647.719,275.325 647.5,276.5C 651.325,277.074 654.991,278.241 658.5,280C 659.141,282.13 660.474,283.63 662.5,284.5C 663.192,283.975 663.692,283.308 664,282.5C 666.734,283.362 666.901,284.195 664.5,285C 665.99,286.772 667.657,286.939 669.5,285.5C 671.173,287.086 673.173,287.753 675.5,287.5C 681.332,290.916 686.999,294.582 692.5,298.5C 704.188,308.188 714.854,318.854 724.5,330.5C 724.389,331.117 724.056,331.617 723.5,332C 724.667,333.833 726.167,335.333 728,336.5C 730.804,342.019 733.971,347.185 737.5,352C 736.368,356.517 735.368,356.35 734.5,351.5C 730.614,349.533 727.947,350.533 726.5,354.5C 724.494,349.452 723.161,349.452 722.5,354.5C 720.901,354.232 719.568,354.566 718.5,355.5C 718.167,355.5 717.833,355.5 717.5,355.5C 716.974,353.77 715.974,352.436 714.5,351.5C 706.823,340.314 697.823,330.147 687.5,321C 649.267,290.526 605.601,273.693 556.5,270.5C 549.675,269.834 542.675,269.5 535.5,269.5C 525.616,269.292 515.949,269.958 506.5,271.5C 462.411,276.857 422.077,291.857 385.5,316.5C 382.129,318.846 378.796,321.179 375.5,323.5C 369.043,328.117 362.71,332.951 356.5,338C 354.627,339.704 352.96,341.537 351.5,343.5C 344.474,348.591 337.974,354.258 332,360.5C 272.715,425.109 239.548,501.443 232.5,589.5C 229.068,619.524 230.068,649.524 235.5,679.5C 253.841,660.159 275.174,644.993 299.5,634C 318.729,626.086 338.396,624.586 358.5,629.5C 360.512,630.228 362.512,631.062 364.5,632C 365.712,633.107 365.379,633.607 363.5,633.5C 341.637,634.55 321.304,640.717 302.5,652C 267.622,673.378 239.622,701.545 218.5,736.5C 203.975,758.049 194.309,781.715 189.5,807.5C 186.799,817.137 186.966,826.804 190,836.5C 193.18,842.234 198.013,844.067 204.5,842C 208.953,840.274 213.286,838.274 217.5,836C 236.075,822.38 256.075,811.38 277.5,803C 290.927,799.768 304.427,796.935 318,794.5C 334.626,784.207 348.293,770.874 359,754.5C 371.769,733.877 380.435,711.544 385,687.5C 385.936,672.587 385.103,657.92 382.5,643.5C 381.427,641.347 381.427,639.347 382.5,637.5C 389.433,643.103 394.433,650.103 397.5,658.5C 400.073,666.102 401.406,673.935 401.5,682C 400.051,716.715 388.885,747.882 368,775.5C 369.883,800.366 375.55,824.366 385,847.5C 389.512,857.855 394.012,868.188 398.5,878.5C 394.954,877.041 391.288,875.874 387.5,875C 386.058,874.623 385.058,873.79 384.5,872.5C 372.08,845.966 362.746,818.3 356.5,789.5C 346.299,800.946 333.966,809.446 319.5,815C 308.587,816.293 297.92,818.46 287.5,821.5C 277.777,824.245 268.444,828.078 259.5,833C 245.658,842.091 231.325,850.424 216.5,858C 189.148,867.736 172.981,858.236 168,829.5C 168.534,795.328 177.701,763.661 195.5,734.5C 201.318,724.203 207.651,714.203 214.5,704.5C 215.637,703.211 216.97,702.211 218.5,701.5C 219.404,700.791 219.737,699.791 219.5,698.5C 222.462,698.883 223.462,697.883 222.5,695.5C 221.808,696.025 221.308,696.692 221,697.5C 218.936,693.136 217.936,688.47 218,683.5C 215.479,678.872 214.646,674.039 215.5,669C 212.25,645.022 211.917,621.022 214.5,597C 214.294,595.634 213.96,594.301 213.5,593C 214.057,583.108 215.057,574.608 216.5,567.5C 217.833,567.5 219.167,567.5 220.5,567.5C 220.5,564.833 220.5,562.167 220.5,559.5C 221.5,559.5 222.5,559.5 223.5,559.5C 223.66,557.801 223.494,556.134 223,554.5C 220.577,557.206 219.41,556.539 219.5,552.5C 219.682,548.414 220.682,544.581 222.5,541C 222.048,535.594 222.048,530.094 222.5,524.5C 224.411,513.186 227.411,502.186 231.5,491.5C 232.117,491.389 232.617,491.056 233,490.5C 233.333,491.833 233.667,493.167 234,494.5C 234.231,490.416 234.898,486.416 236,482.5C 238.178,479.137 239.678,475.471 240.5,471.5C 241.478,471.023 242.311,470.357 243,469.5C 243.591,466.725 244.758,464.225 246.5,462C 247.291,456.804 248.791,451.97 251,447.5C 251.972,445.695 253.139,444.028 254.5,442.5C 253.873,441.583 253.539,440.583 253.5,439.5C 256.767,432.466 260.434,425.633 264.5,419C 262.039,413.251 261.872,407.418 264,401.5C 271.506,389.313 278.173,376.646 284,363.5C 290.617,348.235 290.951,332.901 285,317.5C 280.492,310.487 276.492,303.153 273,295.5C 271.738,290.213 271.404,284.88 272,279.5C 277.473,260.194 289.973,248.194 309.5,243.5C 322.817,241.833 336.15,241.166 349.5,241.5C 356.178,242.224 362.845,243.057 369.5,244C 369.844,245.661 371.177,246.827 373.5,247.5C 375.029,247.471 376.196,246.804 377,245.5C 384.399,247.613 391.899,249.28 399.5,250.5 Z"/></g>
<g><path style="opacity:1" fill="#436e91" d="M 300.5,277.5 C 300.447,280.14 299.78,282.64 298.5,285C 301.259,287.413 301.092,289.58 298,291.5C 297.988,287.015 296.822,286.515 294.5,290C 297.337,296.832 301.004,303.165 305.5,309C 310.81,325.209 311.81,341.709 308.5,358.5C 308.942,359.739 309.609,360.739 310.5,361.5C 308.217,364.956 305.717,368.29 303,371.5C 302.833,370.833 302.667,370.167 302.5,369.5C 310.73,351.158 311.563,332.491 305,313.5C 300.124,305.081 295.791,296.414 292,287.5C 291.199,284.633 291.366,281.966 292.5,279.5C 292.56,280.043 292.893,280.376 293.5,280.5C 295.739,279.212 298.072,278.212 300.5,277.5 Z"/></g>
<g><path style="opacity:1" fill="#badfee" d="M 556.5,270.5 C 605.601,273.693 649.267,290.526 687.5,321C 697.823,330.147 706.823,340.314 714.5,351.5C 714.565,351.938 714.399,352.272 714,352.5C 703.09,343.3 691.59,334.967 679.5,327.5C 670.857,321.841 661.857,316.674 652.5,312C 605.244,289.817 555.577,281.15 503.5,286C 462.958,291.461 423.958,302.294 386.5,318.5C 385.702,318.043 385.369,317.376 385.5,316.5C 422.077,291.857 462.411,276.857 506.5,271.5C 523.151,270.647 539.818,270.313 556.5,270.5 Z"/></g>
<g><path style="opacity:1" fill="#33688d" d="M 396.5,289.5 C 380.029,299.296 364.363,310.296 349.5,322.5C 349.281,321.325 349.614,320.325 350.5,319.5C 355.126,316.542 359.126,312.876 362.5,308.5C 367.647,305.122 372.98,302.122 378.5,299.5C 378.351,298.448 378.517,297.448 379,296.5C 383.523,295.153 387.023,292.486 389.5,288.5C 385.673,286.324 381.673,285.99 377.5,287.5C 377.5,286.5 377.5,285.5 377.5,284.5C 375.436,284.687 373.436,285.187 371.5,286C 371.833,286.333 372.167,286.667 372.5,287C 368.179,287.499 363.846,287.666 359.5,287.5C 359.5,284.833 359.5,282.167 359.5,279.5C 351.493,279.666 343.493,279.5 335.5,279C 340.889,278.493 346.223,277.66 351.5,276.5C 347.329,274.987 342.996,274.321 338.5,274.5C 331.473,275.372 324.473,275.372 317.5,274.5C 312.273,276.141 306.939,277.141 301.5,277.5C 302.842,276.207 304.509,275.374 306.5,275C 338.325,269.058 368.325,273.892 396.5,289.5 Z"/></g>
<g><path style="opacity:1" fill="#bbdfed" d="M 396.5,289.5 C 368.325,273.892 338.325,269.058 306.5,275C 304.509,275.374 302.842,276.207 301.5,277.5C 301.167,277.5 300.833,277.5 300.5,277.5C 298.072,278.212 295.739,279.212 293.5,280.5C 292.893,280.376 292.56,280.043 292.5,279.5C 297.24,270.604 304.573,264.771 314.5,262C 349.427,254.488 382.093,260.155 412.5,279C 413.711,279.893 413.711,280.726 412.5,281.5C 407.114,284.193 401.78,286.86 396.5,289.5 Z"/></g>
<g><path style="opacity:1" fill="#316c97" d="M 349.5,322.5 C 343.363,328.467 337.03,334.301 330.5,340C 323.939,347.39 317.272,354.556 310.5,361.5C 309.609,360.739 308.942,359.739 308.5,358.5C 311.81,341.709 310.81,325.209 305.5,309C 301.004,303.165 297.337,296.832 294.5,290C 296.822,286.515 297.988,287.015 298,291.5C 301.092,289.58 301.259,287.413 298.5,285C 299.78,282.64 300.447,280.14 300.5,277.5C 300.833,277.5 301.167,277.5 301.5,277.5C 306.939,277.141 312.273,276.141 317.5,274.5C 324.473,275.372 331.473,275.372 338.5,274.5C 342.996,274.321 347.329,274.987 351.5,276.5C 346.223,277.66 340.889,278.493 335.5,279C 343.493,279.5 351.493,279.666 359.5,279.5C 359.5,282.167 359.5,284.833 359.5,287.5C 363.846,287.666 368.179,287.499 372.5,287C 372.167,286.667 371.833,286.333 371.5,286C 373.436,285.187 375.436,284.687 377.5,284.5C 377.5,285.5 377.5,286.5 377.5,287.5C 381.673,285.99 385.673,286.324 389.5,288.5C 387.023,292.486 383.523,295.153 379,296.5C 378.517,297.448 378.351,298.448 378.5,299.5C 372.98,302.122 367.647,305.122 362.5,308.5C 359.126,312.876 355.126,316.542 350.5,319.5C 349.614,320.325 349.281,321.325 349.5,322.5 Z"/></g>
<g><path style="opacity:1" fill="#94a7b1" d="M 556.5,270.5 C 539.818,270.313 523.151,270.647 506.5,271.5C 515.949,269.958 525.616,269.292 535.5,269.5C 542.675,269.5 549.675,269.834 556.5,270.5 Z"/></g>
<g><path style="opacity:1" fill="#326c98" d="M 717.5,355.5 C 717.833,355.5 718.167,355.5 718.5,355.5C 743.046,392.418 750.713,432.751 741.5,476.5C 731.66,474.043 721.66,472.21 711.5,471C 703.323,470.177 695.323,470.344 687.5,471.5C 654.42,473.524 624.42,483.858 597.5,502.5C 598.828,497.506 600.995,492.839 604,488.5C 614.53,476.984 627.03,468.151 641.5,462C 661.982,456.191 682.649,451.191 703.5,447C 714.759,442.741 722.259,434.908 726,423.5C 728.216,408.77 727.883,394.103 725,379.5C 722.794,371.324 720.294,363.324 717.5,355.5 Z"/></g>
<g><path style="opacity:1" fill="#04101c" d="M 529.5,472.5 C 529.762,480.22 529.262,487.887 528,495.5C 524.176,506.197 517.342,514.197 507.5,519.5C 503.647,521.005 499.647,522.005 495.5,522.5C 482.82,522.744 472.653,517.744 465,507.5C 462.726,502.613 460.226,497.946 457.5,493.5C 457.056,488.514 456.723,483.514 456.5,478.5C 457.468,459.371 466.801,446.204 484.5,439C 508.679,437.663 523.679,448.829 529.5,472.5 Z"/></g>
<g><path style="opacity:1" fill="#f6f6f5" d="M 486.5,453.5 C 501.019,452.862 506.186,459.529 502,473.5C 493.454,483.355 485.787,482.688 479,471.5C 477.089,463.601 479.589,457.601 486.5,453.5 Z"/></g>
<g><path style="opacity:1" fill="#06152d" d="M 253.5,439.5 C 253.539,440.583 253.873,441.583 254.5,442.5C 253.139,444.028 251.972,445.695 251,447.5C 248.791,451.97 247.291,456.804 246.5,462C 244.758,464.225 243.591,466.725 243,469.5C 242.311,470.357 241.478,471.023 240.5,471.5C 239.678,475.471 238.178,479.137 236,482.5C 234.898,486.416 234.231,490.416 234,494.5C 233.667,493.167 233.333,491.833 233,490.5C 232.617,491.056 232.117,491.389 231.5,491.5C 237.201,473.436 244.534,456.103 253.5,439.5 Z"/></g>
<g><path style="opacity:1" fill="#6eaed5" d="M 351.5,343.5 C 342.172,352.995 333.006,362.662 324,372.5C 323.902,376.106 322.735,379.272 320.5,382C 323.273,382.892 324.94,384.725 325.5,387.5C 276.278,446.105 245.945,513.438 234.5,589.5C 233.691,591.292 233.191,593.292 233,595.5C 232.505,593.527 232.338,591.527 232.5,589.5C 239.548,501.443 272.715,425.109 332,360.5C 337.974,354.258 344.474,348.591 351.5,343.5 Z"/></g>
<g><path style="opacity:1" fill="#517ca2" d="M 758.5,391.5 C 759.751,393.382 760.918,395.382 762,397.5C 767.554,425.76 767.388,453.927 761.5,482C 763.001,483.252 764.668,484.252 766.5,485C 767.252,485.671 767.586,486.504 767.5,487.5C 764.226,486.86 761.559,485.193 759.5,482.5C 766.394,452.092 766.06,421.759 758.5,391.5 Z"/></g>
<g><path style="opacity:1" fill="#050f1a" d="M 687.5,471.5 C 690.167,471.5 692.833,471.5 695.5,471.5C 695.5,472.5 695.5,473.5 695.5,474.5C 701.502,474.781 712.836,475.281 729.5,476C 730.5,476.333 731.5,476.667 732.5,477C 729.475,477.154 727.809,478.654 727.5,481.5C 719.481,480.775 711.481,481.275 703.5,483C 714.358,484.352 725.025,486.186 735.5,488.5C 735.281,489.675 735.614,490.675 736.5,491.5C 738.059,492.074 739.559,492.74 741,493.5C 744.394,492.544 747.894,492.211 751.5,492.5C 751.48,494.143 752.147,495.476 753.5,496.5C 752.189,497.258 751.689,498.258 752,499.5C 754.646,500.365 756.48,502.032 757.5,504.5C 757.167,504.5 756.833,504.5 756.5,504.5C 743.749,495.134 729.415,489.634 713.5,488C 675.152,484.637 638.819,491.471 604.5,508.5C 600.503,509.603 596.836,511.269 593.5,513.5C 590.183,514.675 586.85,515.508 583.5,516C 587.676,511.657 592.009,507.491 596.5,503.5C 597.167,503.5 597.5,503.167 597.5,502.5C 624.42,483.858 654.42,473.524 687.5,471.5 Z"/></g>
<g><path style="opacity:1" fill="#050f1c" d="M 429.5,480.5 C 435.717,480.538 439.884,483.538 442,489.5C 442.826,494.589 442.492,499.589 441,504.5C 437.265,509.848 432.765,510.681 427.5,507C 422.37,500.889 421.203,494.055 424,486.5C 425.36,483.977 427.193,481.977 429.5,480.5 Z"/></g>
<g><path style="opacity:1" fill="#bad9e5" d="M 756.5,504.5 C 756.44,505.043 756.107,505.376 755.5,505.5C 753.974,505.006 752.641,504.339 751.5,503.5C 749.562,501.837 747.228,501.171 744.5,501.5C 744.67,500.178 744.337,499.011 743.5,498C 738.609,496.258 733.609,494.758 728.5,493.5C 727.216,494.585 725.716,495.252 724,495.5C 718.744,494.064 713.411,492.731 708,491.5C 696.737,492.45 685.571,492.45 674.5,491.5C 667.491,492.62 660.491,493.787 653.5,495C 651.363,497.493 648.863,497.993 646,496.5C 638.619,498.94 631.119,500.94 623.5,502.5C 619.87,505.841 615.536,507.341 610.5,507C 608.666,509.129 606.666,509.629 604.5,508.5C 638.819,491.471 675.152,484.637 713.5,488C 729.415,489.634 743.749,495.134 756.5,504.5 Z"/></g>
<g><path style="opacity:1" fill="#b7e3f2" d="M 751.5,503.5 C 746.466,502.627 741.466,501.627 736.5,500.5C 717.891,495.984 698.891,494.484 679.5,496C 671.528,497.179 663.528,498.179 655.5,499C 634.962,503.009 614.795,508.176 595,514.5C 594.235,514.43 593.735,514.097 593.5,513.5C 596.836,511.269 600.503,509.603 604.5,508.5C 606.666,509.629 608.666,509.129 610.5,507C 615.536,507.341 619.87,505.841 623.5,502.5C 631.119,500.94 638.619,498.94 646,496.5C 648.863,497.993 651.363,497.493 653.5,495C 660.491,493.787 667.491,492.62 674.5,491.5C 685.571,492.45 696.737,492.45 708,491.5C 713.411,492.731 718.744,494.064 724,495.5C 725.716,495.252 727.216,494.585 728.5,493.5C 733.609,494.758 738.609,496.258 743.5,498C 744.337,499.011 744.67,500.178 744.5,501.5C 747.228,501.171 749.562,501.837 751.5,503.5 Z"/></g>
<g><path style="opacity:1" fill="#69a8c9" d="M 736.5,500.5 C 702.751,495.386 669.417,496.886 636.5,505C 634.875,505.853 634.542,506.853 635.5,508C 632.978,508.499 630.478,508.332 628,507.5C 623.74,508.648 619.573,509.982 615.5,511.5C 615.799,513.604 615.466,515.604 614.5,517.5C 607.109,514.902 599.776,515.235 592.5,518.5C 589.288,517.289 586.121,517.289 583,518.5C 582.5,517.5 582,516.5 581.5,515.5C 584.078,513.426 585.578,510.76 586,507.5C 588.872,506.086 591.706,504.586 594.5,503C 595.874,499.59 596.541,499.757 596.5,503.5C 592.009,507.491 587.676,511.657 583.5,516C 586.85,515.508 590.183,514.675 593.5,513.5C 593.735,514.097 594.235,514.43 595,514.5C 614.795,508.176 634.962,503.009 655.5,499C 663.528,498.179 671.528,497.179 679.5,496C 698.891,494.484 717.891,495.984 736.5,500.5 Z"/></g>
<g><path style="opacity:1" fill="#346b96" d="M 457.5,493.5 C 460.226,497.946 462.726,502.613 465,507.5C 472.653,517.744 482.82,522.744 495.5,522.5C 493.031,523.317 490.365,523.817 487.5,524C 487.833,524.333 488.167,524.667 488.5,525C 485.258,525.283 484.924,526.117 487.5,527.5C 485.696,528.768 483.696,529.435 481.5,529.5C 478.404,528.453 475.404,527.12 472.5,525.5C 463.056,516.627 458.056,505.96 457.5,493.5 Z"/></g>
<g><path style="opacity:1" fill="#05162d" d="M 775.5,495.5 C 789.706,509.197 793.04,525.197 785.5,543.5C 784.956,541.169 784.623,538.836 784.5,536.5C 784.938,535.494 785.604,535.494 786.5,536.5C 787.664,530.193 787.831,523.859 787,517.5C 785.048,514.109 783.715,510.442 783,506.5C 782.309,508.891 781.309,508.891 780,506.5C 778.977,502.479 777.477,498.812 775.5,495.5 Z"/></g>
<g><path style="opacity:0.357" fill="#d9f0ee" d="M 903.5,479.5 C 904.675,483.734 906.341,487.734 908.5,491.5C 909.015,507.949 908.348,524.283 906.5,540.5C 905.732,539.737 905.232,538.737 905,537.5C 903.924,551.62 902.257,565.954 900,580.5C 898.482,585.016 896.982,589.349 895.5,593.5C 903.268,556.878 905.935,519.878 903.5,482.5C 903.5,481.5 903.5,480.5 903.5,479.5 Z"/></g>
<g><path style="opacity:1" fill="#4d89b1" d="M 507.5,519.5 C 506.005,521.786 504.005,523.62 501.5,525C 502.167,525.333 502.833,525.667 503.5,526C 502.167,526.667 502.167,527.333 503.5,528C 502.263,528.232 501.263,528.732 500.5,529.5C 494.355,530.49 488.022,530.823 481.5,530.5C 481.5,530.167 481.5,529.833 481.5,529.5C 483.696,529.435 485.696,528.768 487.5,527.5C 484.924,526.117 485.258,525.283 488.5,525C 488.167,524.667 487.833,524.333 487.5,524C 490.365,523.817 493.031,523.317 495.5,522.5C 499.647,522.005 503.647,521.005 507.5,519.5 Z"/></g>
<g><path style="opacity:0.639" fill="#3d6a8b" d="M 127.5,453.5 C 126.512,470.806 125.512,488.14 124.5,505.5C 124.945,518.169 125.445,530.836 126,543.5C 127.672,557.548 129.506,571.548 131.5,585.5C 129.693,579.038 128.193,572.372 127,565.5C 123.692,536.94 122.692,508.273 124,479.5C 125.02,470.666 126.186,461.999 127.5,453.5 Z"/></g>
<g><path style="opacity:1" fill="#346b95" d="M 759.5,508.5 C 767.446,514.486 770.612,522.486 769,532.5C 766.463,540.046 761.963,546.213 755.5,551C 741.718,559.75 727.052,566.25 711.5,570.5C 681.443,576.704 651.109,578.204 620.5,575C 603.277,572.528 586.61,568.195 570.5,562C 566.072,559.459 561.738,556.959 557.5,554.5C 601.97,566.671 646.97,568.837 692.5,561C 711.521,557.485 728.854,550.152 744.5,539C 754.195,531.11 759.195,520.944 759.5,508.5 Z"/></g>
<g><path style="opacity:1" fill="#051329" d="M 222.5,524.5 C 222.048,530.094 222.048,535.594 222.5,541C 220.682,544.581 219.682,548.414 219.5,552.5C 219.41,556.539 220.577,557.206 223,554.5C 223.494,556.134 223.66,557.801 223.5,559.5C 222.5,559.5 221.5,559.5 220.5,559.5C 220.5,562.167 220.5,564.833 220.5,567.5C 219.167,567.5 217.833,567.5 216.5,567.5C 215.057,574.608 214.057,583.108 213.5,593C 213.96,594.301 214.294,595.634 214.5,597C 211.917,621.022 212.25,645.022 215.5,669C 214.646,674.039 215.479,678.872 218,683.5C 217.936,688.47 218.936,693.136 221,697.5C 221.308,696.692 221.808,696.025 222.5,695.5C 223.462,697.883 222.462,698.883 219.5,698.5C 219.737,699.791 219.404,700.791 218.5,701.5C 216.322,688.686 213.988,676.02 211.5,663.5C 210.524,639.507 210.357,615.507 211,591.5C 212.83,578.195 214.33,564.862 215.5,551.5C 217.627,542.451 219.96,533.451 222.5,524.5 Z"/></g>
<g><path style="opacity:1" fill="#06101b" d="M 554.5,531.5 C 555.992,532.607 556.992,534.107 557.5,536C 557.333,536.833 557.167,537.667 557,538.5C 553.618,541.39 550.118,544.056 546.5,546.5C 549.601,549.933 553.268,552.6 557.5,554.5C 561.738,556.959 566.072,559.459 570.5,562C 586.61,568.195 603.277,572.528 620.5,575C 651.109,578.204 681.443,576.704 711.5,570.5C 719.418,568.716 727.418,567.216 735.5,566C 741.01,561.742 747.01,558.242 753.5,555.5C 755.539,556.277 756.205,557.443 755.5,559C 756.793,559.49 758.127,559.657 759.5,559.5C 759.666,566.508 759.5,573.508 759,580.5C 757.539,581.883 756.706,581.549 756.5,579.5C 758,575.874 758.333,572.208 757.5,568.5C 740.985,578.911 722.985,585.744 703.5,589C 652.654,598.679 603.654,593.012 556.5,572C 548.548,567.445 541.048,562.278 534,556.5C 528.594,561.908 523.927,567.908 520,574.5C 516.085,576.289 513.752,574.956 513,570.5C 511.38,562.698 513.047,555.698 518,549.5C 527.353,537.74 539.52,531.74 554.5,531.5 Z"/></g>
<g><path style="opacity:1" fill="#051229" d="M 785.5,543.5 C 782.432,549.401 778.766,554.901 774.5,560C 775.612,566.795 775.778,573.629 775,580.5C 774.881,584.005 773.714,587.005 771.5,589.5C 772.934,582.055 773.934,574.555 774.5,567C 771.294,564.379 770.961,561.545 773.5,558.5C 773.167,557.833 772.833,557.167 772.5,556.5C 774.703,554.705 775.869,552.371 776,549.5C 776.333,550.167 776.667,550.833 777,551.5C 778.833,549 780.667,546.5 782.5,544C 783.448,543.517 784.448,543.351 785.5,543.5 Z"/></g>
<g><path style="opacity:0.639" fill="#3c6c8e" d="M 903.5,482.5 C 905.935,519.878 903.268,556.878 895.5,593.5C 893.764,602.444 891.097,611.111 887.5,619.5C 890.732,605.498 893.898,591.498 897,577.5C 898.321,566.632 899.821,555.799 901.5,545C 900.898,541.874 900.565,538.707 900.5,535.5C 901.934,517.702 902.934,500.036 903.5,482.5 Z"/></g>
<g><path style="opacity:1" fill="#477aa5" d="M 215.5,551.5 C 214.33,564.862 212.83,578.195 211,591.5C 210.357,615.507 210.524,639.507 211.5,663.5C 210.228,660.033 209.228,656.366 208.5,652.5C 205.928,618.874 207.762,585.54 214,552.5C 214.383,551.944 214.883,551.611 215.5,551.5 Z"/></g>
<g><path style="opacity:1" fill="#57707f" d="M 655.5,637.5 C 661.842,637.334 668.175,637.5 674.5,638C 673.956,638.717 673.289,639.217 672.5,639.5C 666.833,638.833 661.167,638.167 655.5,637.5 Z"/></g>
<g><path style="opacity:1" fill="#bae0f0" d="M 363.5,633.5 C 308.458,654.99 262.125,688.824 224.5,735C 223.3,736.031 221.966,736.865 220.5,737.5C 219.584,737.457 218.917,737.124 218.5,736.5C 239.622,701.545 267.622,673.378 302.5,652C 321.304,640.717 341.637,634.55 363.5,633.5 Z"/></g>
<g><path style="opacity:1" fill="#76a9bd" d="M 755.5,580.5 C 753.612,584.606 751.446,588.606 749,592.5C 741.004,601.68 731.504,608.68 720.5,613.5C 709.659,617.198 698.659,619.865 687.5,621.5C 676.852,622.277 666.185,622.61 655.5,622.5C 639.959,622.474 624.626,620.641 609.5,617C 596.636,613.29 583.969,609.29 571.5,605C 589.198,620.847 609.865,630.847 633.5,635C 640.783,636.327 648.116,637.16 655.5,637.5C 661.167,638.167 666.833,638.833 672.5,639.5C 645.1,655.606 615.433,664.773 583.5,667C 566.482,667.523 549.482,667.523 532.5,667C 544.115,672.887 556.448,676.554 569.5,678C 605.425,681.204 639.592,675.037 672,659.5C 672.667,660.833 672.667,662.167 672,663.5C 656.69,698.448 643.357,734.115 632,770.5C 623.696,803.544 621.196,837.044 624.5,871C 624.525,873.929 625.191,876.429 626.5,878.5C 615.615,881.118 604.615,883.784 593.5,886.5C 589.209,831.476 597.376,778.476 618,727.5C 620.655,719.788 618.155,715.121 610.5,713.5C 598.949,716.777 587.282,719.611 575.5,722C 550.558,725.012 527.225,720.345 505.5,708C 502.354,705.688 499.354,703.188 496.5,700.5C 493.534,694.859 493.867,689.525 497.5,684.5C 478.323,675.656 463.657,661.989 453.5,643.5C 452.319,641.802 452.319,640.135 453.5,638.5C 482.279,650.516 512.279,655.016 543.5,652C 564.428,650.555 584.428,645.555 603.5,637C 583.847,626.346 568.514,611.346 557.5,592C 557.833,591.5 558.167,591 558.5,590.5C 581.47,601.762 605.803,608.262 631.5,610C 661.514,612.455 690.847,609.455 719.5,601C 727.708,597.898 735.708,594.231 743.5,590C 747.57,587.053 751.07,583.553 754,579.5C 754.383,580.056 754.883,580.389 755.5,580.5 Z"/></g>
<g><path style="opacity:1" fill="#416c90" d="M 232.5,589.5 C 232.338,591.527 232.505,593.527 233,595.5C 233.191,593.292 233.691,591.292 234.5,589.5C 234.549,602.2 233.882,614.867 232.5,627.5C 234.053,642.802 235.053,658.135 235.5,673.5C 237.167,673.5 238.833,673.5 240.5,673.5C 240.5,672.5 240.5,671.5 240.5,670.5C 244.336,669.015 247.669,666.682 250.5,663.5C 252.438,660.765 254.771,658.431 257.5,656.5C 258.386,655.675 258.719,654.675 258.5,653.5C 260.167,653.5 261.833,653.5 263.5,653.5C 263.5,652.5 263.5,651.5 263.5,650.5C 264.5,650.5 265.5,650.5 266.5,650.5C 266.351,649.448 266.517,648.448 267,647.5C 268.049,648.517 269.216,648.684 270.5,648C 271.641,645.692 273.308,643.859 275.5,642.5C 274.167,641.833 272.833,641.167 271.5,640.5C 275.479,639.495 279.479,639.495 283.5,640.5C 283.508,637.455 283.841,634.455 284.5,631.5C 287.915,633.271 291.582,634.271 295.5,634.5C 295.5,633.5 295.5,632.5 295.5,631.5C 303.678,629.465 312.011,627.631 320.5,626C 332.829,625.5 345.162,625.333 357.5,625.5C 357.433,626.959 357.766,628.292 358.5,629.5C 338.396,624.586 318.729,626.086 299.5,634C 275.174,644.993 253.841,660.159 235.5,679.5C 230.068,649.524 229.068,619.524 232.5,589.5 Z"/></g>
<g><path style="opacity:1" fill="#b9dbe7" d="M 554.5,531.5 C 539.52,531.74 527.353,537.74 518,549.5C 513.047,555.698 511.38,562.698 513,570.5C 513.752,574.956 516.085,576.289 520,574.5C 523.927,567.908 528.594,561.908 534,556.5C 541.048,562.278 548.548,567.445 556.5,572C 603.654,593.012 652.654,598.679 703.5,589C 722.985,585.744 740.985,578.911 757.5,568.5C 758.333,572.208 758,575.874 756.5,579.5C 755.833,579.5 755.5,579.833 755.5,580.5C 754.883,580.389 754.383,580.056 754,579.5C 751.07,583.553 747.57,587.053 743.5,590C 735.708,594.231 727.708,597.898 719.5,601C 690.847,609.455 661.514,612.455 631.5,610C 605.803,608.262 581.47,601.762 558.5,590.5C 558.167,591 557.833,591.5 557.5,592C 568.514,611.346 583.847,626.346 603.5,637C 584.428,645.555 564.428,650.555 543.5,652C 512.279,655.016 482.279,650.516 453.5,638.5C 452.319,640.135 452.319,641.802 453.5,643.5C 463.657,661.989 478.323,675.656 497.5,684.5C 493.867,689.525 493.534,694.859 496.5,700.5C 499.354,703.188 502.354,705.688 505.5,708C 527.225,720.345 550.558,725.012 575.5,722C 587.282,719.611 598.949,716.777 610.5,713.5C 618.155,715.121 620.655,719.788 618,727.5C 597.376,778.476 589.209,831.476 593.5,886.5C 539.253,896.847 484.92,897.013 430.5,887C 427.896,886.61 425.562,885.776 423.5,884.5C 424.043,884.44 424.376,884.107 424.5,883.5C 413.75,860.166 406.25,835.833 402,810.5C 400.701,800.193 400.368,789.859 401,779.5C 403.35,762.066 406.35,744.732 410,727.5C 414.029,703.995 410.696,681.662 400,660.5C 399.292,659.619 398.458,658.953 397.5,658.5C 394.433,650.103 389.433,643.103 382.5,637.5C 375.59,631.366 367.923,626.199 359.5,622C 358.748,621.329 358.414,620.496 358.5,619.5C 361.118,611.249 364.618,603.249 369,595.5C 395.453,554.853 432.953,533.186 481.5,530.5C 488.022,530.823 494.355,530.49 500.5,529.5C 507.643,528.265 514.643,526.431 521.5,524C 525.459,523.173 529.459,522.673 533.5,522.5C 542.315,521.75 549.649,524.583 555.5,531C 555.272,531.399 554.938,531.565 554.5,531.5 Z"/></g>
<g><path style="opacity:0.986" fill="#3a6f97" d="M 138.5,613.5 C 143.071,626.042 147.571,638.708 152,651.5C 153.153,654.47 154.82,657.137 157,659.5C 157.333,658.5 157.667,657.5 158,656.5C 158.254,660.412 159.087,664.412 160.5,668.5C 161.931,668.977 163.264,669.643 164.5,670.5C 163.572,671.768 163.405,673.101 164,674.5C 166.556,675.219 167.723,676.886 167.5,679.5C 169.527,679.338 171.527,679.505 173.5,680C 172.745,682.175 171.912,684.341 171,686.5C 171.024,690.911 172.524,694.911 175.5,698.5C 176.086,698.291 176.586,697.957 177,697.5C 179.286,700.365 180.12,703.698 179.5,707.5C 160.93,678.354 147.263,647.021 138.5,613.5 Z"/></g>
<g><path style="opacity:0.936" fill="#447396" d="M 214.5,704.5 C 207.651,714.203 201.318,724.203 195.5,734.5C 194.921,731.669 193.588,729.336 191.5,727.5C 187.075,721.078 183.075,714.411 179.5,707.5C 181.3,708.473 183.134,709.473 185,710.5C 187.093,713.768 188.426,717.434 189,721.5C 191.11,725.116 193.944,727.782 197.5,729.5C 201.534,721.113 206.367,713.113 212,705.5C 212.838,704.001 213.671,703.668 214.5,704.5 Z"/></g>
<g><path style="opacity:0.939" fill="#3f76a0" d="M 858.5,688.5 C 857.051,693.464 854.885,698.131 852,702.5C 843.918,714.4 836.084,726.4 828.5,738.5C 824.533,730.565 820.533,722.565 816.5,714.5C 817.583,714.539 818.583,714.873 819.5,715.5C 821.59,718.552 824.59,720.219 828.5,720.5C 828.931,721.293 829.265,722.127 829.5,723C 828.576,724.811 827.743,724.645 827,722.5C 825.991,724.025 825.491,725.692 825.5,727.5C 827.5,727.5 829.5,727.5 831.5,727.5C 831.215,725.712 831.548,724.045 832.5,722.5C 834.368,722.054 836.201,721.721 838,721.5C 838.837,719.649 839.671,717.816 840.5,716C 838.866,713.417 838.7,710.917 840,708.5C 840.29,710.044 840.956,711.377 842,712.5C 844.118,708.6 845.951,704.6 847.5,700.5C 849.144,700.714 850.644,700.38 852,699.5C 853.676,695.473 855.842,691.806 858.5,688.5 Z"/></g>
<g><path style="opacity:1" fill="#04101d" d="M 655.5,622.5 C 659.653,623.166 663.987,623.499 668.5,623.5C 675.072,623.68 681.405,623.014 687.5,621.5C 698.659,619.865 709.659,617.198 720.5,613.5C 724.675,613.854 728.341,612.854 731.5,610.5C 732.354,611.522 733.354,612.355 734.5,613C 733.833,613.333 733.167,613.667 732.5,614C 734.392,614.973 736.392,615.64 738.5,616C 735.542,618.128 734.876,620.794 736.5,624C 731.934,624.074 728.934,626.241 727.5,630.5C 727.937,632.074 728.937,633.241 730.5,634C 767.122,652.459 795.788,679.292 816.5,714.5C 820.533,722.565 824.533,730.565 828.5,738.5C 829.508,741.844 830.508,745.177 831.5,748.5C 831.275,753.248 831.775,757.915 833,762.5C 833.654,761.304 834.154,761.304 834.5,762.5C 832.027,765.414 832.027,768.248 834.5,771C 833.658,775.311 834.325,779.477 836.5,783.5C 837.31,790.734 837.644,797.9 837.5,805C 837.045,806.724 836.212,808.224 835,809.5C 834.667,809.167 834.333,808.833 834,808.5C 833.508,809.549 833.674,810.549 834.5,811.5C 832.14,815.962 828.474,818.629 823.5,819.5C 823.785,821.288 823.452,822.955 822.5,824.5C 820.275,823.899 818.109,823.566 816,823.5C 815.57,827.494 814.07,828.16 811.5,825.5C 809.786,826.609 809.119,825.942 809.5,823.5C 806.065,824.368 802.731,824.368 799.5,823.5C 799.5,822.5 799.5,821.5 799.5,820.5C 797.305,821.608 795.305,821.441 793.5,820C 793.833,819.667 794.167,819.333 794.5,819C 792.782,818.654 791.115,818.154 789.5,817.5C 789.167,818.167 788.833,818.833 788.5,819.5C 787.088,818.194 785.421,817.36 783.5,817C 784.167,816.667 784.833,816.333 785.5,816C 784.23,815.1 783.23,813.934 782.5,812.5C 779.268,811.614 776.268,810.281 773.5,808.5C 772.264,809.246 770.93,809.579 769.5,809.5C 767.517,808.529 765.517,807.529 763.5,806.5C 759.334,803.916 755,801.583 750.5,799.5C 722.548,784.513 692.882,779.847 661.5,785.5C 657.694,785.545 654.027,784.878 650.5,783.5C 646.541,796.491 644.374,809.824 644,823.5C 643.052,839.91 643.552,856.243 645.5,872.5C 639.115,874.346 632.781,876.346 626.5,878.5C 625.191,876.429 624.525,873.929 624.5,871C 621.196,837.044 623.696,803.544 632,770.5C 643.357,734.115 656.69,698.448 672,663.5C 672.667,662.167 672.667,660.833 672,659.5C 639.592,675.037 605.425,681.204 569.5,678C 556.448,676.554 544.115,672.887 532.5,667C 549.482,667.523 566.482,667.523 583.5,667C 615.433,664.773 645.1,655.606 672.5,639.5C 673.289,639.217 673.956,638.717 674.5,638C 668.175,637.5 661.842,637.334 655.5,637.5C 648.116,637.16 640.783,636.327 633.5,635C 609.865,630.847 589.198,620.847 571.5,605C 583.969,609.29 596.636,613.29 609.5,617C 624.626,620.641 639.959,622.474 655.5,622.5 Z"/></g>
<g><path style="opacity:1" fill="#426a8b" d="M 685.5,653.5 C 685.862,664.924 685.029,676.257 683,687.5C 674.901,711.906 666.068,735.906 656.5,759.5C 662.77,737.088 670.27,715.088 679,693.5C 682.303,680.205 684.47,666.872 685.5,653.5 Z"/></g>
<g><path style="opacity:1" fill="#326c98" d="M 690.5,650.5 C 742.625,670.785 780.458,706.452 804,757.5C 808.439,769.587 812.106,781.921 815,794.5C 815.499,799.155 815.666,803.821 815.5,808.5C 811.111,809.912 806.778,809.412 802.5,807C 790.969,799.404 779.302,792.071 767.5,785C 732.365,766.255 695.031,759.588 655.5,765C 654.02,762.765 654.353,760.932 656.5,759.5C 666.068,735.906 674.901,711.906 683,687.5C 685.029,676.257 685.862,664.924 685.5,653.5C 686.965,652.263 688.632,651.263 690.5,650.5 Z"/></g>
<g><path style="opacity:1" fill="#1f3747" d="M 687.5,621.5 C 681.405,623.014 675.072,623.68 668.5,623.5C 663.987,623.499 659.653,623.166 655.5,622.5C 666.185,622.61 676.852,622.277 687.5,621.5 Z"/></g>
<g><path style="opacity:1" fill="#6caed5" d="M 815.5,808.5 C 815.666,803.821 815.499,799.155 815,794.5C 812.106,781.921 808.439,769.587 804,757.5C 780.458,706.452 742.625,670.785 690.5,650.5C 694.125,647.89 697.792,645.223 701.5,642.5C 758.462,665.626 796.628,706.292 816,764.5C 819.678,776.227 821.011,788.227 820,800.5C 819.512,803.855 818.012,806.522 815.5,808.5 Z"/></g>
<g><path style="opacity:1" fill="#326c97" d="M 382.5,643.5 C 385.103,657.92 385.936,672.587 385,687.5C 380.435,711.544 371.769,733.877 359,754.5C 348.293,770.874 334.626,784.207 318,794.5C 304.427,796.935 290.927,799.768 277.5,803C 256.075,811.38 236.075,822.38 217.5,836C 213.286,838.274 208.953,840.274 204.5,842C 198.013,844.067 193.18,842.234 190,836.5C 186.966,826.804 186.799,817.137 189.5,807.5C 188.459,821.622 194.792,826.789 208.5,823C 223.706,814.568 238.706,805.901 253.5,797C 270.124,789.928 287.124,783.928 304.5,779C 309.175,776.664 313.508,773.831 317.5,770.5C 346.646,741.929 367.479,707.929 380,668.5C 382.047,660.291 382.881,651.958 382.5,643.5 Z"/></g>
<g><path style="opacity:1" fill="#76a9bd" d="M 397.5,658.5 C 398.458,658.953 399.292,659.619 400,660.5C 410.696,681.662 414.029,703.995 410,727.5C 406.35,744.732 403.35,762.066 401,779.5C 400.368,789.859 400.701,800.193 402,810.5C 406.25,835.833 413.75,860.166 424.5,883.5C 424.376,884.107 424.043,884.44 423.5,884.5C 415.114,882.756 406.78,880.756 398.5,878.5C 394.012,868.188 389.512,857.855 385,847.5C 375.55,824.366 369.883,800.366 368,775.5C 388.885,747.882 400.051,716.715 401.5,682C 401.406,673.935 400.073,666.102 397.5,658.5 Z"/></g>
<g><path style="opacity:0.02" fill="#f1f7f5" d="M 906.5,540.5 C 906.666,546.176 906.499,551.843 906,557.5C 899.401,604.148 885.401,648.481 864,690.5C 863,691.5 862,692.5 861,693.5C 856,702.5 851,711.5 846,720.5C 840.883,726.441 836.383,732.775 832.5,739.5C 838.957,756.527 842.957,774.194 844.5,792.5C 842.932,798.361 842.098,804.361 842,810.5C 839.042,820.795 832.542,827.962 822.5,832C 805.444,834.462 790.444,830.129 777.5,819C 772.959,816.299 768.292,813.799 763.5,811.5C 683.418,874.623 592.085,903.457 489.5,898C 459.96,895.779 430.96,891.112 402.5,884C 366.807,872.977 333.14,857.31 301.5,837C 296.548,832.875 291.215,829.375 285.5,826.5C 278.083,829.248 270.75,832.081 263.5,835C 247.594,845.97 230.927,855.636 213.5,864C 208.48,864.256 203.647,865.09 199,866.5C 191.723,865.7 184.89,863.533 178.5,860C 173.85,854.687 170.017,848.854 167,842.5C 165.154,835.882 164.321,829.049 164.5,822C 166.454,790.489 175.788,761.489 192.5,735C 189.522,731.869 187.189,728.369 185.5,724.5C 186.117,724.389 186.617,724.056 187,723.5C 187.45,726.106 188.95,727.439 191.5,727.5C 193.588,729.336 194.921,731.669 195.5,734.5C 177.701,763.661 168.534,795.328 168,829.5C 172.981,858.236 189.148,867.736 216.5,858C 231.325,850.424 245.658,842.091 259.5,833C 268.444,828.078 277.777,824.245 287.5,821.5C 316.771,843.973 349.105,860.973 384.5,872.5C 385.058,873.79 386.058,874.623 387.5,875C 391.288,875.874 394.954,877.041 398.5,878.5C 406.78,880.756 415.114,882.756 423.5,884.5C 425.562,885.776 427.896,886.61 430.5,887C 484.92,897.013 539.253,896.847 593.5,886.5C 604.615,883.784 615.615,881.118 626.5,878.5C 632.781,876.346 639.115,874.346 645.5,872.5C 652.205,869.491 658.871,866.491 665.5,863.5C 687.293,854.938 707.959,844.271 727.5,831.5C 739.849,823.66 751.849,815.326 763.5,806.5C 765.517,807.529 767.517,808.529 769.5,809.5C 779.909,818.043 791.575,824.543 804.5,829C 821.9,831.262 833.4,824.095 839,807.5C 841.819,787.053 839.319,767.386 831.5,748.5C 830.508,745.177 829.508,741.844 828.5,738.5C 836.084,726.4 843.918,714.4 852,702.5C 854.885,698.131 857.051,693.464 858.5,688.5C 864.167,680.048 869,671.048 873,661.5C 875.414,653.925 878.414,646.592 882,639.5C 884.148,632.907 885.981,626.241 887.5,619.5C 891.097,611.111 893.764,602.444 895.5,593.5C 896.982,589.349 898.482,585.016 900,580.5C 902.257,565.954 903.924,551.62 905,537.5C 905.232,538.737 905.732,539.737 906.5,540.5 Z"/></g>
<g><path style="opacity:0.769" fill="#37698b" d="M 727.5,831.5 C 707.959,844.271 687.293,854.938 665.5,863.5C 665.953,862.542 666.619,861.708 667.5,861C 678.255,855.864 689.255,850.864 700.5,846C 702.692,844.641 704.359,842.808 705.5,840.5C 704.975,839.808 704.308,839.308 703.5,839C 707.476,837.73 711.476,836.563 715.5,835.5C 716.739,833.993 716.405,832.826 714.5,832C 716.902,831.322 719.068,831.822 721,833.5C 722.879,831.987 725.046,831.321 727.5,831.5 Z"/></g>
<g><path style="opacity:1" fill="#346f9e" d="M 384.5,872.5 C 349.105,860.973 316.771,843.973 287.5,821.5C 297.92,818.46 308.587,816.293 319.5,815C 333.966,809.446 346.299,800.946 356.5,789.5C 362.746,818.3 372.08,845.966 384.5,872.5 Z"/></g>
<g><path style="opacity:0.886" fill="#0e1218" d="M 831.5,748.5 C 839.319,767.386 841.819,787.053 839,807.5C 833.4,824.095 821.9,831.262 804.5,829C 791.575,824.543 779.909,818.043 769.5,809.5C 770.93,809.579 772.264,809.246 773.5,808.5C 776.268,810.281 779.268,811.614 782.5,812.5C 783.23,813.934 784.23,815.1 785.5,816C 784.833,816.333 784.167,816.667 783.5,817C 785.421,817.36 787.088,818.194 788.5,819.5C 788.833,818.833 789.167,818.167 789.5,817.5C 791.115,818.154 792.782,818.654 794.5,819C 794.167,819.333 793.833,819.667 793.5,820C 795.305,821.441 797.305,821.608 799.5,820.5C 799.5,821.5 799.5,822.5 799.5,823.5C 802.731,824.368 806.065,824.368 809.5,823.5C 809.119,825.942 809.786,826.609 811.5,825.5C 814.07,828.16 815.57,827.494 816,823.5C 818.109,823.566 820.275,823.899 822.5,824.5C 823.452,822.955 823.785,821.288 823.5,819.5C 828.474,818.629 832.14,815.962 834.5,811.5C 833.674,810.549 833.508,809.549 834,808.5C 834.333,808.833 834.667,809.167 835,809.5C 836.212,808.224 837.045,806.724 837.5,805C 837.644,797.9 837.31,790.734 836.5,783.5C 834.325,779.477 833.658,775.311 834.5,771C 832.027,768.248 832.027,765.414 834.5,762.5C 834.154,761.304 833.654,761.304 833,762.5C 831.775,757.915 831.275,753.248 831.5,748.5 Z"/></g>
<g><path style="opacity:1" fill="#3879ad" d="M 750.5,799.5 C 755,801.583 759.334,803.916 763.5,806.5C 751.849,815.326 739.849,823.66 727.5,831.5C 725.046,831.321 722.879,831.987 721,833.5C 719.068,831.822 716.902,831.322 714.5,832C 716.405,832.826 716.739,833.993 715.5,835.5C 711.476,836.563 707.476,837.73 703.5,839C 704.308,839.308 704.975,839.808 705.5,840.5C 704.359,842.808 702.692,844.641 700.5,846C 689.255,850.864 678.255,855.864 667.5,861C 666.619,861.708 665.953,862.542 665.5,863.5C 662.568,863.284 659.902,863.951 657.5,865.5C 654.358,863.881 651.025,863.215 647.5,863.5C 647.657,862.127 647.49,860.793 647,859.5C 646.667,859.833 646.333,860.167 646,860.5C 644.912,841.747 645.579,823.081 648,804.5C 649.132,802.661 649.965,800.661 650.5,798.5C 649.194,794.635 649.194,790.802 650.5,787C 662.983,787.246 675.483,786.746 688,785.5C 698.602,785.721 709.102,786.888 719.5,789C 730.063,792.051 740.396,795.551 750.5,799.5 Z"/></g>
<g><path style="opacity:1" fill="#49779f" d="M 750.5,799.5 C 740.396,795.551 730.063,792.051 719.5,789C 709.102,786.888 698.602,785.721 688,785.5C 675.483,786.746 662.983,787.246 650.5,787C 649.194,790.802 649.194,794.635 650.5,798.5C 649.965,800.661 649.132,802.661 648,804.5C 645.579,823.081 644.912,841.747 646,860.5C 646.333,860.167 646.667,859.833 647,859.5C 647.49,860.793 647.657,862.127 647.5,863.5C 651.025,863.215 654.358,863.881 657.5,865.5C 659.902,863.951 662.568,863.284 665.5,863.5C 658.871,866.491 652.205,869.491 645.5,872.5C 643.552,856.243 643.052,839.91 644,823.5C 644.374,809.824 646.541,796.491 650.5,783.5C 654.027,784.878 657.694,785.545 661.5,785.5C 692.882,779.847 722.548,784.513 750.5,799.5 Z"/></g>
</svg>
